<svg width="1280" height="971" viewBox="0 0 1280 971" fill="none" xmlns="http://www.w3.org/2000/svg">
<rect y="109" width="1280" height="258" fill="black"/>
<path d="M187.32 359H124.14L108.15 314.93H-3.38999L-19.77 359H-82.95L17.67 98.87H87.09L187.32 359ZM92.94 266.18L52.38 154.25L11.82 266.18H92.94ZM372.802 359H323.272V339.5C309.752 355.62 289.862 363.68 263.602 363.68C246.702 363.68 231.492 358.22 217.972 347.3C204.712 336.12 198.082 320.78 198.082 301.28C198.082 281 204.582 265.79 217.582 255.65C230.842 245.51 246.182 240.44 263.602 240.44C290.382 240.44 310.272 248.11 323.272 263.45V238.1C323.272 228.48 319.502 220.81 311.962 215.09C304.422 209.37 294.412 206.51 281.932 206.51C261.392 206.51 243.062 213.92 226.942 228.74L208.222 195.59C230.582 175.83 258.012 165.95 290.512 165.95C314.692 165.95 334.452 171.54 349.792 182.72C365.132 193.9 372.802 212.1 372.802 237.32V359ZM283.492 330.14C301.952 330.14 315.212 324.68 323.272 313.76V290.36C315.212 279.44 301.952 273.98 283.492 273.98C273.352 273.98 264.902 276.58 258.142 281.78C251.382 286.72 248.002 293.61 248.002 302.45C248.002 311.03 251.382 317.79 258.142 322.73C264.902 327.67 273.352 330.14 283.492 330.14ZM423.099 98.87H613.029V147.62H478.479V193.64H545.949C572.729 193.64 593.789 201.57 609.129 217.43C624.469 233.29 632.139 252.92 632.139 276.32C632.139 299.72 624.469 319.35 609.129 335.21C593.789 351.07 572.729 359 545.949 359H423.099V98.87ZM538.539 242.39H478.479V310.25H538.539C549.459 310.25 558.299 307.13 565.059 300.89C572.079 294.65 575.589 286.46 575.589 276.32C575.589 265.92 572.079 257.73 565.059 251.75C558.299 245.51 549.459 242.39 538.539 242.39ZM717.559 303.62C726.139 314.28 737.839 319.61 752.659 319.61C767.479 319.61 779.179 314.28 787.759 303.62C796.599 292.96 801.019 279.7 801.019 263.84C801.019 249.02 796.599 236.41 787.759 226.01C779.179 215.35 767.479 210.02 752.659 210.02C737.839 210.02 726.139 215.22 717.559 225.62C708.979 236.02 704.689 248.76 704.689 263.84C704.689 279.7 708.979 292.96 717.559 303.62ZM752.659 363.68C721.979 363.68 697.669 353.67 679.729 333.65C662.049 313.37 653.209 287.5 653.209 256.04C653.209 211.06 661.269 177.39 677.389 155.03C693.509 132.67 718.079 119.28 751.099 114.86C779.439 110.7 793.609 105.37 793.609 98.87H845.089C845.089 126.17 818.959 143.07 766.699 149.57C727.439 154.77 704.819 170.5 698.839 196.76C714.439 176.22 735.889 165.95 763.189 165.95C789.449 165.95 810.769 175.57 827.149 194.81C843.789 214.05 852.109 237.19 852.109 264.23C852.109 292.05 843.009 315.58 824.809 334.82C806.869 354.06 782.819 363.68 752.659 363.68ZM1032.74 359H891.556V98.87H1028.45C1052.11 98.87 1070.44 105.37 1083.44 118.37C1096.7 131.11 1103.33 146.71 1103.33 165.17C1103.33 181.03 1099.04 194.29 1090.46 204.95C1081.88 215.61 1071.22 222.24 1058.48 224.84C1072.52 226.92 1084.35 234.07 1093.97 246.29C1103.59 258.51 1108.4 272.68 1108.4 288.8C1108.4 309.08 1101.77 325.85 1088.51 339.11C1075.25 352.37 1056.66 359 1032.74 359ZM1016.36 203C1025.72 203 1033.13 200.4 1038.59 195.2C1044.05 190 1046.78 183.24 1046.78 174.92C1046.78 166.6 1043.92 159.84 1038.2 154.64C1032.74 149.18 1025.46 146.45 1016.36 146.45H946.936V203H1016.36ZM1018.31 311.03C1028.71 311.03 1036.9 308.43 1042.88 303.23C1048.86 297.77 1051.85 290.36 1051.85 281C1051.85 272.42 1048.86 265.27 1042.88 259.55C1036.9 253.57 1028.71 250.58 1018.31 250.58H946.936V311.03H1018.31ZM1271.84 359H1148.99V170.63H1268.33C1286.53 170.63 1300.7 175.31 1310.84 184.67C1320.98 194.03 1326.05 205.47 1326.05 218.99C1326.05 229.91 1323.06 239.14 1317.08 246.68C1311.1 254.22 1303.43 259.29 1294.07 261.89C1304.47 264.23 1313.05 269.69 1319.81 278.27C1326.57 286.85 1329.95 296.73 1329.95 307.91C1329.95 322.73 1324.75 334.95 1314.35 344.57C1304.21 354.19 1290.04 359 1271.84 359ZM1259.75 318.44C1265.73 318.44 1270.41 316.88 1273.79 313.76C1277.43 310.64 1279.25 306.35 1279.25 300.89C1279.25 295.95 1277.43 291.79 1273.79 288.41C1270.41 285.03 1265.73 283.34 1259.75 283.34H1198.52V318.44H1259.75ZM1258.19 242.78C1263.39 242.78 1267.55 241.35 1270.67 238.49C1274.05 235.37 1275.74 231.6 1275.74 227.18C1275.74 222.5 1274.18 218.73 1271.06 215.87C1267.94 212.75 1263.65 211.19 1258.19 211.19H1198.52V242.78H1258.19Z" fill="white"/>
<rect y="366" width="1280" height="258" fill="black"/>
<path d="M14.1 769.05V686.1C22.9667 684.933 29.85 682.6 34.75 679.1C39.8833 675.6 44.55 668.483 48.75 657.75C52.95 647.017 56.2167 631.733 58.55 611.9L72.2 492.55H238.1V682.25H259.1V769.05H209.4V726H63.8V769.05H14.1ZM107.9 615.4C104.633 645.5 95.1833 667.783 79.55 682.25H188.05V536.3H117L107.9 615.4ZM271.407 769.05V688.9C276.541 687.967 280.507 686.333 283.307 684C286.341 681.433 289.141 676.65 291.707 669.65C294.507 662.417 296.724 652.15 298.357 638.85L309.207 556.95H446.057V687.15H464.607V769.05H420.157V726H316.207V769.05H271.407ZM348.057 595.8L342.807 641.65C340.474 661.95 333.941 677.117 323.207 687.15H401.607V595.8H348.057ZM658.827 726H493.627V492.55H658.827V536.3H543.327V585.65H656.377V629.4H543.327V682.25H658.827V726ZM776.08 730.2C749.947 730.2 728.363 722.033 711.33 705.7C694.297 689.367 685.78 667.9 685.78 641.3C685.78 616.333 693.947 595.333 710.28 578.3C726.847 561.267 747.847 552.75 773.28 552.75C798.48 552.75 818.897 561.383 834.53 578.65C850.163 595.683 857.98 618.083 857.98 645.85V655.65H732.33C733.73 666.85 738.747 676.183 747.38 683.65C756.013 691.117 767.213 694.85 780.98 694.85C788.447 694.85 796.497 693.333 805.13 690.3C813.997 687.267 820.997 683.183 826.13 678.05L845.73 706.75C828.697 722.383 805.48 730.2 776.08 730.2ZM814.93 625.55C814.23 615.983 810.38 607.35 803.38 599.65C796.613 591.95 786.58 588.1 773.28 588.1C760.68 588.1 750.88 591.95 743.88 599.65C736.88 607.117 732.797 615.75 731.63 625.55H814.93ZM1027.29 437.25C1031.95 441.683 1034.29 447.167 1034.29 453.7C1034.29 460.233 1031.95 465.833 1027.29 470.5C1022.62 475.167 1017.02 477.5 1010.49 477.5C1003.95 477.5 998.354 475.167 993.687 470.5C989.02 465.833 986.687 460.233 986.687 453.7C986.687 447.167 989.02 441.683 993.687 437.25C998.354 432.583 1003.95 430.25 1010.49 430.25C1017.02 430.25 1022.62 432.583 1027.29 437.25ZM953.087 437.25C957.754 441.683 960.087 447.167 960.087 453.7C960.087 460.233 957.754 465.833 953.087 470.5C948.654 475.167 943.17 477.5 936.637 477.5C930.104 477.5 924.504 475.167 919.837 470.5C915.17 465.833 912.837 460.233 912.837 453.7C912.837 447.167 915.17 441.683 919.837 437.25C924.504 432.583 930.104 430.25 936.637 430.25C943.17 430.25 948.654 432.583 953.087 437.25ZM1056.34 726H891.137V492.55H1056.34V536.3H940.837V585.65H1053.89V629.4H940.837V682.25H1056.34V726ZM1225.04 495.7C1229.71 500.133 1232.04 505.617 1232.04 512.15C1232.04 518.683 1229.71 524.283 1225.04 528.95C1220.37 533.617 1214.77 535.95 1208.24 535.95C1201.71 535.95 1196.11 533.617 1191.44 528.95C1186.77 524.283 1184.44 518.683 1184.44 512.15C1184.44 505.617 1186.77 500.133 1191.44 495.7C1196.11 491.033 1201.71 488.7 1208.24 488.7C1214.77 488.7 1220.37 491.033 1225.04 495.7ZM1150.84 495.7C1155.51 500.133 1157.84 505.617 1157.84 512.15C1157.84 518.683 1155.51 524.283 1150.84 528.95C1146.41 533.617 1140.92 535.95 1134.39 535.95C1127.86 535.95 1122.26 533.733 1117.59 529.3C1112.92 524.633 1110.59 518.917 1110.59 512.15C1110.59 505.617 1112.92 500.133 1117.59 495.7C1122.26 491.033 1127.86 488.7 1134.39 488.7C1140.92 488.7 1146.41 491.033 1150.84 495.7ZM1173.59 730.2C1147.46 730.2 1125.87 722.033 1108.84 705.7C1091.81 689.367 1083.29 667.9 1083.29 641.3C1083.29 616.333 1091.46 595.333 1107.79 578.3C1124.36 561.267 1145.36 552.75 1170.79 552.75C1195.99 552.75 1216.41 561.383 1232.04 578.65C1247.67 595.683 1255.49 618.083 1255.49 645.85V655.65H1129.84C1131.24 666.85 1136.26 676.183 1144.89 683.65C1153.52 691.117 1164.72 694.85 1178.49 694.85C1185.96 694.85 1194.01 693.333 1202.64 690.3C1211.51 687.267 1218.51 683.183 1223.64 678.05L1243.24 706.75C1226.21 722.383 1202.99 730.2 1173.59 730.2ZM1212.44 625.55C1211.74 615.983 1207.89 607.35 1200.89 599.65C1194.12 591.95 1184.09 588.1 1170.79 588.1C1158.19 588.1 1148.39 591.95 1141.39 599.65C1134.39 607.117 1130.31 615.75 1129.14 625.55H1212.44Z" fill="#737EE6"/>
<rect y="624" width="1280" height="258" fill="black"/>
<path d="M74.2 882H22L106.6 775.8L27.1 681.9H79.6L143.2 762.3V681.9H186.1V762.3L249.4 681.9H302.2L222.7 775.8L307.3 882H255.1L194.5 801.9L186.1 812.1V882H143.2V812.1L134.8 801.9L74.2 882ZM345.091 882H297.691L356.491 802.8L299.491 737.1H346.291L390.691 789.6V737.1H429.091V789.6L473.491 737.1H520.291L463.291 802.8L522.091 882H474.691L435.991 826.2L429.091 833.7V882H390.691V833.7L383.791 826.2L345.091 882ZM610.891 885.6C593.091 885.6 576.791 882.6 561.991 876.6C547.191 870.6 535.991 862.9 528.391 853.5L550.591 825C557.191 832 565.991 837.6 576.991 841.8C588.191 845.8 598.891 847.8 609.091 847.8C622.091 847.8 632.291 845.5 639.691 840.9C647.091 836.1 650.791 829.9 650.791 822.3C650.791 806.9 636.091 799.2 606.691 799.2H566.191V761.7H606.691C619.091 761.7 628.991 759.9 636.391 756.3C643.791 752.7 647.491 747.4 647.491 740.4C647.491 732.8 643.691 727 636.091 723C628.491 718.8 618.691 716.7 606.691 716.7C584.891 716.7 566.791 723.6 552.391 737.4L531.091 710.7C539.491 701.1 550.591 693.4 564.391 687.6C578.391 681.8 593.891 678.9 610.891 678.9C634.491 678.9 653.591 683.8 668.191 693.6C682.791 703.4 690.091 716.6 690.091 733.2C690.091 745.2 685.791 755.3 677.191 763.5C668.591 771.5 658.391 776.6 646.591 778.8C658.191 780 668.791 784.9 678.391 793.5C688.191 801.9 693.091 813 693.091 826.8C693.091 844 685.391 858.1 669.991 869.1C654.591 880.1 634.891 885.6 610.891 885.6ZM777.196 885.6C747.996 885.6 725.496 877.9 709.696 862.5L727.096 838.8C740.096 849.8 756.796 855.3 777.196 855.3C786.796 855.3 794.196 853.9 799.396 851.1C804.596 848.3 807.196 844.5 807.196 839.7C807.196 828.9 796.396 823.5 774.796 823.5H745.096V794.1H774.796C794.596 794.1 804.496 788.9 804.496 778.5C804.496 774.1 801.796 770.6 796.396 768C790.996 765.2 783.996 763.8 775.396 763.8C756.596 763.8 741.596 769.3 730.396 780.3L711.796 757.8C727.796 741.8 748.296 733.8 773.296 733.8C795.696 733.6 813.096 737.1 825.496 744.3C837.896 751.3 844.096 761 844.096 773.4C844.096 782.2 840.396 789.7 832.996 795.9C825.596 802.1 816.696 806 806.296 807.6C816.496 808.2 825.796 811.6 834.196 817.8C842.796 824 847.096 832.1 847.096 842.1C847.096 855.1 840.796 865.6 828.196 873.6C815.596 881.6 798.596 885.6 777.196 885.6ZM917.568 882H876.468V681.9H919.068V811.2L1011.77 681.9H1055.57V882H1012.97V747.9L917.568 882ZM1130.72 882H1094.12V737.1H1132.22V824.7L1191.92 737.1H1230.32V882H1192.22V791.1L1130.72 882Z" fill="#ABFF8D"/>
</svg>
