<svg width="1280" height="302" viewBox="0 0 1280 302" fill="none" xmlns="http://www.w3.org/2000/svg">
<path d="M175 241H167.6L152.8 205.2H78.4L63.6 241H56.2L111.8 107.6H119.4L175 241ZM150.4 199.2L115.6 115L80.8 199.2H150.4Z" fill="black"/>
<path d="M-5.99998 60L1.40002 60L16.2 95.8L90.6 95.8L105.4 60L112.8 60L57.2 193.4L49.6 193.4L-5.99998 60ZM18.6 101.8L53.4 186L88.2 101.8L18.6 101.8Z" fill="black"/>
<path d="M125 60L132.4 60L147.2 95.8L221.6 95.8L236.4 60L243.8 60L188.2 193.4L180.6 193.4L125 60ZM149.6 101.8L184.4 186L219.2 101.8L149.6 101.8Z" fill="black"/>
<path d="M436 241H428.6L413.8 205.2H339.4L324.6 241H317.2L372.8 107.6H380.4L436 241ZM411.4 199.2L376.6 115L341.8 199.2H411.4Z" fill="black"/>
<path d="M255 60L262.4 60L277.2 95.8L351.6 95.8L366.4 60L373.8 60L318.2 193.4L310.6 193.4L255 60ZM279.6 101.8L314.4 186L349.2 101.8L279.6 101.8Z" fill="black"/>
<path d="M386 60L393.4 60L408.2 95.8L482.6 95.8L497.4 60L504.8 60L449.2 193.4L441.6 193.4L386 60ZM410.6 101.8L445.4 186L480.2 101.8L410.6 101.8Z" fill="black"/>
<path d="M697 242H689.6L674.8 206.2H600.4L585.6 242H578.2L633.8 108.6H641.4L697 242ZM672.4 200.2L637.6 116L602.8 200.2H672.4Z" fill="black"/>
<path d="M516 61L523.4 61L538.2 96.8L612.6 96.8L627.4 61L634.8 61L579.2 194.4L571.6 194.4L516 61ZM540.6 102.8L575.4 187L610.2 102.8L540.6 102.8Z" fill="black"/>
<path d="M647 61L654.4 61L669.2 96.8L743.6 96.8L758.4 61L765.8 61L710.2 194.4L702.6 194.4L647 61ZM671.6 102.8L706.4 187L741.2 102.8L671.6 102.8Z" fill="black"/>
<path d="M958 242H950.6L935.8 206.2H861.4L846.6 242H839.2L894.8 108.6H902.4L958 242ZM933.4 200.2L898.6 116L863.8 200.2H933.4Z" fill="black"/>
<path d="M777 61L784.4 61L799.2 96.8L873.6 96.8L888.4 61L895.8 61L840.2 194.4L832.6 194.4L777 61ZM801.6 102.8L836.4 187L871.2 102.8L801.6 102.8Z" fill="black"/>
<path d="M908 61L915.4 61L930.2 96.8L1004.6 96.8L1019.4 61L1026.8 61L971.2 194.4L963.6 194.4L908 61ZM932.6 102.8L967.4 187L1002.2 102.8L932.6 102.8Z" fill="black"/>
<path d="M1219 242H1211.6L1196.8 206.2H1122.4L1107.6 242H1100.2L1155.8 108.6H1163.4L1219 242ZM1194.4 200.2L1159.6 116L1124.8 200.2H1194.4Z" fill="black"/>
<path d="M1038 61L1045.4 61L1060.2 96.8L1134.6 96.8L1149.4 61L1156.8 61L1101.2 194.4L1093.6 194.4L1038 61ZM1062.6 102.8L1097.4 187L1132.2 102.8L1062.6 102.8Z" fill="black"/>
<path d="M1169 61L1176.4 61L1191.2 96.8L1265.6 96.8L1280.4 61L1287.8 61L1232.2 194.4L1224.6 194.4L1169 61ZM1193.6 102.8L1228.4 187L1263.2 102.8L1193.6 102.8Z" fill="black"/>
</svg>
