<svg width="1280" height="1351" viewBox="0 0 1280 1351" fill="none" xmlns="http://www.w3.org/2000/svg">
<path d="M156.56 1032V778.41H338.46C492.54 778.41 578.14 672.48 578.14 548.36C578.14 423.17 493.61 318.31 338.46 318.31H4.62V1032H156.56ZM318.13 644.66H156.56V452.06H318.13C378.05 452.06 422.99 488.44 422.99 548.36C422.99 607.21 378.05 644.66 318.13 644.66Z" fill="#ABFF8D"/>
<path d="M156.56 1032V1037H161.56V1032H156.56ZM156.56 778.41V773.41H151.56V778.41H156.56ZM4.62 318.31V313.31H-0.379997V318.31H4.62ZM4.62 1032H-0.379997V1037H4.62V1032ZM156.56 644.66H151.56V649.66H156.56V644.66ZM156.56 452.06V447.06H151.56V452.06H156.56ZM161.56 1032V778.41H151.56V1032H161.56ZM156.56 783.41H338.46V773.41H156.56V783.41ZM338.46 783.41C416.702 783.41 477.97 756.482 519.672 713.408C561.336 670.374 583.14 611.566 583.14 548.36H573.14C573.14 609.274 552.144 665.491 512.488 706.452C472.87 747.373 414.298 773.41 338.46 773.41V783.41ZM583.14 548.36C583.14 484.644 561.619 425.827 520.074 382.911C478.49 339.955 417.214 313.31 338.46 313.31V323.31C414.856 323.31 473.42 349.095 512.889 389.866C552.396 430.678 573.14 486.886 573.14 548.36H583.14ZM338.46 313.31H4.62V323.31H338.46V313.31ZM-0.379997 318.31V1032H9.62V318.31H-0.379997ZM4.62 1037H156.56V1027H4.62V1037ZM318.13 639.66H156.56V649.66H318.13V639.66ZM161.56 644.66V452.06H151.56V644.66H161.56ZM156.56 457.06H318.13V447.06H156.56V457.06ZM318.13 457.06C347.1 457.06 372.064 465.849 389.715 481.483C407.3 497.059 417.99 519.738 417.99 548.36H427.99C427.99 517.062 416.21 491.591 396.345 473.997C376.546 456.461 349.08 447.06 318.13 447.06V457.06ZM417.99 548.36C417.99 576.428 407.314 599.123 389.7 614.849C372.031 630.625 347.063 639.66 318.13 639.66V649.66C349.117 649.66 376.579 639.97 396.36 622.308C416.197 604.597 427.99 579.142 427.99 548.36H417.99Z" fill="#ABFF8D"/>
<path d="M475.44 319V314H470.44V319H475.44ZM627.38 319H632.38V314H627.38V319ZM627.38 1032.69V1037.69H632.38V1032.69H627.38ZM118.06 966.35L121.682 962.903L121.654 962.873L121.625 962.844L118.06 966.35ZM118.06 638.93L114.467 635.453L118.06 638.93ZM475.44 572.59V577.59H480.44V572.59H475.44ZM238.97 732.02L235.648 728.283L235.64 728.29L238.97 732.02ZM238.97 872.19L242.367 868.521L242.297 868.456L242.224 868.394L238.97 872.19ZM475.44 898.94V903.94H480.44V898.94H475.44ZM475.44 706.34H480.44V701.34H475.44V706.34ZM475.44 324H627.38V314H475.44V324ZM622.38 319L622.38 1032.69H632.38L632.38 319H622.38ZM627.38 1027.69H293.54V1037.69H627.38V1027.69ZM293.54 1027.69C219.676 1027.69 162.618 1005.92 121.682 962.903L114.438 969.797C157.675 1015.23 217.604 1037.69 293.54 1037.69V1027.69ZM121.625 962.844C79.8181 920.341 58.8599 867.064 58.8599 802.64H48.8599C48.8599 869.47 70.7018 925.333 114.495 969.856L121.625 962.844ZM58.8599 802.64C58.8599 738.946 79.8086 685.646 121.653 642.407L114.467 635.453C70.7113 680.667 48.8599 736.508 48.8599 802.64H58.8599ZM121.653 642.407C163.322 599.349 220.409 577.59 293.54 577.59V567.59C218.298 567.59 158.398 590.057 114.467 635.453L121.653 642.407ZM293.54 577.59H475.44V567.59H293.54V577.59ZM480.44 572.59V319H470.44V572.59H480.44ZM313.87 701.34C282.218 701.34 255.992 710.2 235.648 728.283L242.292 735.757C260.468 719.6 284.176 711.34 313.87 711.34V701.34ZM235.64 728.29C214.499 747.166 204.01 772.116 204.01 802.64H214.01C214.01 774.67 223.494 752.54 242.3 735.75L235.64 728.29ZM204.01 802.64C204.01 833.163 214.502 857.803 235.716 875.986L242.224 868.394C223.491 852.337 214.01 830.61 214.01 802.64H204.01ZM235.573 875.859C255.911 894.69 282.164 903.94 313.87 903.94V893.94C284.23 893.94 260.549 885.356 242.367 868.521L235.573 875.859ZM313.87 903.94H475.44V893.94H313.87V903.94ZM480.44 898.94L480.44 706.34H470.44L470.44 898.94H480.44ZM475.44 701.34H313.87V711.34H475.44V701.34Z" fill="#737EE6"/>
<path d="M1275.75 1032V1037H1280.75V1032H1275.75ZM1129.29 1032L1125.26 1034.95L1126.76 1037H1129.29V1032ZM789.352 566.985L793.388 564.034L784.352 551.673V566.985H789.352ZM789.352 1032V1037H794.352V1032H789.352ZM637.554 1032H632.554V1037H637.554V1032ZM637.554 318.977V313.977H632.554V318.977H637.554ZM793.628 318.977L797.652 316.009L796.153 313.977H793.628V318.977ZM1123.95 766.888L1119.92 769.856L1128.95 782.092V766.888H1123.95ZM1123.95 318.977V313.977H1118.95V318.977H1123.95ZM1275.75 318.977H1280.75V313.977H1275.75V318.977ZM1275.75 1027H1129.29V1037H1275.75V1027ZM1133.33 1029.05L793.388 564.034L785.316 569.936L1125.26 1034.95L1133.33 1029.05ZM784.352 566.985V1032H794.352V566.985H784.352ZM789.352 1027H637.554V1037H789.352V1027ZM642.554 1032V318.977H632.554V1032H642.554ZM637.554 323.977H793.628V313.977H637.554V323.977ZM789.604 321.945L1119.92 769.856L1127.97 763.92L797.652 316.009L789.604 321.945ZM1128.95 766.888V318.977H1118.95V766.888H1128.95ZM1123.95 323.977H1275.75V313.977H1123.95V323.977ZM1270.75 318.977V1032H1280.75V318.977H1270.75Z" fill="#ABFF8D"/>
</svg>
