<svg width="1035" height="523" viewBox="0 0 1035 523" fill="none" xmlns="http://www.w3.org/2000/svg">
<path d="M426.04 257.56C410.007 257.56 397.18 252.967 387.56 243.78L399.39 227.01C407.017 234.637 416.247 238.45 427.08 238.45C430.893 238.45 433.883 237.8 436.05 236.5C438.303 235.113 439.43 233.38 439.43 231.3C439.43 229.48 438.217 228.007 435.79 226.88C433.363 225.667 430.33 224.8 426.69 224.28C423.05 223.673 419.107 222.763 414.86 221.55C410.613 220.25 406.67 218.777 403.03 217.13C399.39 215.397 396.357 212.667 393.93 208.94C391.503 205.213 390.29 200.75 390.29 195.55C390.29 187.923 393.367 181.423 399.52 176.05C405.76 170.677 414.21 167.99 424.87 167.99C438.997 167.99 450.74 172.02 460.1 180.08L447.88 196.07C440.6 190.09 432.15 187.1 422.53 187.1C416.29 187.1 413.17 189.18 413.17 193.34C413.17 194.987 414.383 196.417 416.81 197.63C419.237 198.757 422.27 199.623 425.91 200.23C429.55 200.837 433.45 201.79 437.61 203.09C441.857 204.303 445.8 205.777 449.44 207.51C453.08 209.243 456.113 211.93 458.54 215.57C460.967 219.21 462.18 223.543 462.18 228.57C462.18 237.41 459.017 244.473 452.69 249.76C446.363 254.96 437.48 257.56 426.04 257.56ZM555.608 256H530.258L525.968 243.52H491.778L487.488 256H462.138L494.768 169.29H522.848L555.608 256ZM519.858 224.02L508.808 191.39L497.758 224.02H519.858ZM660.423 256H638.063V199.58L616.093 256H606.213L584.373 199.58V256H562.013V169.29H593.083L611.153 216.35L629.353 169.29H660.423V256ZM708.257 257.56C692.223 257.56 679.397 252.967 669.777 243.78L681.607 227.01C689.233 234.637 698.463 238.45 709.297 238.45C713.11 238.45 716.1 237.8 718.267 236.5C720.52 235.113 721.647 233.38 721.647 231.3C721.647 229.48 720.433 228.007 718.007 226.88C715.58 225.667 712.547 224.8 708.907 224.28C705.267 223.673 701.323 222.763 697.077 221.55C692.83 220.25 688.887 218.777 685.247 217.13C681.607 215.397 678.573 212.667 676.147 208.94C673.72 205.213 672.507 200.75 672.507 195.55C672.507 187.923 675.583 181.423 681.737 176.05C687.977 170.677 696.427 167.99 707.087 167.99C721.213 167.99 732.957 172.02 742.317 180.08L730.097 196.07C722.817 190.09 714.367 187.1 704.747 187.1C698.507 187.1 695.387 189.18 695.387 193.34C695.387 194.987 696.6 196.417 699.027 197.63C701.453 198.757 704.487 199.623 708.127 200.23C711.767 200.837 715.667 201.79 719.827 203.09C724.073 204.303 728.017 205.777 731.657 207.51C735.297 209.243 738.33 211.93 740.757 215.57C743.183 219.21 744.397 223.543 744.397 228.57C744.397 237.41 741.233 244.473 734.907 249.76C728.58 254.96 719.697 257.56 708.257 257.56ZM795.935 257.56C782.415 257.56 772.188 254.223 765.255 247.55C758.321 240.877 754.855 231.993 754.855 220.9V169.29H777.605V220.12C777.605 225.407 779.165 229.697 782.285 232.99C785.491 236.197 790.041 237.8 795.935 237.8C801.741 237.8 806.205 236.197 809.325 232.99C812.531 229.697 814.135 225.407 814.135 220.12V169.29H836.755V220.77C836.755 231.95 833.288 240.877 826.355 247.55C819.508 254.223 809.368 257.56 795.935 257.56ZM932.955 256H911.375L874.715 205.82V256H852.355V169.29H875.365L910.465 217V169.29H932.955V256ZM991.095 257.56C977.835 257.56 966.698 253.443 957.685 245.21C948.672 236.977 944.165 226.143 944.165 212.71C944.165 199.277 948.672 188.443 957.685 180.21C966.698 171.977 977.835 167.86 991.095 167.86C1000.11 167.86 1007.69 169.853 1013.85 173.84C1020 177.827 1024.77 182.853 1028.15 188.92L1009.43 198.67C1007.69 195.55 1005.18 192.95 1001.89 190.87C998.678 188.703 995.082 187.62 991.095 187.62C984.075 187.62 978.268 190.047 973.675 194.9C969.168 199.667 966.915 205.603 966.915 212.71C966.915 219.817 969.168 225.797 973.675 230.65C978.268 235.417 984.075 237.8 991.095 237.8C994.128 237.8 997.118 237.28 1000.07 236.24C1003.1 235.2 1005.44 233.987 1007.09 232.6V225.84H987.585V206.21H1029.45V240.66C1019.22 251.927 1006.44 257.56 991.095 257.56Z" fill="#ABFF8D"/>
<path d="M59.5 235H44.1V230.2C42.5667 232 40.4333 233.467 37.7 234.6C35.0333 235.667 32.1667 236.2 29.1 236.2C24.9 236.2 21.0667 234.833 17.6 232.1C14.2 229.3 12.5 225.367 12.5 220.3C12.5 214.967 14.1667 211.067 17.5 208.6C20.8333 206.067 24.7 204.8 29.1 204.8C36.1 204.8 41.1 206.667 44.1 210.4V204.6C44.1 202.467 43.2333 200.767 41.5 199.5C39.7667 198.233 37.3667 197.6 34.3 197.6C29.1667 197.6 24.6 199.3 20.6 202.7L15.1 193C20.9667 188 28.2667 185.5 37 185.5C40.0667 185.5 42.8667 185.833 45.4 186.5C48 187.1 50.3667 188.1 52.5 189.5C54.7 190.9 56.4 192.9 57.6 195.5C58.8667 198.1 59.5 201.2 59.5 204.8V235ZM35.5 226.1C39.6333 226.1 42.5 224.933 44.1 222.6V218.3C42.4333 216.033 39.5667 214.9 35.5 214.9C33.3 214.9 31.4667 215.4 30 216.4C28.5333 217.333 27.8 218.7 27.8 220.5C27.8 222.3 28.5333 223.7 30 224.7C31.4667 225.633 33.3 226.1 35.5 226.1ZM146.878 235H131.578V205.6C131.578 201.267 129.445 199.1 125.178 199.1C121.711 199.1 118.811 200.667 116.478 203.8V235H101.078V205.6C101.078 201.267 98.9448 199.1 94.6781 199.1C91.4781 199.1 88.6115 200.667 86.0781 203.8V235H70.6781V186.7H86.0781V192.6C87.3448 190.933 89.4448 189.333 92.3781 187.8C95.3115 186.267 98.5115 185.5 101.978 185.5C109.111 185.5 113.678 188.367 115.678 194.1C117.211 191.767 119.478 189.767 122.478 188.1C125.545 186.367 128.845 185.5 132.378 185.5C136.978 185.5 140.545 186.733 143.078 189.2C145.611 191.6 146.878 195.2 146.878 200V235ZM202.078 235H186.678V230.2C185.145 232 183.011 233.467 180.278 234.6C177.611 235.667 174.745 236.2 171.678 236.2C167.478 236.2 163.645 234.833 160.178 232.1C156.778 229.3 155.078 225.367 155.078 220.3C155.078 214.967 156.745 211.067 160.078 208.6C163.411 206.067 167.278 204.8 171.678 204.8C178.678 204.8 183.678 206.667 186.678 210.4V204.6C186.678 202.467 185.811 200.767 184.078 199.5C182.345 198.233 179.945 197.6 176.878 197.6C171.745 197.6 167.178 199.3 163.178 202.7L157.678 193C163.545 188 170.845 185.5 179.578 185.5C182.645 185.5 185.445 185.833 187.978 186.5C190.578 187.1 192.945 188.1 195.078 189.5C197.278 190.9 198.978 192.9 200.178 195.5C201.445 198.1 202.078 201.2 202.078 204.8V235ZM178.078 226.1C182.211 226.1 185.078 224.933 186.678 222.6V218.3C185.011 216.033 182.145 214.9 178.078 214.9C175.878 214.9 174.045 215.4 172.578 216.4C171.111 217.333 170.378 218.7 170.378 220.5C170.378 222.3 171.111 223.7 172.578 224.7C174.045 225.633 175.878 226.1 178.078 226.1ZM252.156 235H211.456V223.7L230.856 200.1H211.456V186.7H251.756V197.6L231.956 221.7H252.156V235ZM284.696 236.2C276.763 236.2 270.396 233.733 265.596 228.8C260.796 223.867 258.396 217.867 258.396 210.8C258.396 203.733 260.796 197.767 265.596 192.9C270.396 187.967 276.763 185.5 284.696 185.5C292.696 185.5 299.096 187.967 303.896 192.9C308.696 197.767 311.096 203.733 311.096 210.8C311.096 217.867 308.696 223.867 303.896 228.8C299.096 233.733 292.696 236.2 284.696 236.2ZM276.996 219.3C278.863 221.5 281.429 222.6 284.696 222.6C287.963 222.6 290.529 221.5 292.396 219.3C294.329 217.033 295.296 214.2 295.296 210.8C295.296 207.467 294.329 204.7 292.396 202.5C290.529 200.233 287.963 199.1 284.696 199.1C281.429 199.1 278.863 200.233 276.996 202.5C275.196 204.7 274.296 207.467 274.296 210.8C274.296 214.2 275.196 217.033 276.996 219.3ZM367.313 235H351.913V207.1C351.913 201.767 349.28 199.1 344.013 199.1C340.28 199.1 337.147 200.667 334.613 203.8V235H319.213V186.7H334.613V192.6C338.68 187.867 344.247 185.5 351.313 185.5C356.647 185.5 360.647 186.9 363.313 189.7C365.98 192.433 367.313 196.133 367.313 200.8V235Z" fill="black"/>
<path d="M65.75 139.8C49.95 139.8 36.8 135 26.3 125.4C15.9 115.7 10.7 103.25 10.7 88.05C10.7 72.75 15.9 60.3 26.3 50.7C36.7 41.1 49.85 36.3 65.75 36.3C77.75 36.3 87.4 39.1 94.7 44.7C102.1 50.3 107.6 57.2 111.2 65.4L85.1 77.55C83.8 73.55 81.35 70.15 77.75 67.35C74.15 64.45 70.15 63 65.75 63C58.55 63 52.7 65.4 48.2 70.2C43.7 75 41.45 80.95 41.45 88.05C41.45 95.15 43.7 101.1 48.2 105.9C52.7 110.7 58.55 113.1 65.75 113.1C70.15 113.1 74.15 111.7 77.75 108.9C81.35 106 83.8 102.55 85.1 98.55L111.2 110.55C109.6 114.25 107.6 117.7 105.2 120.9C102.8 124 99.8 127.05 96.2 130.05C92.6 133.05 88.15 135.45 82.85 137.25C77.65 138.95 71.95 139.8 65.75 139.8ZM185.49 128.7C178.09 136.1 168.19 139.8 155.79 139.8C143.39 139.8 133.49 136.1 126.09 128.7C118.79 121.3 115.14 112.3 115.14 101.7C115.14 91.1 118.79 82.15 126.09 74.85C133.49 67.45 143.39 63.75 155.79 63.75C168.19 63.75 178.09 67.45 185.49 74.85C192.89 82.15 196.59 91.1 196.59 101.7C196.59 112.3 192.89 121.3 185.49 128.7ZM155.79 115.95C159.89 115.95 163.09 114.65 165.39 112.05C167.69 109.35 168.84 105.9 168.84 101.7C168.84 97.6 167.69 94.25 165.39 91.65C163.09 88.95 159.89 87.6 155.79 87.6C151.79 87.6 148.64 88.95 146.34 91.65C144.04 94.25 142.89 97.6 142.89 101.7C142.89 105.9 144.04 109.35 146.34 112.05C148.64 114.65 151.79 115.95 155.79 115.95ZM242.362 139.8C230.662 139.8 220.962 136.3 213.262 129.3C205.562 122.3 201.712 113.1 201.712 101.7C201.712 90.4 205.562 81.25 213.262 74.25C220.962 67.25 230.662 63.75 242.362 63.75C249.862 63.75 256.262 65.15 261.562 67.95C266.862 70.65 270.712 73.8 273.112 77.4L255.712 93.75C253.012 89.65 248.962 87.6 243.562 87.6C239.562 87.6 236.162 88.85 233.362 91.35C230.662 93.75 229.312 97.2 229.312 101.7C229.312 106.2 230.662 109.7 233.362 112.2C236.162 114.7 239.562 115.95 243.562 115.95C248.762 115.95 252.812 113.85 255.712 109.65L273.112 126.15C270.712 129.75 266.862 132.95 261.562 135.75C256.262 138.45 249.862 139.8 242.362 139.8ZM350.805 138H323.805V131.1C321.805 133.7 318.755 135.8 314.655 137.4C310.655 139 306.405 139.8 301.905 139.8C295.705 139.8 290.005 137.75 284.805 133.65C279.605 129.45 277.005 123.55 277.005 115.95C277.005 110.35 278.355 105.75 281.055 102.15C283.855 98.45 287.005 96 290.505 94.8C294.005 93.5 297.805 92.85 301.905 92.85C312.305 92.85 319.605 95.5 323.805 100.8V93.3C323.805 90.7 322.605 88.55 320.205 86.85C317.905 85.15 314.605 84.3 310.305 84.3C303.105 84.3 296.405 86.65 290.205 91.35L281.055 74.7C290.155 67.4 301.555 63.75 315.255 63.75C320.055 63.75 324.455 64.25 328.455 65.25C332.455 66.15 336.205 67.7 339.705 69.9C343.205 72 345.905 75.15 347.805 79.35C349.805 83.45 350.805 88.4 350.805 94.2V138ZM313.155 122.25C318.455 122.25 322.005 120.95 323.805 118.35V114.3C322.005 111.7 318.455 110.4 313.155 110.4C306.855 110.4 303.705 112.4 303.705 116.4C303.705 120.3 306.855 122.25 313.155 122.25ZM415.994 139.8C400.194 139.8 387.044 135 376.544 125.4C366.144 115.7 360.944 103.25 360.944 88.05C360.944 72.75 366.144 60.3 376.544 50.7C386.944 41.1 400.094 36.3 415.994 36.3C427.994 36.3 437.644 39.1 444.944 44.7C452.344 50.3 457.844 57.2 461.444 65.4L435.344 77.55C434.044 73.55 431.594 70.15 427.994 67.35C424.394 64.45 420.394 63 415.994 63C408.794 63 402.944 65.4 398.444 70.2C393.944 75 391.694 80.95 391.694 88.05C391.694 95.15 393.944 101.1 398.444 105.9C402.944 110.7 408.794 113.1 415.994 113.1C420.394 113.1 424.394 111.7 427.994 108.9C431.594 106 434.044 102.55 435.344 98.55L461.444 110.55C459.844 114.25 457.844 117.7 455.444 120.9C453.044 124 450.044 127.05 446.444 130.05C442.844 133.05 438.394 135.45 433.094 137.25C427.894 138.95 422.194 139.8 415.994 139.8ZM535.734 128.7C528.334 136.1 518.434 139.8 506.034 139.8C493.634 139.8 483.734 136.1 476.334 128.7C469.034 121.3 465.384 112.3 465.384 101.7C465.384 91.1 469.034 82.15 476.334 74.85C483.734 67.45 493.634 63.75 506.034 63.75C518.434 63.75 528.334 67.45 535.734 74.85C543.134 82.15 546.834 91.1 546.834 101.7C546.834 112.3 543.134 121.3 535.734 128.7ZM506.034 115.95C510.134 115.95 513.334 114.65 515.634 112.05C517.934 109.35 519.084 105.9 519.084 101.7C519.084 97.6 517.934 94.25 515.634 91.65C513.334 88.95 510.134 87.6 506.034 87.6C502.034 87.6 498.884 88.95 496.584 91.65C494.284 94.25 493.134 97.6 493.134 101.7C493.134 105.9 494.284 109.35 496.584 112.05C498.884 114.65 502.034 115.95 506.034 115.95ZM583.906 138H556.906V37.95H583.906V138ZM667.797 138H640.797V131.1C638.797 133.7 635.747 135.8 631.647 137.4C627.647 139 623.397 139.8 618.897 139.8C612.697 139.8 606.997 137.75 601.797 133.65C596.597 129.45 593.997 123.55 593.997 115.95C593.997 110.35 595.347 105.75 598.047 102.15C600.847 98.45 603.997 96 607.497 94.8C610.997 93.5 614.797 92.85 618.897 92.85C629.297 92.85 636.597 95.5 640.797 100.8V93.3C640.797 90.7 639.597 88.55 637.197 86.85C634.897 85.15 631.597 84.3 627.297 84.3C620.097 84.3 613.397 86.65 607.197 91.35L598.047 74.7C607.147 67.4 618.547 63.75 632.247 63.75C637.047 63.75 641.447 64.25 645.447 65.25C649.447 66.15 653.197 67.7 656.697 69.9C660.197 72 662.897 75.15 664.797 79.35C666.797 83.45 667.797 88.4 667.797 94.2V138ZM630.147 122.25C635.447 122.25 638.997 120.95 640.797 118.35V114.3C638.997 111.7 635.447 110.4 630.147 110.4C623.847 110.4 620.697 112.4 620.697 116.4C620.697 120.3 623.847 122.25 630.147 122.25Z" fill="#737EE6"/>
<path d="M745.12 138H733.68V100.64L718.64 138H713.68L698.64 100.64V138H687.28V84.64H703.2L716.16 116.88L729.12 84.64H745.12V138ZM760.518 95.2C758.864 95.2 757.424 94.6133 756.198 93.44C755.024 92.2133 754.438 90.7733 754.438 89.12C754.438 87.4667 755.024 86.0533 756.198 84.88C757.424 83.7067 758.864 83.12 760.518 83.12C762.224 83.12 763.664 83.7067 764.838 84.88C766.011 86.0533 766.598 87.4667 766.598 89.12C766.598 90.7733 766.011 92.2133 764.838 93.44C763.664 94.6133 762.224 95.2 760.518 95.2ZM765.638 138H755.478V99.36H765.638V138ZM793.712 138.96C787.739 138.96 782.832 137.067 778.992 133.28C775.152 129.493 773.232 124.613 773.232 118.64C773.232 112.72 775.152 107.867 778.992 104.08C782.832 100.293 787.739 98.4 793.712 98.4C800.539 98.4 805.632 100.72 808.992 105.36L802.352 111.6C800.485 108.827 797.765 107.44 794.192 107.44C791.099 107.44 788.565 108.48 786.592 110.56C784.672 112.587 783.712 115.28 783.712 118.64C783.712 122 784.672 124.72 786.592 126.8C788.565 128.88 791.099 129.92 794.192 129.92C797.659 129.92 800.379 128.533 802.352 125.76L808.992 131.92C805.632 136.613 800.539 138.96 793.712 138.96ZM825.794 138H815.634V99.36H825.794V104.64C827.234 102.827 829.074 101.333 831.314 100.16C833.554 98.9867 835.82 98.4 838.114 98.4V108.32C837.42 108.16 836.487 108.08 835.314 108.08C833.607 108.08 831.794 108.507 829.874 109.36C827.954 110.213 826.594 111.253 825.794 112.48V138ZM877.262 133.12C873.529 137.013 868.569 138.96 862.382 138.96C856.195 138.96 851.235 137.013 847.502 133.12C843.822 129.173 841.982 124.347 841.982 118.64C841.982 112.933 843.822 108.133 847.502 104.24C851.235 100.347 856.195 98.4 862.382 98.4C868.569 98.4 873.529 100.347 877.262 104.24C880.995 108.133 882.862 112.933 882.862 118.64C882.862 124.347 880.995 129.173 877.262 133.12ZM855.182 126.72C856.942 128.853 859.342 129.92 862.382 129.92C865.422 129.92 867.822 128.853 869.582 126.72C871.395 124.533 872.302 121.84 872.302 118.64C872.302 115.493 871.395 112.853 869.582 110.72C867.822 108.533 865.422 107.44 862.382 107.44C859.342 107.44 856.942 108.533 855.182 110.72C853.422 112.853 852.542 115.493 852.542 118.64C852.542 121.84 853.422 124.533 855.182 126.72ZM904.319 138.96C900.959 138.96 897.733 138.427 894.639 137.36C891.599 136.293 889.066 134.827 887.039 132.96L891.439 125.84C892.933 127.227 894.959 128.453 897.519 129.52C900.079 130.587 902.506 131.12 904.799 131.12C906.933 131.12 908.533 130.747 909.599 130C910.719 129.253 911.279 128.24 911.279 126.96C911.279 126 910.693 125.227 909.519 124.64C908.399 124 906.986 123.547 905.279 123.28C903.626 123.013 901.786 122.613 899.759 122.08C897.786 121.547 895.946 120.907 894.239 120.16C892.586 119.413 891.173 118.24 889.999 116.64C888.879 114.987 888.319 112.96 888.319 110.56C888.319 107.147 889.733 104.267 892.559 101.92C895.386 99.5733 899.253 98.4 904.159 98.4C910.133 98.4 915.333 100.16 919.759 103.68L915.679 110.64C914.453 109.36 912.799 108.293 910.719 107.44C908.693 106.587 906.533 106.16 904.239 106.16C902.426 106.16 900.959 106.533 899.839 107.28C898.719 107.973 898.159 108.88 898.159 110C898.159 110.853 898.719 111.573 899.839 112.16C900.959 112.693 902.373 113.093 904.079 113.36C905.786 113.627 907.626 114.053 909.599 114.64C911.573 115.173 913.413 115.84 915.119 116.64C916.826 117.387 918.239 118.613 919.359 120.32C920.479 122.027 921.039 124.107 921.039 126.56C921.039 130.187 919.546 133.173 916.559 135.52C913.626 137.813 909.546 138.96 904.319 138.96ZM961.324 133.12C957.591 137.013 952.631 138.96 946.444 138.96C940.258 138.96 935.298 137.013 931.564 133.12C927.884 129.173 926.044 124.347 926.044 118.64C926.044 112.933 927.884 108.133 931.564 104.24C935.298 100.347 940.258 98.4 946.444 98.4C952.631 98.4 957.591 100.347 961.324 104.24C965.058 108.133 966.924 112.933 966.924 118.64C966.924 124.347 965.058 129.173 961.324 133.12ZM939.244 126.72C941.004 128.853 943.404 129.92 946.444 129.92C949.484 129.92 951.884 128.853 953.644 126.72C955.458 124.533 956.364 121.84 956.364 118.64C956.364 115.493 955.458 112.853 953.644 110.72C951.884 108.533 949.484 107.44 946.444 107.44C943.404 107.44 941.004 108.533 939.244 110.72C937.484 112.853 936.604 115.493 936.604 118.64C936.604 121.84 937.484 124.533 939.244 126.72ZM986.942 138H976.702V108.24H970.302V99.36H976.702V97.28C976.702 93.1733 977.902 89.92 980.302 87.52C982.702 85.0667 985.849 83.84 989.742 83.84C994.222 83.84 997.582 85.04 999.822 87.44L995.982 93.44C994.915 92.3733 993.502 91.84 991.742 91.84C990.302 91.84 989.129 92.32 988.222 93.28C987.369 94.1867 986.942 95.52 986.942 97.28V99.36H994.782V108.24H986.942V138ZM1013.59 138.96C1010.02 138.96 1007.3 138.053 1005.43 136.24C1003.57 134.427 1002.63 131.813 1002.63 128.4V108.24H996.234V99.36H1002.63V88.8H1012.87V99.36H1020.71V108.24H1012.87V125.68C1012.87 126.907 1013.19 127.92 1013.83 128.72C1014.47 129.52 1015.33 129.92 1016.39 129.92C1017.99 129.92 1019.17 129.547 1019.91 128.8L1022.07 136.48C1020.21 138.133 1017.38 138.96 1013.59 138.96Z" fill="black"/>
<path d="M624 429.6C625.867 432.133 628.533 434.2 632 435.8C635.6 437.4 639.067 438.2 642.4 438.2C648.667 438.2 653.8 436.067 657.8 431.8C661.8 427.533 663.8 421.8 663.8 414.6C663.8 407.533 661.8 401.867 657.8 397.6C653.8 393.333 648.667 391.2 642.4 391.2C639.067 391.2 635.6 392.067 632 393.8C628.533 395.4 625.867 397.467 624 400V429.6ZM624 463H593.2V329.6H624V377.8C631.333 368.6 640.867 364 652.6 364C664.867 364 675 368.6 683 377.8C691.133 386.867 695.2 399.133 695.2 414.6C695.2 430.467 691.2 442.933 683.2 452C675.2 460.933 665 465.4 652.6 465.4C641.4 465.4 631.867 460.867 624 451.8V463ZM770.764 465.4C759.431 465.4 749.897 460.8 742.164 451.6V499.8H711.364V366.4H742.164V377.6C749.631 368.533 759.164 364 770.764 364C783.297 364 793.497 368.467 801.364 377.4C809.231 386.333 813.164 398.733 813.164 414.6C813.164 430.6 809.231 443.067 801.364 452C793.497 460.933 783.297 465.4 770.764 465.4ZM760.564 438.2C766.697 438.2 771.764 436.067 775.764 431.8C779.764 427.533 781.764 421.8 781.764 414.6C781.764 407.533 779.764 401.867 775.764 397.6C771.764 393.333 766.697 391.2 760.564 391.2C757.231 391.2 753.764 392.067 750.164 393.8C746.697 395.4 744.031 397.467 742.164 400V429.4C744.031 431.933 746.697 434.067 750.164 435.8C753.764 437.4 757.231 438.2 760.564 438.2Z" fill="#737EE6"/>
<path d="M414.94 440H409.24L405.7 431.12H385.78L382.24 440H376.54L392.62 399.98H398.8L414.94 440ZM404.2 426.68L395.74 405.14L387.22 426.68H404.2ZM445.492 440H440.992V435.68C438.512 439.04 435.252 440.72 431.212 440.72C427.372 440.72 424.252 439.36 421.852 436.64C419.492 433.88 418.312 430.18 418.312 425.54C418.312 420.94 419.492 417.26 421.852 414.5C424.252 411.7 427.372 410.3 431.212 410.3C435.212 410.3 438.472 412 440.992 415.4V399.98H445.492V440ZM432.292 436.7C434.052 436.7 435.732 436.26 437.332 435.38C438.932 434.5 440.152 433.42 440.992 432.14V419C440.152 417.68 438.912 416.58 437.272 415.7C435.672 414.78 434.012 414.32 432.292 414.32C429.452 414.32 427.192 415.38 425.512 417.5C423.832 419.58 422.992 422.26 422.992 425.54C422.992 428.82 423.832 431.5 425.512 433.58C427.192 435.66 429.452 436.7 432.292 436.7ZM456.724 406.88C455.924 406.88 455.224 406.6 454.624 406.04C454.024 405.44 453.724 404.72 453.724 403.88C453.724 403.04 454.024 402.32 454.624 401.72C455.224 401.12 455.924 400.82 456.724 400.82C457.564 400.82 458.284 401.12 458.884 401.72C459.484 402.32 459.784 403.04 459.784 403.88C459.784 404.72 459.484 405.44 458.884 406.04C458.284 406.6 457.564 406.88 456.724 406.88ZM459.004 440H454.504V411.02H459.004V440ZM493.48 440H488.98V435.68C486.5 439.04 483.24 440.72 479.2 440.72C475.36 440.72 472.24 439.36 469.84 436.64C467.48 433.88 466.3 430.18 466.3 425.54C466.3 420.94 467.48 417.26 469.84 414.5C472.24 411.7 475.36 410.3 479.2 410.3C483.2 410.3 486.46 412 488.98 415.4V399.98H493.48V440ZM480.28 436.7C482.04 436.7 483.72 436.26 485.32 435.38C486.92 434.5 488.14 433.42 488.98 432.14V419C488.14 417.68 486.9 416.58 485.26 415.7C483.66 414.78 482 414.32 480.28 414.32C477.44 414.32 475.18 415.38 473.5 417.5C471.82 419.58 470.98 422.26 470.98 425.54C470.98 428.82 471.82 431.5 473.5 433.58C475.18 435.66 477.44 436.7 480.28 436.7ZM525.112 440H520.612V436.7C518.172 439.38 514.972 440.72 511.012 440.72C508.332 440.72 505.972 439.86 503.932 438.14C501.892 436.42 500.872 434.08 500.872 431.12C500.872 428.08 501.872 425.74 503.872 424.1C505.912 422.42 508.292 421.58 511.012 421.58C515.132 421.58 518.332 422.9 520.612 425.54V420.32C520.612 418.4 519.932 416.9 518.572 415.82C517.212 414.74 515.452 414.2 513.292 414.2C509.892 414.2 506.932 415.54 504.412 418.22L502.312 415.1C505.392 411.9 509.252 410.3 513.892 410.3C517.212 410.3 519.912 411.1 521.992 412.7C524.072 414.3 525.112 416.76 525.112 420.08V440ZM512.632 437.48C516.232 437.48 518.892 436.28 520.612 433.88V428.42C518.892 426.02 516.232 424.82 512.632 424.82C510.552 424.82 508.832 425.42 507.472 426.62C506.152 427.78 505.492 429.3 505.492 431.18C505.492 433.02 506.152 434.54 507.472 435.74C508.832 436.9 510.552 437.48 512.632 437.48ZM543.313 440.72C538.393 440.72 534.493 439.2 531.613 436.16L533.953 432.92C534.953 434.08 536.313 435.06 538.033 435.86C539.793 436.66 541.613 437.06 543.493 437.06C545.653 437.06 547.333 436.6 548.533 435.68C549.733 434.76 550.333 433.56 550.333 432.08C550.333 430.8 549.713 429.8 548.473 429.08C547.233 428.32 545.733 427.76 543.973 427.4C542.253 427 540.513 426.56 538.753 426.08C536.993 425.56 535.493 424.7 534.253 423.5C533.013 422.26 532.393 420.64 532.393 418.64C532.393 416.28 533.353 414.3 535.273 412.7C537.233 411.1 539.873 410.3 543.193 410.3C547.553 410.3 551.133 411.7 553.933 414.5L551.833 417.62C549.793 415.18 546.913 413.96 543.193 413.96C541.233 413.96 539.673 414.4 538.513 415.28C537.353 416.12 536.773 417.2 536.773 418.52C536.773 419.68 537.393 420.6 538.633 421.28C539.873 421.92 541.353 422.44 543.073 422.84C544.833 423.2 546.593 423.64 548.353 424.16C550.113 424.68 551.613 425.6 552.853 426.92C554.093 428.2 554.713 429.88 554.713 431.96C554.713 434.52 553.713 436.62 551.713 438.26C549.713 439.9 546.913 440.72 543.313 440.72Z" fill="black"/>
<path d="M27.04 367H8.58V280.29H69.94V296.54H27.04V314.87H69.03V331.12H27.04V367ZM136.668 367H120.158V360.5C115.651 365.873 109.021 368.56 100.268 368.56C94.6342 368.56 89.5642 366.74 85.0576 363.1C80.6376 359.373 78.4276 354.26 78.4276 347.76C78.4276 341 80.5942 335.93 84.9276 332.55C89.3476 329.17 94.4609 327.48 100.268 327.48C109.194 327.48 115.824 330.037 120.158 335.15V326.7C120.158 323.493 118.901 320.937 116.388 319.03C113.874 317.123 110.538 316.17 106.378 316.17C99.5309 316.17 93.4209 318.64 88.0476 323.58L81.8076 312.53C89.2609 305.943 98.4042 302.65 109.238 302.65C117.298 302.65 123.884 304.513 128.998 308.24C134.111 311.967 136.668 318.033 136.668 326.44V367ZM106.898 357.38C113.051 357.38 117.471 355.56 120.158 351.92V344.12C117.471 340.48 113.051 338.66 106.898 338.66C103.518 338.66 100.701 339.527 98.4476 341.26C96.1942 342.907 95.0676 345.203 95.0676 348.15C95.0676 351.01 96.1942 353.263 98.4476 354.91C100.701 356.557 103.518 357.38 106.898 357.38ZM182.294 368.56C172.587 368.56 164.614 365.483 158.374 359.33C152.134 353.177 149.014 345.247 149.014 335.54C149.014 325.92 152.134 318.033 158.374 311.88C164.614 305.727 172.587 302.65 182.294 302.65C193.387 302.65 201.664 306.42 207.124 313.96L196.334 324.1C193.3 319.593 188.88 317.34 183.074 317.34C178.047 317.34 173.93 319.03 170.724 322.41C167.604 325.703 166.044 330.08 166.044 335.54C166.044 341 167.604 345.42 170.724 348.8C173.93 352.18 178.047 353.87 183.074 353.87C188.707 353.87 193.127 351.617 196.334 347.11L207.124 357.12C201.664 364.747 193.387 368.56 182.294 368.56ZM247.427 368.56C237.72 368.56 229.703 365.527 223.377 359.46C217.05 353.393 213.887 345.42 213.887 335.54C213.887 326.267 216.92 318.467 222.987 312.14C229.14 305.813 236.94 302.65 246.387 302.65C255.747 302.65 263.33 305.857 269.137 312.27C274.943 318.597 277.847 326.917 277.847 337.23V340.87H231.177C231.697 345.03 233.56 348.497 236.767 351.27C239.973 354.043 244.133 355.43 249.247 355.43C252.02 355.43 255.01 354.867 258.217 353.74C261.51 352.613 264.11 351.097 266.017 349.19L273.297 359.85C266.97 365.657 258.347 368.56 247.427 368.56ZM261.857 329.69C261.597 326.137 260.167 322.93 257.567 320.07C255.053 317.21 251.327 315.78 246.387 315.78C241.707 315.78 238.067 317.21 235.467 320.07C232.867 322.843 231.35 326.05 230.917 329.69H261.857ZM306.282 346.85C307.669 348.843 309.705 350.533 312.392 351.92C315.079 353.22 317.765 353.87 320.452 353.87C325.219 353.87 329.075 352.223 332.022 348.93C334.969 345.55 336.442 341.13 336.442 335.67C336.442 330.21 334.969 325.79 332.022 322.41C329.075 319.03 325.219 317.34 320.452 317.34C317.765 317.34 315.079 318.033 312.392 319.42C309.705 320.807 307.669 322.54 306.282 324.62V346.85ZM306.282 367H289.772V280.29H306.282V312.27C311.222 305.857 317.679 302.65 325.652 302.65C333.799 302.65 340.472 305.64 345.672 311.62C350.872 317.6 353.472 325.617 353.472 335.67C353.472 345.897 350.872 353.957 345.672 359.85C340.472 365.657 333.799 368.56 325.652 368.56C317.852 368.56 311.395 365.353 306.282 358.94V367ZM419.244 359.07C413.177 365.397 405.117 368.56 395.064 368.56C385.011 368.56 376.951 365.397 370.884 359.07C364.904 352.657 361.914 344.813 361.914 335.54C361.914 326.267 364.904 318.467 370.884 312.14C376.951 305.813 385.011 302.65 395.064 302.65C405.117 302.65 413.177 305.813 419.244 312.14C425.311 318.467 428.344 326.267 428.344 335.54C428.344 344.813 425.311 352.657 419.244 359.07ZM383.364 348.67C386.224 352.137 390.124 353.87 395.064 353.87C400.004 353.87 403.904 352.137 406.764 348.67C409.711 345.117 411.184 340.74 411.184 335.54C411.184 330.427 409.711 326.137 406.764 322.67C403.904 319.117 400.004 317.34 395.064 317.34C390.124 317.34 386.224 319.117 383.364 322.67C380.504 326.137 379.074 330.427 379.074 335.54C379.074 340.74 380.504 345.117 383.364 348.67ZM493.892 359.07C487.826 365.397 479.766 368.56 469.712 368.56C459.659 368.56 451.599 365.397 445.532 359.07C439.552 352.657 436.562 344.813 436.562 335.54C436.562 326.267 439.552 318.467 445.532 312.14C451.599 305.813 459.659 302.65 469.712 302.65C479.766 302.65 487.826 305.813 493.892 312.14C499.959 318.467 502.992 326.267 502.992 335.54C502.992 344.813 499.959 352.657 493.892 359.07ZM458.012 348.67C460.872 352.137 464.772 353.87 469.712 353.87C474.652 353.87 478.552 352.137 481.412 348.67C484.359 345.117 485.832 340.74 485.832 335.54C485.832 330.427 484.359 326.137 481.412 322.67C478.552 319.117 474.652 317.34 469.712 317.34C464.772 317.34 460.872 319.117 458.012 322.67C455.152 326.137 453.722 330.427 453.722 335.54C453.722 340.74 455.152 345.117 458.012 348.67ZM576.601 367H555.931L539.291 342.82L531.751 350.88V367H515.241V280.29H531.751V332.16L555.541 304.21H575.821L550.991 332.68L576.601 367Z" fill="black"/>
<path d="M843.04 422H833.68V368.64H843.04V422ZM888.623 422H880.223V397.84C880.223 392.507 877.636 389.84 872.463 389.84C870.436 389.84 868.543 390.347 866.783 391.36C865.023 392.373 863.61 393.6 862.543 395.04V422H854.143V383.36H862.543V388.64C863.983 386.933 865.903 385.467 868.303 384.24C870.703 383.013 873.316 382.4 876.143 382.4C880.25 382.4 883.343 383.467 885.423 385.6C887.556 387.733 888.623 390.8 888.623 394.8V422ZM911.134 422.96C907.88 422.96 905.4 422.107 903.694 420.4C902.04 418.693 901.214 416.24 901.214 413.04V390.72H894.814V383.36H901.214V372.8H909.614V383.36H917.454V390.72H909.614V410.96C909.614 412.347 909.934 413.467 910.574 414.32C911.214 415.12 912.12 415.52 913.294 415.52C915 415.52 916.254 415.067 917.054 414.16L919.054 420.48C917.294 422.133 914.654 422.96 911.134 422.96ZM942.921 422.96C937.054 422.96 932.201 421.093 928.361 417.36C924.574 413.573 922.681 408.667 922.681 402.64C922.681 396.987 924.521 392.213 928.201 388.32C931.934 384.373 936.627 382.4 942.281 382.4C947.987 382.4 952.574 384.373 956.041 388.32C959.561 392.267 961.321 397.307 961.321 403.44V405.44H931.481C931.801 408.48 933.054 411.013 935.241 413.04C937.427 415.067 940.281 416.08 943.801 416.08C945.774 416.08 947.747 415.707 949.721 414.96C951.747 414.213 953.427 413.173 954.761 411.84L958.601 417.36C954.707 421.093 949.481 422.96 942.921 422.96ZM953.161 399.52C953.054 396.853 952.067 394.48 950.201 392.4C948.387 390.32 945.747 389.28 942.281 389.28C938.974 389.28 936.387 390.32 934.521 392.4C932.654 394.427 931.614 396.8 931.401 399.52H953.161ZM978.012 422H969.612V368.64H978.012V422Z" fill="black"/>
<path d="M677.64 338H672.52L659.72 292.16L646.92 338H641.8L626.52 284.64H631.64L644.52 331.6L657.64 284.64H661.8L674.84 331.6L687.72 284.64H692.84L677.64 338ZM726.372 338H722.212V333.44C718.852 337.12 714.479 338.96 709.092 338.96C705.519 338.96 702.372 337.813 699.652 335.52C696.932 333.173 695.572 330.027 695.572 326.08C695.572 322.08 696.905 318.96 699.572 316.72C702.292 314.427 705.465 313.28 709.092 313.28C714.532 313.28 718.905 315.12 722.212 318.8V310.96C722.212 308.187 721.225 306.027 719.252 304.48C717.279 302.88 714.799 302.08 711.812 302.08C707.065 302.08 703.039 303.973 699.732 307.76L697.412 304.88C701.412 300.56 706.372 298.4 712.292 298.4C716.452 298.4 719.839 299.44 722.452 301.52C725.065 303.6 726.372 306.693 726.372 310.8V338ZM710.532 335.68C715.599 335.68 719.492 333.92 722.212 330.4V321.92C719.439 318.347 715.545 316.56 710.532 316.56C707.385 316.56 704.825 317.467 702.852 319.28C700.932 321.093 699.972 323.387 699.972 326.16C699.972 328.933 700.932 331.227 702.852 333.04C704.825 334.8 707.385 335.68 710.532 335.68ZM743.531 338H739.371V284.64H743.531V338ZM764.88 338.96C759.813 338.96 757.28 336.16 757.28 330.56V303.04H750.88V299.36H757.28V288.8H761.52V299.36H769.36V303.04H761.52V329.92C761.52 333.44 762.853 335.2 765.52 335.2C767.28 335.2 768.72 334.587 769.84 333.36L771.44 336.56C769.733 338.16 767.547 338.96 764.88 338.96ZM816.414 338H799.374V284.64H816.414C824.468 284.64 830.974 287.227 835.934 292.4C840.894 297.52 843.374 303.84 843.374 311.36C843.374 318.933 840.894 325.28 835.934 330.4C831.028 335.467 824.521 338 816.414 338ZM816.414 333.84C823.241 333.84 828.628 331.707 832.574 327.44C836.574 323.173 838.574 317.813 838.574 311.36C838.574 304.907 836.601 299.547 832.654 295.28C828.708 290.96 823.294 288.8 816.414 288.8H803.934V333.84H816.414ZM856.685 293.28C855.832 293.28 855.085 292.96 854.445 292.32C853.805 291.68 853.485 290.933 853.485 290.08C853.485 289.227 853.805 288.507 854.445 287.92C855.085 287.28 855.832 286.96 856.685 286.96C857.592 286.96 858.338 287.28 858.925 287.92C859.565 288.507 859.885 289.227 859.885 290.08C859.885 290.987 859.565 291.76 858.925 292.4C858.338 292.987 857.592 293.28 856.685 293.28ZM858.765 338H854.605V299.36H858.765V338ZM883.234 338.96C876.994 338.96 872.034 336.933 868.354 332.88L870.834 329.76C872.168 331.413 873.928 332.773 876.114 333.84C878.301 334.907 880.701 335.44 883.314 335.44C886.461 335.44 888.968 334.72 890.834 333.28C892.701 331.787 893.634 329.893 893.634 327.6C893.634 325.68 892.781 324.16 891.074 323.04C889.421 321.867 887.394 321.013 884.994 320.48C882.648 319.893 880.274 319.28 877.874 318.64C875.474 317.947 873.421 316.827 871.714 315.28C870.061 313.733 869.234 311.68 869.234 309.12C869.234 306.08 870.461 303.547 872.914 301.52C875.421 299.44 878.781 298.4 882.994 298.4C888.808 298.4 893.421 300.293 896.834 304.08L894.514 307.04C892.008 303.627 888.168 301.92 882.994 301.92C880.061 301.92 877.714 302.587 875.954 303.92C874.194 305.253 873.314 306.933 873.314 308.96C873.314 310.72 874.141 312.107 875.794 313.12C877.501 314.133 879.528 314.933 881.874 315.52C884.274 316.053 886.674 316.667 889.074 317.36C891.474 318.053 893.501 319.253 895.154 320.96C896.861 322.667 897.714 324.88 897.714 327.6C897.714 330.907 896.461 333.627 893.954 335.76C891.448 337.893 887.874 338.96 883.234 338.96ZM938.673 338H934.513V311.84C934.513 308.32 933.713 305.84 932.113 304.4C930.513 302.907 928.193 302.16 925.153 302.16C922.753 302.16 920.38 302.8 918.033 304.08C915.686 305.36 913.873 306.933 912.593 308.8V338H908.433V299.36H912.593V305.2C914.14 303.387 916.193 301.813 918.753 300.48C921.313 299.093 923.9 298.4 926.513 298.4C934.62 298.4 938.673 302.587 938.673 310.96V338ZM968.756 338.96C963.103 338.96 958.463 337.067 954.836 333.28C951.21 329.493 949.396 324.613 949.396 318.64C949.396 312.987 951.156 308.213 954.676 304.32C958.25 300.373 962.703 298.4 968.036 298.4C973.69 298.4 978.143 300.373 981.396 304.32C984.65 308.213 986.276 313.067 986.276 318.88V320H953.956C954.17 324.373 955.636 328.027 958.356 330.96C961.076 333.893 964.65 335.36 969.076 335.36C974.196 335.36 978.41 333.573 981.716 330L983.876 332.72C979.876 336.88 974.836 338.96 968.756 338.96ZM982.036 316.72C981.983 312.987 980.73 309.6 978.276 306.56C975.876 303.52 972.436 302 967.956 302C963.743 302 960.383 303.52 957.876 306.56C955.423 309.547 954.116 312.933 953.956 316.72H982.036ZM994.467 353.12L995.187 349.28C996.147 349.707 997.267 349.92 998.547 349.92C1001.16 349.92 1003.11 348.347 1004.39 345.2L1007.43 338.32L991.107 299.36H995.747L1009.83 333.12L1023.75 299.36H1028.47L1008.47 346.48C1006.44 351.28 1003.13 353.68 998.547 353.68C997.054 353.68 995.694 353.493 994.467 353.12Z" fill="black"/>
</svg>
