<svg width="1280" height="1028" viewBox="0 0 1280 1028" fill="none" xmlns="http://www.w3.org/2000/svg">
<rect y="140" width="1281" height="720" fill="black"/>
<path d="M92.815 352V133.891H52.267L-16.403 202.888L10.084 230.683L46.381 193.732V352H92.815Z" fill="white"/>
<path d="M143.914 605V556.75H38.922C105.7 508.114 141.984 469.9 141.984 425.896C141.984 374.558 98.366 343.678 43.554 343.678C7.656 343.678 -30.558 356.802 -55.648 385.752L-24.382 422.036C-7.012 403.894 15.376 392.314 44.712 392.314C65.942 392.314 86.4 403.508 86.4 425.896C86.4 457.548 55.52 484.182 -49.858 562.154V605H143.914Z" fill="white"/>
<path d="M547.8 355V330H493.4C528 304.8 546.8 285 546.8 262.2C546.8 235.6 524.2 219.6 495.8 219.6C477.2 219.6 457.4 226.4 444.4 241.4L460.6 260.2C469.6 250.8 481.2 244.8 496.4 244.8C507.4 244.8 518 250.6 518 262.2C518 278.6 502 292.4 447.4 332.8V355H547.8Z" fill="white"/>
<path d="M159.2 393.8C223.2 393.8 264.4 361.4 264.4 315.4C264.4 275.4 229.2 254.2 202 251.4C231.6 246.2 260.4 224.2 260.4 190.6C260.4 146.2 222 118.2 159.6 118.2C112.8 118.2 79.2 136.2 57.6 160.6L86 196.2C104.8 178.2 128 168.6 153.6 168.6C181.6 168.6 203.2 179 203.2 200.2C203.2 219.8 183.6 228.6 154 228.6C144 228.6 125.6 228.6 120.8 228.2V279.4C124.8 279 142.8 278.6 154 278.6C191.2 278.6 207.6 288.2 207.6 309.4C207.6 329.4 189.6 343.4 157.2 343.4C131.2 343.4 102 332.2 83.6 313L54 351C73.6 375 110 393.8 159.2 393.8Z" fill="white"/>
<path d="M650.9 836.6C698.9 836.6 729.8 812.3 729.8 777.8C729.8 747.8 703.4 731.9 683 729.8C705.2 725.9 726.8 709.4 726.8 684.2C726.8 650.9 698 629.9 651.2 629.9C616.1 629.9 590.9 643.4 574.7 661.7L596 688.4C610.1 674.9 627.5 667.7 646.7 667.7C667.7 667.7 683.9 675.5 683.9 691.4C683.9 706.1 669.2 712.7 647 712.7C639.5 712.7 625.7 712.7 622.1 712.4V750.8C625.1 750.5 638.6 750.2 647 750.2C674.9 750.2 687.2 757.4 687.2 773.3C687.2 788.3 673.7 798.8 649.4 798.8C629.9 798.8 608 790.4 594.2 776L572 804.5C586.7 822.5 614 836.6 650.9 836.6Z" fill="white"/>
<path d="M311.4 547.8C375.8 547.8 418.2 512.2 418.2 455.4C418.2 401.4 377.8 369 332.6 369C308.2 369 286.6 378.6 273.8 391.4V326.2H400.2V276.2H217V429.4L256.6 439.8C272.6 424.6 290.6 418.2 312.6 418.2C343 418.2 360.6 434.2 360.6 457.8C360.6 479.4 342.6 497.4 311 497.4C283 497.4 258.2 487 240.2 468.2L208.6 507.8C231.4 532.6 265 547.8 311.4 547.8Z" fill="white"/>
<path d="M533.8 768.6C582.1 768.6 613.9 741.9 613.9 699.3C613.9 658.8 583.6 634.5 549.7 634.5C531.4 634.5 515.2 641.7 505.6 651.3V602.4H600.4V564.9H463V679.8L492.7 687.6C504.7 676.2 518.2 671.4 534.7 671.4C557.5 671.4 570.7 683.4 570.7 701.1C570.7 717.3 557.2 730.8 533.5 730.8C512.5 730.8 493.9 723 480.4 708.9L456.7 738.6C473.8 757.2 499 768.6 533.8 768.6Z" fill="white"/>
<path d="M254.9 728.6C296.9 728.6 335.3 710.3 335.3 673.1C335.3 648.8 316.1 630.2 292.1 621.8C314.3 614 332 599.6 332 574.7C332 537.2 291.8 521.9 254.9 521.9C217.7 521.9 177.8 537.2 177.8 574.7C177.8 599.6 195.2 614 217.4 621.8C193.4 630.2 174.5 648.8 174.5 673.1C174.5 710.6 212.9 728.6 254.9 728.6ZM254.9 605C242.6 603.2 221 596.3 221 581.3C221 566.9 235.1 558.5 254.9 558.5C274.4 558.5 288.5 566.9 288.5 581.3C288.5 596.3 267.2 603.2 254.9 605ZM254.9 692C233.9 692 217.7 682.4 217.7 667.7C217.7 650.9 242.3 642.8 254.9 641C267.2 642.8 292.1 650.9 292.1 667.7C292.1 682.4 275.3 692 254.9 692Z" fill="white"/>
<path d="M698.9 585.3C758 585.3 791.9 542.4 791.9 482.1C791.9 425.4 766.4 378.6 705.8 378.6C660.2 378.6 629 408.3 629 447.3C629 489.9 661.4 512.4 697.4 512.4C719.3 512.4 739.4 500.1 749 486.6C749 488.1 749 489.6 749 491.1C749 519.9 731.9 547.5 698.9 547.5C681.2 547.5 669.8 542.1 659 531.9L640.1 564.6C654.2 577.2 674.6 585.3 698.9 585.3ZM709.4 475.8C690.8 475.8 672.5 466.8 672.5 445.8C672.5 432 685.1 416.4 707.9 416.4C736.1 416.4 746.9 438 748.7 457.2C739.1 468.9 724.4 475.8 709.4 475.8Z" fill="white"/>
<path d="M631.6 621.4C659.6 621.4 685.2 609.2 685.2 584.4C685.2 568.2 672.4 555.8 656.4 550.2C671.2 545 683 535.4 683 518.8C683 493.8 656.2 483.6 631.6 483.6C606.8 483.6 580.2 493.8 580.2 518.8C580.2 535.4 591.8 545 606.6 550.2C590.6 555.8 578 568.2 578 584.4C578 609.4 603.6 621.4 631.6 621.4ZM631.6 539C623.4 537.8 609 533.2 609 523.2C609 513.6 618.4 508 631.6 508C644.6 508 654 513.6 654 523.2C654 533.2 639.8 537.8 631.6 539ZM631.6 597C617.6 597 606.8 590.6 606.8 580.8C606.8 569.6 623.2 564.2 631.6 563C639.8 564.2 656.4 569.6 656.4 580.8C656.4 590.6 645.2 597 631.6 597Z" fill="white"/>
<path d="M409.8 864.8C470.6 864.8 511.8 825.2 511.8 773.2C511.8 716.4 469 686.4 421 686.4C391.8 686.4 365 702.8 352.6 720.8C352.2 718.8 352.2 717.2 352.2 715.2C352.2 672.8 379.8 639.6 419 639.6C442.6 639.6 457.8 646.8 472.2 660.4L497.8 616.8C478.6 600.4 451.4 589.2 419 589.2C340.2 589.2 294.6 646.4 294.6 727.2C294.6 802.4 328.6 864.8 409.8 864.8ZM406.6 814.4C369.4 814.4 355 786 352.6 760.4C365.4 744.4 384.6 735.2 404.6 735.2C430.2 735.2 454.2 747.2 454.2 775.2C454.2 794 437.4 814.4 406.6 814.4Z" fill="white"/>
<path d="M8.6 804.2C48 804.2 70.6 775.6 70.6 735.4C70.6 697.6 53.6 666.4 13.2 666.4C-17.2 666.4 -38 686.2 -38 712.2C-38 740.6 -16.4 755.6 7.6 755.6C22.2 755.6 35.6 747.4 42 738.4C42 739.4 42 740.4 42 741.4C42 760.6 30.6 779 8.6 779C-3.2 779 -10.8 775.4 -18 768.6L-30.6 790.4C-21.2 798.8 -7.6 804.2 8.6 804.2ZM15.6 731.2C3.2 731.2 -9 725.2 -9 711.2C-9 702 -0.599998 691.6 14.6 691.6C33.4 691.6 40.6 706 41.8 718.8C35.4 726.6 25.6 731.2 15.6 731.2Z" fill="white"/>
<path d="M166 862V595.2H116.4L32.4 679.6L64.8 713.6L109.2 668.4V862H166Z" fill="white"/>
<path d="M497 619V352.2H447.4L363.4 436.6L395.8 470.6L440.2 425.4V619H497Z" fill="white"/>
<path d="M383.1 396L457.5 225.6V195.9H307.2V233.4H408L336.3 396H383.1Z" fill="white"/>
<path d="M591.5 460L715.5 176V126.5H465V189H633L513.5 460H591.5Z" fill="white"/>
<path d="M996.1 810L1070.5 639.6V609.9H920.2V647.4H1021L949.3 810H996.1Z" fill="white"/>
<path d="M976.2 397.8C1032.2 397.8 1083.4 373.4 1083.4 323.8C1083.4 291.4 1057.8 266.6 1025.8 255.4C1055.4 245 1079 225.8 1079 192.6C1079 142.6 1025.4 122.2 976.2 122.2C926.6 122.2 873.4 142.6 873.4 192.6C873.4 225.8 896.6 245 926.2 255.4C894.2 266.6 869 291.4 869 323.8C869 373.8 920.2 397.8 976.2 397.8ZM976.2 233C959.8 230.6 931 221.4 931 201.4C931 182.2 949.8 171 976.2 171C1002.2 171 1021 182.2 1021 201.4C1021 221.4 992.6 230.6 976.2 233ZM976.2 349C948.2 349 926.6 336.2 926.6 316.6C926.6 294.2 959.4 283.4 976.2 281C992.6 283.4 1025.8 294.2 1025.8 316.6C1025.8 336.2 1003.4 349 976.2 349Z" fill="white"/>
<path d="M1070.5 619V418.9H1033.3L970.3 482.2L994.6 507.7L1027.9 473.8V619H1070.5Z" fill="white"/>
<path d="M1082.9 882.6C1130.9 882.6 1161.8 858.3 1161.8 823.8C1161.8 793.8 1135.4 777.9 1115 775.8C1137.2 771.9 1158.8 755.4 1158.8 730.2C1158.8 696.9 1130 675.9 1083.2 675.9C1048.1 675.9 1022.9 689.4 1006.7 707.7L1028 734.4C1042.1 720.9 1059.5 713.7 1078.7 713.7C1099.7 713.7 1115.9 721.5 1115.9 737.4C1115.9 752.1 1101.2 758.7 1079 758.7C1071.5 758.7 1057.7 758.7 1054.1 758.4V796.8C1057.1 796.5 1070.6 796.2 1079 796.2C1106.9 796.2 1119.2 803.4 1119.2 819.3C1119.2 834.3 1105.7 844.8 1081.4 844.8C1061.9 844.8 1040 836.4 1026.2 822L1004 850.5C1018.7 868.5 1046 882.6 1082.9 882.6Z" fill="white"/>
<path d="M1292 653V584H1335V521.5H1292V319.5H1194L1061.5 528V584H1221V653H1292ZM1221 521.5H1131L1221 382.5V521.5Z" fill="white"/>
<path d="M1132.8 442V417H1078.4C1113 391.8 1131.8 372 1131.8 349.2C1131.8 322.6 1109.2 306.6 1080.8 306.6C1062.2 306.6 1042.4 313.4 1029.4 328.4L1045.6 347.2C1054.6 337.8 1066.2 331.8 1081.4 331.8C1092.4 331.8 1103 337.6 1103 349.2C1103 365.6 1087 379.4 1032.4 419.8V442H1132.8Z" fill="white"/>
<path d="M166.2 605V577.4H183.4V552.4H166.2V471.6H127L74 555V577.4H137.8V605H166.2ZM137.8 552.4H101.8L137.8 496.8V552.4Z" fill="white"/>
<path d="M946 879V810H989V747.5H946V545.5H848L715.5 754V810H875V879H946ZM875 747.5H785L875 608.5V747.5Z" fill="white"/>
<path d="M842.6 519.6C888.2 519.6 919.1 489.9 919.1 450.9C919.1 408.3 887 385.8 851 385.8C829.1 385.8 809 398.1 799.7 411.6C799.4 410.1 799.4 408.9 799.4 407.4C799.4 375.6 820.1 350.7 849.5 350.7C867.2 350.7 878.6 356.1 889.4 366.3L908.6 333.6C894.2 321.3 873.8 312.9 849.5 312.9C790.4 312.9 756.2 355.8 756.2 416.4C756.2 472.8 781.7 519.6 842.6 519.6ZM840.2 481.8C812.3 481.8 801.5 460.5 799.7 441.3C809.3 429.3 823.7 422.4 838.7 422.4C857.9 422.4 875.9 431.4 875.9 452.4C875.9 466.5 863.3 481.8 840.2 481.8Z" fill="white"/>
<path d="M782.8 337.6C831.1 337.6 862.9 310.9 862.9 268.3C862.9 227.8 832.6 203.5 798.7 203.5C780.4 203.5 764.2 210.7 754.6 220.3V171.4H849.4V133.9H712V248.8L741.7 256.6C753.7 245.2 767.2 240.4 783.7 240.4C806.5 240.4 819.7 252.4 819.7 270.1C819.7 286.3 806.2 299.8 782.5 299.8C761.5 299.8 742.9 292 729.4 277.9L705.7 307.6C722.8 326.2 748 337.6 782.8 337.6Z" fill="white"/>
<path d="M1155.6 295.2C1195 295.2 1217.6 266.6 1217.6 226.4C1217.6 188.6 1200.6 157.4 1160.2 157.4C1129.8 157.4 1109 177.2 1109 203.2C1109 231.6 1130.6 246.6 1154.6 246.6C1169.2 246.6 1182.6 238.4 1189 229.4C1189 230.4 1189 231.4 1189 232.4C1189 251.6 1177.6 270 1155.6 270C1143.8 270 1136.2 266.4 1129 259.6L1116.4 281.4C1125.8 289.8 1139.4 295.2 1155.6 295.2ZM1162.6 222.2C1150.2 222.2 1138 216.2 1138 202.2C1138 193 1146.4 182.6 1161.6 182.6C1180.4 182.6 1187.6 197 1188.8 209.8C1182.4 217.6 1172.6 222.2 1162.6 222.2Z" fill="white"/>
<path d="M1210.4 782L1260 668.4V648.6H1159.8V673.6H1227L1179.2 782H1210.4Z" fill="white"/>
</svg>
