<svg width="1280" height="788" viewBox="0 0 1280 788" fill="none" xmlns="http://www.w3.org/2000/svg">
<path d="M109.3 207.42C99.9133 214.9 88.5467 218.64 75.2 218.64C61.8533 218.64 50.4133 214.9 40.88 207.42C31.4933 199.793 24.7467 190.407 20.64 179.26C16.5333 168.113 14.48 155.94 14.48 142.74C14.48 129.54 16.5333 117.367 20.64 106.22C24.7467 95.0733 31.4933 85.76 40.88 78.28C50.4133 70.8 61.8533 67.06 75.2 67.06C88.5467 67.06 99.9133 70.8 109.3 78.28C118.687 85.76 125.433 95.0733 129.54 106.22C133.793 117.367 135.92 129.54 135.92 142.74C135.92 155.94 133.793 168.113 129.54 179.26C125.433 190.407 118.687 199.793 109.3 207.42ZM53.2 177.72C57.8933 186.52 65.2267 190.92 75.2 190.92C85.1733 190.92 92.4333 186.52 96.98 177.72C101.673 168.92 104.02 157.26 104.02 142.74C104.02 128.22 101.673 116.633 96.98 107.98C92.4333 99.18 85.1733 94.78 75.2 94.78C65.2267 94.78 57.8933 99.18 53.2 107.98C48.5067 116.633 46.16 128.22 46.16 142.74C46.16 157.26 48.5067 168.92 53.2 177.72ZM219.326 216H188.086V109.52L163.666 134.38L145.846 115.68L192.046 69.26H219.326V216ZM354.655 216H244.215V191.58C275.602 168.26 296.355 151.687 306.475 141.86C316.742 131.887 321.875 122.573 321.875 113.92C321.875 107.907 319.528 103.213 314.835 99.84C310.142 96.4667 304.568 94.78 298.115 94.78C282.715 94.78 269.588 100.427 258.735 111.72L240.915 91.04C247.808 83.12 256.242 77.18 266.215 73.22C276.335 69.1133 286.748 67.06 297.455 67.06C313.588 67.06 326.935 71.3133 337.495 79.82C348.202 88.3267 353.555 99.6933 353.555 113.92C353.555 125.947 348.788 137.753 339.255 149.34C329.868 160.78 315.055 173.833 294.815 188.5H354.655V216ZM428.049 218.64C415.142 218.64 403.702 216.513 393.729 212.26C383.756 207.86 375.909 202.14 370.189 195.1L386.469 174.2C391.456 179.333 397.616 183.44 404.949 186.52C412.282 189.453 419.616 190.92 426.949 190.92C435.749 190.92 442.569 189.233 447.409 185.86C452.249 182.34 454.669 177.793 454.669 172.22C454.669 166.353 452.322 162.1 447.629 159.46C442.936 156.673 435.456 155.28 425.189 155.28C415.949 155.28 409.862 155.427 406.929 155.72V127.56C408.689 127.707 414.776 127.78 425.189 127.78C443.229 127.78 452.249 122.573 452.249 112.16C452.249 106.587 449.682 102.333 444.549 99.4C439.562 96.32 433.036 94.78 424.969 94.78C410.742 94.78 398.349 99.84 387.789 109.96L372.169 90.38C385.956 74.8333 404.656 67.06 428.269 67.06C445.429 67.06 458.922 70.6533 468.749 77.84C478.722 85.0267 483.709 94.7067 483.709 106.88C483.709 115.68 480.556 123.087 474.249 129.1C467.942 134.967 460.389 138.707 451.589 140.32C460.242 141.2 468.089 144.793 475.129 151.1C482.316 157.26 485.909 165.4 485.909 175.52C485.909 188.28 480.629 198.693 470.069 206.76C459.509 214.68 445.502 218.64 428.049 218.64ZM601.83 216H570.59V185.64H500.41V161L558.71 69.26H601.83V158.14H620.75V185.64H601.83V216ZM570.59 158.14V96.98L530.99 158.14H570.59ZM693.5 218.64C669.3 218.64 650.453 211.307 636.96 196.64L654.34 174.86C664.606 185.567 677.586 190.92 693.28 190.92C701.64 190.92 708.24 188.867 713.08 184.76C718.066 180.507 720.56 175.3 720.56 169.14C720.56 162.54 718.213 157.26 713.52 153.3C708.826 149.34 702.373 147.36 694.16 147.36C681.986 147.36 671.72 151.32 663.36 159.24L641.58 153.52V69.26H742.34V96.76H672.82V132.62C681.033 124.407 691.813 120.3 705.16 120.3C718.213 120.3 729.286 124.627 738.38 133.28C747.62 141.933 752.24 153.447 752.24 167.82C752.24 183.367 746.886 195.76 736.18 205C725.473 214.093 711.246 218.64 693.5 218.64ZM830.867 218.64C809.747 218.64 793.907 211.6 783.347 197.52C772.787 183.44 767.507 165.253 767.507 142.96C767.507 120.227 773.594 101.893 785.767 87.96C797.941 74.0267 814.661 67.06 835.927 67.06C852.941 67.06 867.387 72.12 879.267 82.24L865.187 106.22C857.121 98.5933 847.367 94.78 835.927 94.78C825.221 94.78 816.421 98.8133 809.527 106.88C802.634 114.8 799.187 124.627 799.187 136.36C799.187 137.68 799.261 138.707 799.407 139.44C803.074 134.16 808.354 129.687 815.247 126.02C822.141 122.353 829.401 120.52 837.027 120.52C850.961 120.52 862.767 124.773 872.447 133.28C882.127 141.64 886.967 153.3 886.967 168.26C886.967 182.78 881.761 194.807 871.347 204.34C860.934 213.873 847.441 218.64 830.867 218.64ZM829.107 190.92C837.027 190.92 843.334 188.72 848.027 184.32C852.867 179.92 855.287 174.933 855.287 169.36C855.287 162.173 852.647 156.747 847.367 153.08C842.087 149.267 835.634 147.36 828.007 147.36C816.274 147.36 806.741 151.98 799.407 161.22C800.141 169.433 802.927 176.473 807.767 182.34C812.607 188.06 819.721 190.92 829.107 190.92ZM954.815 216H920.495L973.075 96.76H899.155V69.26H1009.38V91.04L954.815 216ZM1080.42 218.64C1063.84 218.64 1049.84 215.12 1038.4 208.08C1027.1 201.04 1021.46 190.993 1021.46 177.94C1021.46 169.433 1024.39 161.88 1030.26 155.28C1036.12 148.533 1043.68 143.547 1052.92 140.32C1033.56 133.573 1023.88 122.06 1023.88 105.78C1023.88 93.02 1029.45 83.4133 1040.6 76.96C1051.89 70.36 1065.16 67.06 1080.42 67.06C1090.1 67.06 1099.04 68.3067 1107.26 70.8C1115.47 73.2933 1122.44 77.62 1128.16 83.78C1134.02 89.7933 1136.96 97.1267 1136.96 105.78C1136.96 121.913 1127.2 133.427 1107.7 140.32C1116.94 143.547 1124.49 148.533 1130.36 155.28C1136.37 161.88 1139.38 169.433 1139.38 177.94C1139.38 190.847 1133.66 200.893 1122.22 208.08C1110.78 215.12 1096.84 218.64 1080.42 218.64ZM1080.42 128C1086.43 127.12 1092 125.213 1097.14 122.28C1102.42 119.347 1105.06 115.46 1105.06 110.62C1105.06 105.487 1102.78 101.453 1098.24 98.52C1093.69 95.44 1087.75 93.9 1080.42 93.9C1073.08 93.9 1067.07 95.44 1062.38 98.52C1057.83 101.453 1055.56 105.487 1055.56 110.62C1055.56 115.46 1058.2 119.347 1063.48 122.28C1068.76 125.213 1074.4 127.12 1080.42 128ZM1080.42 191.8C1088.04 191.8 1094.5 190.187 1099.78 186.96C1105.06 183.587 1107.7 179.26 1107.7 173.98C1107.7 168.553 1104.69 164.153 1098.68 160.78C1092.81 157.407 1086.72 155.28 1080.42 154.4C1074.11 155.28 1067.95 157.407 1061.94 160.78C1056.07 164.153 1053.14 168.553 1053.14 173.98C1053.14 179.26 1055.7 183.587 1060.84 186.96C1066.12 190.187 1072.64 191.8 1080.42 191.8ZM1205.04 218.42C1187.58 218.42 1173.21 213.36 1161.92 203.24L1175.78 179.26C1183.84 186.887 1193.6 190.7 1205.04 190.7C1216.48 190.7 1225.42 186.667 1231.88 178.6C1238.48 170.387 1241.78 160.633 1241.78 149.34V146.04C1237.96 151.32 1232.61 155.793 1225.72 159.46C1218.82 163.127 1211.56 164.96 1203.94 164.96C1190 164.96 1178.12 160.78 1168.3 152.42C1158.62 143.913 1153.78 132.18 1153.78 117.22C1153.78 102.7 1158.98 90.6733 1169.4 81.14C1179.96 71.6067 1193.52 66.84 1210.1 66.84C1224.32 66.84 1236.28 70.36 1245.96 77.4C1255.78 84.44 1262.75 93.5333 1266.86 104.68C1271.11 115.68 1273.24 128.367 1273.24 142.74C1273.24 165.327 1267.15 183.587 1254.98 197.52C1242.95 211.453 1226.3 218.42 1205.04 218.42ZM1212.74 138.12C1224.47 138.12 1234.08 133.573 1241.56 124.48C1240.82 116.267 1238.04 109.227 1233.2 103.36C1228.36 97.4933 1221.17 94.56 1211.64 94.56C1203.72 94.56 1197.41 96.76 1192.72 101.16C1188.02 105.56 1185.68 110.547 1185.68 116.12C1185.68 123.307 1188.32 128.807 1193.6 132.62C1198.88 136.287 1205.26 138.12 1212.74 138.12Z" fill="#737EE6"/>
<path d="M95.4 374.2C86.8667 381 76.5333 384.4 64.4 384.4C52.2667 384.4 41.8667 381 33.2 374.2C24.6667 367.267 18.5333 358.733 14.8 348.6C11.0667 338.467 9.2 327.4 9.2 315.4C9.2 303.4 11.0667 292.333 14.8 282.2C18.5333 272.067 24.6667 263.6 33.2 256.8C41.8667 250 52.2667 246.6 64.4 246.6C76.5333 246.6 86.8667 250 95.4 256.8C103.933 263.6 110.067 272.067 113.8 282.2C117.667 292.333 119.6 303.4 119.6 315.4C119.6 327.4 117.667 338.467 113.8 348.6C110.067 358.733 103.933 367.267 95.4 374.2ZM44.4 347.2C48.6667 355.2 55.3333 359.2 64.4 359.2C73.4667 359.2 80.0667 355.2 84.2 347.2C88.4667 339.2 90.6 328.6 90.6 315.4C90.6 302.2 88.4667 291.667 84.2 283.8C80.0667 275.8 73.4667 271.8 64.4 271.8C55.3333 271.8 48.6667 275.8 44.4 283.8C40.1333 291.667 38 302.2 38 315.4C38 328.6 40.1333 339.2 44.4 347.2ZM216.809 382H188.409V285.2L166.209 307.8L150.009 290.8L192.009 248.6H216.809V382ZM365.019 382H264.619V359.8C293.152 338.6 312.019 323.533 321.219 314.6C330.552 305.533 335.219 297.067 335.219 289.2C335.219 283.733 333.085 279.467 328.819 276.4C324.552 273.333 319.485 271.8 313.619 271.8C299.619 271.8 287.685 276.933 277.819 287.2L261.619 268.4C267.885 261.2 275.552 255.8 284.619 252.2C293.819 248.467 303.285 246.6 313.019 246.6C327.685 246.6 339.819 250.467 349.419 258.2C359.152 265.933 364.019 276.267 364.019 289.2C364.019 300.133 359.685 310.867 351.019 321.4C342.485 331.8 329.019 343.667 310.619 357H365.019V382ZM437.428 384.4C425.695 384.4 415.295 382.467 406.228 378.6C397.161 374.6 390.028 369.4 384.828 363L399.628 344C404.161 348.667 409.761 352.4 416.428 355.2C423.095 357.867 429.761 359.2 436.428 359.2C444.428 359.2 450.628 357.667 455.028 354.6C459.428 351.4 461.628 347.267 461.628 342.2C461.628 336.867 459.495 333 455.228 330.6C450.961 328.067 444.161 326.8 434.828 326.8C426.428 326.8 420.895 326.933 418.228 327.2V301.6C419.828 301.733 425.361 301.8 434.828 301.8C451.228 301.8 459.428 297.067 459.428 287.6C459.428 282.533 457.095 278.667 452.428 276C447.895 273.2 441.961 271.8 434.628 271.8C421.695 271.8 410.428 276.4 400.828 285.6L386.628 267.8C399.161 253.667 416.161 246.6 437.628 246.6C453.228 246.6 465.495 249.867 474.428 256.4C483.495 262.933 488.028 271.733 488.028 282.8C488.028 290.8 485.161 297.533 479.428 303C473.695 308.333 466.828 311.733 458.828 313.2C466.695 314 473.828 317.267 480.228 323C486.761 328.6 490.028 336 490.028 345.2C490.028 356.8 485.228 366.267 475.628 373.6C466.028 380.8 453.295 384.4 437.428 384.4ZM599.638 382H571.238V354.4H507.438V332L560.438 248.6H599.638V329.4H616.838V354.4H599.638V382ZM571.238 329.4V273.8L535.238 329.4H571.238ZM687.247 384.4C665.247 384.4 648.114 377.733 635.847 364.4L651.647 344.6C660.98 354.333 672.78 359.2 687.047 359.2C694.647 359.2 700.647 357.333 705.047 353.6C709.58 349.733 711.847 345 711.847 339.4C711.847 333.4 709.714 328.6 705.447 325C701.18 321.4 695.314 319.6 687.847 319.6C676.78 319.6 667.447 323.2 659.847 330.4L640.047 325.2V248.6H731.647V273.6H668.447V306.2C675.914 298.733 685.714 295 697.847 295C709.714 295 719.78 298.933 728.047 306.8C736.447 314.667 740.647 325.133 740.647 338.2C740.647 352.333 735.78 363.6 726.047 372C716.314 380.267 703.38 384.4 687.247 384.4ZM816.056 384.4C796.856 384.4 782.456 378 772.856 365.2C763.256 352.4 758.456 335.867 758.456 315.6C758.456 294.933 763.99 278.267 775.056 265.6C786.123 252.933 801.323 246.6 820.656 246.6C836.123 246.6 849.256 251.2 860.056 260.4L847.256 282.2C839.923 275.267 831.056 271.8 820.656 271.8C810.923 271.8 802.923 275.467 796.656 282.8C790.39 290 787.256 298.933 787.256 309.6C787.256 310.8 787.323 311.733 787.456 312.4C790.79 307.6 795.59 303.533 801.856 300.2C808.123 296.867 814.723 295.2 821.656 295.2C834.323 295.2 845.056 299.067 853.856 306.8C862.656 314.4 867.056 325 867.056 338.6C867.056 351.8 862.323 362.733 852.856 371.4C843.39 380.067 831.123 384.4 816.056 384.4ZM814.456 359.2C821.656 359.2 827.39 357.2 831.656 353.2C836.056 349.2 838.256 344.667 838.256 339.6C838.256 333.067 835.856 328.133 831.056 324.8C826.256 321.333 820.39 319.6 813.456 319.6C802.79 319.6 794.123 323.8 787.456 332.2C788.123 339.667 790.656 346.067 795.056 351.4C799.456 356.6 805.923 359.2 814.456 359.2ZM937.266 382H906.066L953.866 273.6H886.666V248.6H986.866V268.4L937.266 382ZM1061.08 384.4C1046.01 384.4 1033.28 381.2 1022.88 374.8C1012.61 368.4 1007.48 359.267 1007.48 347.4C1007.48 339.667 1010.14 332.8 1015.48 326.8C1020.81 320.667 1027.68 316.133 1036.08 313.2C1018.48 307.067 1009.68 296.6 1009.68 281.8C1009.68 270.2 1014.74 261.467 1024.88 255.6C1035.14 249.6 1047.21 246.6 1061.08 246.6C1069.88 246.6 1078.01 247.733 1085.48 250C1092.94 252.267 1099.28 256.2 1104.47 261.8C1109.81 267.267 1112.48 273.933 1112.48 281.8C1112.48 296.467 1103.61 306.933 1085.88 313.2C1094.28 316.133 1101.14 320.667 1106.48 326.8C1111.94 332.8 1114.68 339.667 1114.68 347.4C1114.68 359.133 1109.48 368.267 1099.08 374.8C1088.68 381.2 1076.01 384.4 1061.08 384.4ZM1061.08 302C1066.54 301.2 1071.61 299.467 1076.28 296.8C1081.08 294.133 1083.48 290.6 1083.48 286.2C1083.48 281.533 1081.41 277.867 1077.28 275.2C1073.14 272.4 1067.74 271 1061.08 271C1054.41 271 1048.94 272.4 1044.68 275.2C1040.54 277.867 1038.48 281.533 1038.48 286.2C1038.48 290.6 1040.88 294.133 1045.68 296.8C1050.48 299.467 1055.61 301.2 1061.08 302ZM1061.08 360C1068.01 360 1073.88 358.533 1078.68 355.6C1083.48 352.533 1085.88 348.6 1085.88 343.8C1085.88 338.867 1083.14 334.867 1077.68 331.8C1072.34 328.733 1066.81 326.8 1061.08 326C1055.34 326.8 1049.74 328.733 1044.28 331.8C1038.94 334.867 1036.28 338.867 1036.28 343.8C1036.28 348.6 1038.61 352.533 1043.28 355.6C1048.08 358.533 1054.01 360 1061.08 360ZM1177.48 384.2C1161.62 384.2 1148.55 379.6 1138.28 370.4L1150.88 348.6C1158.22 355.533 1167.08 359 1177.48 359C1187.88 359 1196.02 355.333 1201.88 348C1207.88 340.533 1210.88 331.667 1210.88 321.4V318.4C1207.42 323.2 1202.55 327.267 1196.28 330.6C1190.02 333.933 1183.42 335.6 1176.48 335.6C1163.82 335.6 1153.02 331.8 1144.08 324.2C1135.28 316.467 1130.88 305.8 1130.88 292.2C1130.88 279 1135.62 268.067 1145.08 259.4C1154.68 250.733 1167.02 246.4 1182.08 246.4C1195.02 246.4 1205.88 249.6 1214.68 256C1223.62 262.4 1229.95 270.667 1233.68 280.8C1237.55 290.8 1239.48 302.333 1239.48 315.4C1239.48 335.933 1233.95 352.533 1222.88 365.2C1211.95 377.867 1196.82 384.2 1177.48 384.2ZM1184.48 311.2C1195.15 311.2 1203.88 307.067 1210.68 298.8C1210.02 291.333 1207.48 284.933 1203.08 279.6C1198.68 274.267 1192.15 271.6 1183.48 271.6C1176.28 271.6 1170.55 273.6 1166.28 277.6C1162.02 281.6 1159.88 286.133 1159.88 291.2C1159.88 297.733 1162.28 302.733 1167.08 306.2C1171.88 309.533 1177.68 311.2 1184.48 311.2Z" fill="#ABFF8D"/>
<path d="M141.92 490.5C141.92 508.247 136.713 523.207 126.3 535.38C115.887 547.553 100.853 553.64 81.2 553.64C61.5467 553.64 46.5133 547.553 36.1 535.38C25.6867 523.207 20.48 508.247 20.48 490.5C20.48 472.607 25.6867 457.647 36.1 445.62C46.5133 433.447 61.5467 427.36 81.2 427.36C100.853 427.36 115.887 433.447 126.3 445.62C136.713 457.647 141.92 472.607 141.92 490.5ZM102.54 516.02C107.527 509.273 110.02 500.767 110.02 490.5C110.02 480.233 107.527 471.8 102.54 465.2C97.5533 458.453 90.44 455.08 81.2 455.08C71.96 455.08 64.7733 458.453 59.64 465.2C54.6533 471.8 52.16 480.233 52.16 490.5C52.16 500.767 54.6533 509.273 59.64 516.02C64.7733 522.62 71.96 525.92 81.2 525.92C90.44 525.92 97.5533 522.62 102.54 516.02ZM225.326 551H194.086V470.26L169.666 495.12L151.846 476.42L198.046 430H225.326V551ZM354.055 551H250.875V526.36C276.835 517.56 295.682 508.54 307.415 499.3C319.148 489.913 325.015 481.113 325.015 472.9C325.015 467.62 322.888 463.367 318.635 460.14C314.382 456.767 309.102 455.08 302.795 455.08C287.395 455.08 274.415 460.727 263.855 472.02L246.035 451.34C252.928 443.42 261.435 437.48 271.555 433.52C281.822 429.413 292.382 427.36 303.235 427.36C319.515 427.36 332.495 431.027 342.175 438.36C351.855 445.693 356.695 455.447 356.695 467.62C356.695 478.62 351.855 489.327 342.175 499.74C332.495 510.007 320.835 517.927 307.195 523.5H354.055V551ZM428.422 579.16C415.515 579.16 404.075 576.96 394.102 572.56C384.129 568.307 376.282 562.66 370.562 555.62L386.842 534.72C391.829 539.853 397.989 543.96 405.322 547.04C412.655 549.973 419.989 551.44 427.322 551.44C436.122 551.44 442.942 549.753 447.782 546.38C452.622 542.86 455.042 538.313 455.042 532.74C455.042 526.873 452.695 522.62 448.002 519.98C443.309 517.193 435.829 515.8 425.562 515.8C416.322 515.8 410.235 515.947 407.302 516.24V488.08C409.062 488.227 415.149 488.3 425.562 488.3C443.602 488.3 452.622 483.093 452.622 472.68C452.622 467.107 450.055 462.853 444.922 459.92C439.935 456.84 433.409 455.3 425.342 455.3C411.115 455.3 398.722 460.36 388.162 470.48L372.542 450.9C386.329 435.353 405.029 427.58 428.642 427.58C445.802 427.58 459.295 431.173 469.122 438.36C479.095 445.547 484.082 455.227 484.082 467.4C484.082 476.2 480.929 483.607 474.622 489.62C468.315 495.487 460.762 499.227 451.962 500.84C460.615 501.72 468.462 505.313 475.502 511.62C482.689 517.78 486.282 525.92 486.282 536.04C486.282 548.8 481.002 559.14 470.442 567.06C459.882 575.127 445.875 579.16 428.422 579.16ZM621.164 545.06H602.244V576.74H571.004V545.06H500.824V520.2L559.124 430H602.244V517.56H621.164V545.06ZM571.004 517.56V457.72L531.404 517.56H571.004ZM693.914 579.38C669.714 579.38 650.867 572.047 637.374 557.38L654.754 535.6C665.02 546.307 678 551.66 693.694 551.66C702.054 551.66 708.654 549.607 713.494 545.5C718.48 541.247 720.974 536.04 720.974 529.88C720.974 523.28 718.627 518 713.934 514.04C709.24 510.08 702.787 508.1 694.574 508.1C682.4 508.1 672.134 512.06 663.774 519.98L641.994 514.26V430H742.754V457.5H673.234V493.36C681.447 485.147 692.227 481.04 705.574 481.04C718.627 481.04 729.7 485.367 738.794 494.02C748.034 502.673 752.654 514.187 752.654 528.56C752.654 544.107 747.3 556.427 736.594 565.52C725.887 574.76 711.66 579.38 693.914 579.38ZM831.281 553.64C810.161 553.64 794.321 546.6 783.761 532.52C773.201 518.44 767.921 500.253 767.921 477.96C767.921 455.227 774.008 436.893 786.181 422.96C798.355 409.027 815.075 402.06 836.341 402.06C853.355 402.06 867.801 407.12 879.681 417.24L865.601 441.22C857.535 433.593 847.781 429.78 836.341 429.78C825.635 429.78 816.835 433.813 809.941 441.88C803.048 449.8 799.601 459.627 799.601 471.36C799.601 472.68 799.675 473.707 799.821 474.44C803.488 469.16 808.768 464.687 815.661 461.02C822.555 457.353 829.815 455.52 837.441 455.52C851.375 455.52 863.181 459.773 872.861 468.28C882.541 476.64 887.381 488.3 887.381 503.26C887.381 517.78 882.175 529.807 871.761 539.34C861.348 548.873 847.855 553.64 831.281 553.64ZM829.521 525.92C837.441 525.92 843.748 523.72 848.441 519.32C853.281 514.92 855.701 509.933 855.701 504.36C855.701 497.173 853.061 491.747 847.781 488.08C842.501 484.267 836.048 482.36 828.421 482.36C816.688 482.36 807.155 486.98 799.821 496.22C800.555 504.433 803.341 511.473 808.181 517.34C813.021 523.06 820.135 525.92 829.521 525.92ZM955.229 576.74H920.909L973.489 457.5H899.569V430H1009.79V451.78L955.229 576.74ZM1080.83 553.64C1064.26 553.64 1050.25 550.12 1038.81 543.08C1027.52 536.04 1021.87 525.993 1021.87 512.94C1021.87 504.433 1024.81 496.88 1030.67 490.28C1036.54 483.533 1044.09 478.547 1053.33 475.32C1033.97 468.573 1024.29 457.06 1024.29 440.78C1024.29 428.02 1029.87 418.413 1041.01 411.96C1052.31 405.36 1065.58 402.06 1080.83 402.06C1090.51 402.06 1099.46 403.307 1107.67 405.8C1115.89 408.293 1122.85 412.62 1128.57 418.78C1134.44 424.793 1137.37 432.127 1137.37 440.78C1137.37 456.913 1127.62 468.427 1108.11 475.32C1117.35 478.547 1124.91 483.533 1130.77 490.28C1136.79 496.88 1139.79 504.433 1139.79 512.94C1139.79 525.847 1134.07 535.893 1122.63 543.08C1111.19 550.12 1097.26 553.64 1080.83 553.64ZM1080.83 463C1086.85 462.12 1092.42 460.213 1097.55 457.28C1102.83 454.347 1105.47 450.46 1105.47 445.62C1105.47 440.487 1103.2 436.453 1098.65 433.52C1094.11 430.44 1088.17 428.9 1080.83 428.9C1073.5 428.9 1067.49 430.44 1062.79 433.52C1058.25 436.453 1055.97 440.487 1055.97 445.62C1055.97 450.46 1058.61 454.347 1063.89 457.28C1069.17 460.213 1074.82 462.12 1080.83 463ZM1080.83 526.8C1088.46 526.8 1094.91 525.187 1100.19 521.96C1105.47 518.587 1108.11 514.26 1108.11 508.98C1108.11 503.553 1105.11 499.153 1099.09 495.78C1093.23 492.407 1087.14 490.28 1080.83 489.4C1074.53 490.28 1068.37 492.407 1062.35 495.78C1056.49 499.153 1053.55 503.553 1053.55 508.98C1053.55 514.26 1056.12 518.587 1061.25 521.96C1066.53 525.187 1073.06 526.8 1080.83 526.8ZM1205.45 578.94C1188 578.94 1173.62 573.88 1162.33 563.76L1176.19 539.78C1184.26 547.407 1194.01 551.22 1205.45 551.22C1216.89 551.22 1225.84 547.187 1232.29 539.12C1238.89 530.907 1242.19 521.153 1242.19 509.86V506.56C1238.38 511.84 1233.02 516.313 1226.13 519.98C1219.24 523.647 1211.98 525.48 1204.35 525.48C1190.42 525.48 1178.54 521.3 1168.71 512.94C1159.03 504.433 1154.19 492.7 1154.19 477.74C1154.19 463.22 1159.4 451.193 1169.81 441.66C1180.37 432.127 1193.94 427.36 1210.51 427.36C1224.74 427.36 1236.69 430.88 1246.37 437.92C1256.2 444.96 1263.16 454.053 1267.27 465.2C1271.52 476.2 1273.65 488.887 1273.65 503.26C1273.65 525.847 1267.56 544.107 1255.39 558.04C1243.36 571.973 1226.72 578.94 1205.45 578.94ZM1213.15 498.64C1224.88 498.64 1234.49 494.093 1241.97 485C1241.24 476.787 1238.45 469.747 1233.61 463.88C1228.77 458.013 1221.58 455.08 1212.05 455.08C1204.13 455.08 1197.82 457.28 1193.13 461.68C1188.44 466.08 1186.09 471.067 1186.09 476.64C1186.09 483.827 1188.73 489.327 1194.01 493.14C1199.29 496.807 1205.67 498.64 1213.15 498.64Z" fill="#737EE6"/>
<path d="M118.6 673C118.6 689.133 113.867 702.733 104.4 713.8C94.9333 724.867 81.2667 730.4 63.4 730.4C45.5333 730.4 31.8667 724.867 22.4 713.8C12.9333 702.733 8.2 689.133 8.2 673C8.2 656.733 12.9333 643.133 22.4 632.2C31.8667 621.133 45.5333 615.6 63.4 615.6C81.2667 615.6 94.9333 621.133 104.4 632.2C113.867 643.133 118.6 656.733 118.6 673ZM82.8 696.2C87.3333 690.067 89.6 682.333 89.6 673C89.6 663.667 87.3333 656 82.8 650C78.2667 643.867 71.8 640.8 63.4 640.8C55 640.8 48.4667 643.867 43.8 650C39.2667 656 37 663.667 37 673C37 682.333 39.2667 690.067 43.8 696.2C48.4667 702.2 55 705.2 63.4 705.2C71.8 705.2 78.2667 702.2 82.8 696.2ZM215.809 728H187.409V654.6L165.209 677.2L149.009 660.2L191.009 618H215.809V728ZM358.419 728H264.619V705.6C288.219 697.6 305.352 689.4 316.019 681C326.685 672.467 332.019 664.467 332.019 657C332.019 652.2 330.085 648.333 326.219 645.4C322.352 642.333 317.552 640.8 311.819 640.8C297.819 640.8 286.019 645.933 276.419 656.2L260.219 637.4C266.485 630.2 274.219 624.8 283.419 621.2C292.752 617.467 302.352 615.6 312.219 615.6C327.019 615.6 338.819 618.933 347.619 625.6C356.419 632.267 360.819 641.133 360.819 652.2C360.819 662.2 356.419 671.933 347.619 681.4C338.819 690.733 328.219 697.933 315.819 703H358.419V728ZM436.428 753.4C424.695 753.4 414.295 751.4 405.228 747.4C396.161 743.533 389.028 738.4 383.828 732L398.628 713C403.161 717.667 408.761 721.4 415.428 724.2C422.095 726.867 428.761 728.2 435.428 728.2C443.428 728.2 449.628 726.667 454.028 723.6C458.428 720.4 460.628 716.267 460.628 711.2C460.628 705.867 458.495 702 454.228 699.6C449.961 697.067 443.161 695.8 433.828 695.8C425.428 695.8 419.895 695.933 417.228 696.2V670.6C418.828 670.733 424.361 670.8 433.828 670.8C450.228 670.8 458.428 666.067 458.428 656.6C458.428 651.533 456.095 647.667 451.428 645C446.895 642.2 440.961 640.8 433.628 640.8C420.695 640.8 409.428 645.4 399.828 654.6L385.628 636.8C398.161 622.667 415.161 615.6 436.628 615.6C452.228 615.6 464.495 618.867 473.428 625.4C482.495 631.933 487.028 640.733 487.028 651.8C487.028 659.8 484.161 666.533 478.428 672C472.695 677.333 465.828 680.733 457.828 682.2C465.695 683 472.828 686.267 479.228 692C485.761 697.6 489.028 705 489.028 714.2C489.028 725.8 484.228 735.2 474.628 742.4C465.028 749.733 452.295 753.4 436.428 753.4ZM615.838 722.6H598.638V751.4H570.238V722.6H506.438V700L559.438 618H598.638V697.6H615.838V722.6ZM570.238 697.6V643.2L534.238 697.6H570.238ZM686.247 753.8C664.247 753.8 647.114 747.133 634.847 733.8L650.647 714C659.98 723.733 671.78 728.6 686.047 728.6C693.647 728.6 699.647 726.733 704.047 723C708.58 719.133 710.847 714.4 710.847 708.8C710.847 702.8 708.714 698 704.447 694.4C700.18 690.8 694.314 689 686.847 689C675.78 689 666.447 692.6 658.847 699.8L639.047 694.6V618H730.647V643H667.447V675.6C674.914 668.133 684.714 664.4 696.847 664.4C708.714 664.4 718.78 668.333 727.047 676.2C735.447 684.067 739.647 694.533 739.647 707.6C739.647 721.733 734.78 732.933 725.047 741.2C715.314 749.6 702.38 753.8 686.247 753.8ZM815.056 730.4C795.856 730.4 781.456 724 771.856 711.2C762.256 698.4 757.456 681.867 757.456 661.6C757.456 640.933 762.99 624.267 774.056 611.6C785.123 598.933 800.323 592.6 819.656 592.6C835.123 592.6 848.256 597.2 859.056 606.4L846.256 628.2C838.923 621.267 830.056 617.8 819.656 617.8C809.923 617.8 801.923 621.467 795.656 628.8C789.39 636 786.256 644.933 786.256 655.6C786.256 656.8 786.323 657.733 786.456 658.4C789.79 653.6 794.59 649.533 800.856 646.2C807.123 642.867 813.723 641.2 820.656 641.2C833.323 641.2 844.056 645.067 852.856 652.8C861.656 660.4 866.056 671 866.056 684.6C866.056 697.8 861.323 708.733 851.856 717.4C842.39 726.067 830.123 730.4 815.056 730.4ZM813.456 705.2C820.656 705.2 826.39 703.2 830.656 699.2C835.056 695.2 837.256 690.667 837.256 685.6C837.256 679.067 834.856 674.133 830.056 670.8C825.256 667.333 819.39 665.6 812.456 665.6C801.79 665.6 793.123 669.8 786.456 678.2C787.123 685.667 789.656 692.067 794.056 697.4C798.456 702.6 804.923 705.2 813.456 705.2ZM936.266 751.4H905.066L952.866 643H885.666V618H985.866V637.8L936.266 751.4ZM1060.08 730.4C1045.01 730.4 1032.28 727.2 1021.88 720.8C1011.61 714.4 1006.48 705.267 1006.48 693.4C1006.48 685.667 1009.14 678.8 1014.48 672.8C1019.81 666.667 1026.68 662.133 1035.08 659.2C1017.48 653.067 1008.68 642.6 1008.68 627.8C1008.68 616.2 1013.74 607.467 1023.88 601.6C1034.14 595.6 1046.21 592.6 1060.08 592.6C1068.88 592.6 1077.01 593.733 1084.48 596C1091.94 598.267 1098.28 602.2 1103.47 607.8C1108.81 613.267 1111.48 619.933 1111.48 627.8C1111.48 642.467 1102.61 652.933 1084.88 659.2C1093.28 662.133 1100.14 666.667 1105.48 672.8C1110.94 678.8 1113.68 685.667 1113.68 693.4C1113.68 705.133 1108.48 714.267 1098.08 720.8C1087.68 727.2 1075.01 730.4 1060.08 730.4ZM1060.08 648C1065.54 647.2 1070.61 645.467 1075.28 642.8C1080.08 640.133 1082.48 636.6 1082.48 632.2C1082.48 627.533 1080.41 623.867 1076.28 621.2C1072.14 618.4 1066.74 617 1060.08 617C1053.41 617 1047.94 618.4 1043.68 621.2C1039.54 623.867 1037.48 627.533 1037.48 632.2C1037.48 636.6 1039.88 640.133 1044.68 642.8C1049.48 645.467 1054.61 647.2 1060.08 648ZM1060.08 706C1067.01 706 1072.88 704.533 1077.68 701.6C1082.48 698.533 1084.88 694.6 1084.88 689.8C1084.88 684.867 1082.14 680.867 1076.68 677.8C1071.34 674.733 1065.81 672.8 1060.08 672C1054.34 672.8 1048.74 674.733 1043.28 677.8C1037.94 680.867 1035.28 684.867 1035.28 689.8C1035.28 694.6 1037.61 698.533 1042.28 701.6C1047.08 704.533 1053.01 706 1060.08 706ZM1176.48 753.4C1160.62 753.4 1147.55 748.8 1137.28 739.6L1149.88 717.8C1157.22 724.733 1166.08 728.2 1176.48 728.2C1186.88 728.2 1195.02 724.533 1200.88 717.2C1206.88 709.733 1209.88 700.867 1209.88 690.6V687.6C1206.42 692.4 1201.55 696.467 1195.28 699.8C1189.02 703.133 1182.42 704.8 1175.48 704.8C1162.82 704.8 1152.02 701 1143.08 693.4C1134.28 685.667 1129.88 675 1129.88 661.4C1129.88 648.2 1134.62 637.267 1144.08 628.6C1153.68 619.933 1166.02 615.6 1181.08 615.6C1194.02 615.6 1204.88 618.8 1213.68 625.2C1222.62 631.6 1228.95 639.867 1232.68 650C1236.55 660 1238.48 671.533 1238.48 684.6C1238.48 705.133 1232.95 721.733 1221.88 734.4C1210.95 747.067 1195.82 753.4 1176.48 753.4ZM1183.48 680.4C1194.15 680.4 1202.88 676.267 1209.68 668C1209.02 660.533 1206.48 654.133 1202.08 648.8C1197.68 643.467 1191.15 640.8 1182.48 640.8C1175.28 640.8 1169.55 642.8 1165.28 646.8C1161.02 650.8 1158.88 655.333 1158.88 660.4C1158.88 666.933 1161.28 671.933 1166.08 675.4C1170.88 678.733 1176.68 680.4 1183.48 680.4Z" fill="#ABFF8D"/>
<path d="M100.3 193.42C90.9133 200.9 79.5467 204.64 66.2 204.64C52.8533 204.64 41.4133 200.9 31.88 193.42C22.4933 185.793 15.7467 176.407 11.64 165.26C7.53333 154.113 5.48 141.94 5.48 128.74C5.48 115.54 7.53333 103.367 11.64 92.22C15.7467 81.0733 22.4933 71.76 31.88 64.28C41.4133 56.8 52.8533 53.06 66.2 53.06C79.5467 53.06 90.9133 56.8 100.3 64.28C109.687 71.76 116.433 81.0733 120.54 92.22C124.793 103.367 126.92 115.54 126.92 128.74C126.92 141.94 124.793 154.113 120.54 165.26C116.433 176.407 109.687 185.793 100.3 193.42ZM44.2 163.72C48.8933 172.52 56.2267 176.92 66.2 176.92C76.1733 176.92 83.4333 172.52 87.98 163.72C92.6733 154.92 95.02 143.26 95.02 128.74C95.02 114.22 92.6733 102.633 87.98 93.98C83.4333 85.18 76.1733 80.78 66.2 80.78C56.2267 80.78 48.8933 85.18 44.2 93.98C39.5067 102.633 37.16 114.22 37.16 128.74C37.16 143.26 39.5067 154.92 44.2 163.72ZM210.326 202H179.086V95.52L154.666 120.38L136.846 101.68L183.046 55.26H210.326V202ZM345.655 202H235.215V177.58C266.602 154.26 287.355 137.687 297.475 127.86C307.742 117.887 312.875 108.573 312.875 99.92C312.875 93.9067 310.528 89.2133 305.835 85.84C301.142 82.4667 295.568 80.78 289.115 80.78C273.715 80.78 260.588 86.4267 249.735 97.72L231.915 77.04C238.808 69.12 247.242 63.18 257.215 59.22C267.335 55.1133 277.748 53.06 288.455 53.06C304.588 53.06 317.935 57.3133 328.495 65.82C339.202 74.3267 344.555 85.6933 344.555 99.92C344.555 111.947 339.788 123.753 330.255 135.34C320.868 146.78 306.055 159.833 285.815 174.5H345.655V202ZM419.049 204.64C406.142 204.64 394.702 202.513 384.729 198.26C374.756 193.86 366.909 188.14 361.189 181.1L377.469 160.2C382.456 165.333 388.616 169.44 395.949 172.52C403.282 175.453 410.616 176.92 417.949 176.92C426.749 176.92 433.569 175.233 438.409 171.86C443.249 168.34 445.669 163.793 445.669 158.22C445.669 152.353 443.322 148.1 438.629 145.46C433.936 142.673 426.456 141.28 416.189 141.28C406.949 141.28 400.862 141.427 397.929 141.72V113.56C399.689 113.707 405.776 113.78 416.189 113.78C434.229 113.78 443.249 108.573 443.249 98.16C443.249 92.5867 440.682 88.3333 435.549 85.4C430.562 82.32 424.036 80.78 415.969 80.78C401.742 80.78 389.349 85.84 378.789 95.96L363.169 76.38C376.956 60.8333 395.656 53.06 419.269 53.06C436.429 53.06 449.922 56.6533 459.749 63.84C469.722 71.0267 474.709 80.7067 474.709 92.88C474.709 101.68 471.556 109.087 465.249 115.1C458.942 120.967 451.389 124.707 442.589 126.32C451.242 127.2 459.089 130.793 466.129 137.1C473.316 143.26 476.909 151.4 476.909 161.52C476.909 174.28 471.629 184.693 461.069 192.76C450.509 200.68 436.502 204.64 419.049 204.64ZM592.83 202H561.59V171.64H491.41V147L549.71 55.26H592.83V144.14H611.75V171.64H592.83V202ZM561.59 144.14V82.98L521.99 144.14H561.59ZM684.5 204.64C660.3 204.64 641.453 197.307 627.96 182.64L645.34 160.86C655.606 171.567 668.586 176.92 684.28 176.92C692.64 176.92 699.24 174.867 704.08 170.76C709.066 166.507 711.56 161.3 711.56 155.14C711.56 148.54 709.213 143.26 704.52 139.3C699.826 135.34 693.373 133.36 685.16 133.36C672.986 133.36 662.72 137.32 654.36 145.24L632.58 139.52V55.26H733.34V82.76H663.82V118.62C672.033 110.407 682.813 106.3 696.16 106.3C709.213 106.3 720.286 110.627 729.38 119.28C738.62 127.933 743.24 139.447 743.24 153.82C743.24 169.367 737.886 181.76 727.18 191C716.473 200.093 702.246 204.64 684.5 204.64ZM821.867 204.64C800.747 204.64 784.907 197.6 774.347 183.52C763.787 169.44 758.507 151.253 758.507 128.96C758.507 106.227 764.594 87.8933 776.767 73.96C788.941 60.0267 805.661 53.06 826.927 53.06C843.941 53.06 858.387 58.12 870.267 68.24L856.187 92.22C848.121 84.5933 838.367 80.78 826.927 80.78C816.221 80.78 807.421 84.8133 800.527 92.88C793.634 100.8 790.187 110.627 790.187 122.36C790.187 123.68 790.261 124.707 790.407 125.44C794.074 120.16 799.354 115.687 806.247 112.02C813.141 108.353 820.401 106.52 828.027 106.52C841.961 106.52 853.767 110.773 863.447 119.28C873.127 127.64 877.967 139.3 877.967 154.26C877.967 168.78 872.761 180.807 862.347 190.34C851.934 199.873 838.441 204.64 821.867 204.64ZM820.107 176.92C828.027 176.92 834.334 174.72 839.027 170.32C843.867 165.92 846.287 160.933 846.287 155.36C846.287 148.173 843.647 142.747 838.367 139.08C833.087 135.267 826.634 133.36 819.007 133.36C807.274 133.36 797.741 137.98 790.407 147.22C791.141 155.433 793.927 162.473 798.767 168.34C803.607 174.06 810.721 176.92 820.107 176.92ZM945.815 202H911.495L964.075 82.76H890.155V55.26H1000.38V77.04L945.815 202ZM1071.42 204.64C1054.84 204.64 1040.84 201.12 1029.4 194.08C1018.1 187.04 1012.46 176.993 1012.46 163.94C1012.46 155.433 1015.39 147.88 1021.26 141.28C1027.12 134.533 1034.68 129.547 1043.92 126.32C1024.56 119.573 1014.88 108.06 1014.88 91.78C1014.88 79.02 1020.45 69.4133 1031.6 62.96C1042.89 56.36 1056.16 53.06 1071.42 53.06C1081.1 53.06 1090.04 54.3067 1098.26 56.8C1106.47 59.2933 1113.44 63.62 1119.16 69.78C1125.02 75.7933 1127.96 83.1267 1127.96 91.78C1127.96 107.913 1118.2 119.427 1098.7 126.32C1107.94 129.547 1115.49 134.533 1121.36 141.28C1127.37 147.88 1130.38 155.433 1130.38 163.94C1130.38 176.847 1124.66 186.893 1113.22 194.08C1101.78 201.12 1087.84 204.64 1071.42 204.64ZM1071.42 114C1077.43 113.12 1083 111.213 1088.14 108.28C1093.42 105.347 1096.06 101.46 1096.06 96.62C1096.06 91.4867 1093.78 87.4533 1089.24 84.52C1084.69 81.44 1078.75 79.9 1071.42 79.9C1064.08 79.9 1058.07 81.44 1053.38 84.52C1048.83 87.4533 1046.56 91.4867 1046.56 96.62C1046.56 101.46 1049.2 105.347 1054.48 108.28C1059.76 111.213 1065.4 113.12 1071.42 114ZM1071.42 177.8C1079.04 177.8 1085.5 176.187 1090.78 172.96C1096.06 169.587 1098.7 165.26 1098.7 159.98C1098.7 154.553 1095.69 150.153 1089.68 146.78C1083.81 143.407 1077.72 141.28 1071.42 140.4C1065.11 141.28 1058.95 143.407 1052.94 146.78C1047.07 150.153 1044.14 154.553 1044.14 159.98C1044.14 165.26 1046.7 169.587 1051.84 172.96C1057.12 176.187 1063.64 177.8 1071.42 177.8ZM1196.04 204.42C1178.58 204.42 1164.21 199.36 1152.92 189.24L1166.78 165.26C1174.84 172.887 1184.6 176.7 1196.04 176.7C1207.48 176.7 1216.42 172.667 1222.88 164.6C1229.48 156.387 1232.78 146.633 1232.78 135.34V132.04C1228.96 137.32 1223.61 141.793 1216.72 145.46C1209.82 149.127 1202.56 150.96 1194.94 150.96C1181 150.96 1169.12 146.78 1159.3 138.42C1149.62 129.913 1144.78 118.18 1144.78 103.22C1144.78 88.7 1149.98 76.6733 1160.4 67.14C1170.96 57.6067 1184.52 52.84 1201.1 52.84C1215.32 52.84 1227.28 56.36 1236.96 63.4C1246.78 70.44 1253.75 79.5333 1257.86 90.68C1262.11 101.68 1264.24 114.367 1264.24 128.74C1264.24 151.327 1258.15 169.587 1245.98 183.52C1233.95 197.453 1217.3 204.42 1196.04 204.42ZM1203.74 124.12C1215.47 124.12 1225.08 119.573 1232.56 110.48C1231.82 102.267 1229.04 95.2267 1224.2 89.36C1219.36 83.4933 1212.17 80.56 1202.64 80.56C1194.72 80.56 1188.41 82.76 1183.72 87.16C1179.02 91.56 1176.68 96.5467 1176.68 102.12C1176.68 109.307 1179.32 114.807 1184.6 118.62C1189.88 122.287 1196.26 124.12 1203.74 124.12Z" fill="black"/>
<path d="M105.4 360.2C96.8667 367 86.5333 370.4 74.4 370.4C62.2667 370.4 51.8667 367 43.2 360.2C34.6667 353.267 28.5333 344.733 24.8 334.6C21.0667 324.467 19.2 313.4 19.2 301.4C19.2 289.4 21.0667 278.333 24.8 268.2C28.5333 258.067 34.6667 249.6 43.2 242.8C51.8667 236 62.2667 232.6 74.4 232.6C86.5333 232.6 96.8667 236 105.4 242.8C113.933 249.6 120.067 258.067 123.8 268.2C127.667 278.333 129.6 289.4 129.6 301.4C129.6 313.4 127.667 324.467 123.8 334.6C120.067 344.733 113.933 353.267 105.4 360.2ZM54.4 333.2C58.6667 341.2 65.3333 345.2 74.4 345.2C83.4667 345.2 90.0667 341.2 94.2 333.2C98.4667 325.2 100.6 314.6 100.6 301.4C100.6 288.2 98.4667 277.667 94.2 269.8C90.0667 261.8 83.4667 257.8 74.4 257.8C65.3333 257.8 58.6667 261.8 54.4 269.8C50.1333 277.667 48 288.2 48 301.4C48 314.6 50.1333 325.2 54.4 333.2ZM226.809 368H198.409V271.2L176.209 293.8L160.009 276.8L202.009 234.6H226.809V368ZM375.019 368H274.619V345.8C303.152 324.6 322.019 309.533 331.219 300.6C340.552 291.533 345.219 283.067 345.219 275.2C345.219 269.733 343.085 265.467 338.819 262.4C334.552 259.333 329.485 257.8 323.619 257.8C309.619 257.8 297.685 262.933 287.819 273.2L271.619 254.4C277.885 247.2 285.552 241.8 294.619 238.2C303.819 234.467 313.285 232.6 323.019 232.6C337.685 232.6 349.819 236.467 359.419 244.2C369.152 251.933 374.019 262.267 374.019 275.2C374.019 286.133 369.685 296.867 361.019 307.4C352.485 317.8 339.019 329.667 320.619 343H375.019V368ZM447.428 370.4C435.695 370.4 425.295 368.467 416.228 364.6C407.161 360.6 400.028 355.4 394.828 349L409.628 330C414.161 334.667 419.761 338.4 426.428 341.2C433.095 343.867 439.761 345.2 446.428 345.2C454.428 345.2 460.628 343.667 465.028 340.6C469.428 337.4 471.628 333.267 471.628 328.2C471.628 322.867 469.495 319 465.228 316.6C460.961 314.067 454.161 312.8 444.828 312.8C436.428 312.8 430.895 312.933 428.228 313.2V287.6C429.828 287.733 435.361 287.8 444.828 287.8C461.228 287.8 469.428 283.067 469.428 273.6C469.428 268.533 467.095 264.667 462.428 262C457.895 259.2 451.961 257.8 444.628 257.8C431.695 257.8 420.428 262.4 410.828 271.6L396.628 253.8C409.161 239.667 426.161 232.6 447.628 232.6C463.228 232.6 475.495 235.867 484.428 242.4C493.495 248.933 498.028 257.733 498.028 268.8C498.028 276.8 495.161 283.533 489.428 289C483.695 294.333 476.828 297.733 468.828 299.2C476.695 300 483.828 303.267 490.228 309C496.761 314.6 500.028 322 500.028 331.2C500.028 342.8 495.228 352.267 485.628 359.6C476.028 366.8 463.295 370.4 447.428 370.4ZM609.638 368H581.238V340.4H517.438V318L570.438 234.6H609.638V315.4H626.838V340.4H609.638V368ZM581.238 315.4V259.8L545.238 315.4H581.238ZM697.247 370.4C675.247 370.4 658.114 363.733 645.847 350.4L661.647 330.6C670.98 340.333 682.78 345.2 697.047 345.2C704.647 345.2 710.647 343.333 715.047 339.6C719.58 335.733 721.847 331 721.847 325.4C721.847 319.4 719.714 314.6 715.447 311C711.18 307.4 705.314 305.6 697.847 305.6C686.78 305.6 677.447 309.2 669.847 316.4L650.047 311.2V234.6H741.647V259.6H678.447V292.2C685.914 284.733 695.714 281 707.847 281C719.714 281 729.78 284.933 738.047 292.8C746.447 300.667 750.647 311.133 750.647 324.2C750.647 338.333 745.78 349.6 736.047 358C726.314 366.267 713.38 370.4 697.247 370.4ZM826.056 370.4C806.856 370.4 792.456 364 782.856 351.2C773.256 338.4 768.456 321.867 768.456 301.6C768.456 280.933 773.99 264.267 785.056 251.6C796.123 238.933 811.323 232.6 830.656 232.6C846.123 232.6 859.256 237.2 870.056 246.4L857.256 268.2C849.923 261.267 841.056 257.8 830.656 257.8C820.923 257.8 812.923 261.467 806.656 268.8C800.39 276 797.256 284.933 797.256 295.6C797.256 296.8 797.323 297.733 797.456 298.4C800.79 293.6 805.59 289.533 811.856 286.2C818.123 282.867 824.723 281.2 831.656 281.2C844.323 281.2 855.056 285.067 863.856 292.8C872.656 300.4 877.056 311 877.056 324.6C877.056 337.8 872.323 348.733 862.856 357.4C853.39 366.067 841.123 370.4 826.056 370.4ZM824.456 345.2C831.656 345.2 837.39 343.2 841.656 339.2C846.056 335.2 848.256 330.667 848.256 325.6C848.256 319.067 845.856 314.133 841.056 310.8C836.256 307.333 830.39 305.6 823.456 305.6C812.79 305.6 804.123 309.8 797.456 318.2C798.123 325.667 800.656 332.067 805.056 337.4C809.456 342.6 815.923 345.2 824.456 345.2ZM947.266 368H916.066L963.866 259.6H896.666V234.6H996.866V254.4L947.266 368ZM1071.08 370.4C1056.01 370.4 1043.28 367.2 1032.88 360.8C1022.61 354.4 1017.48 345.267 1017.48 333.4C1017.48 325.667 1020.14 318.8 1025.48 312.8C1030.81 306.667 1037.68 302.133 1046.08 299.2C1028.48 293.067 1019.68 282.6 1019.68 267.8C1019.68 256.2 1024.74 247.467 1034.88 241.6C1045.14 235.6 1057.21 232.6 1071.08 232.6C1079.88 232.6 1088.01 233.733 1095.48 236C1102.94 238.267 1109.28 242.2 1114.47 247.8C1119.81 253.267 1122.48 259.933 1122.48 267.8C1122.48 282.467 1113.61 292.933 1095.88 299.2C1104.28 302.133 1111.14 306.667 1116.48 312.8C1121.94 318.8 1124.68 325.667 1124.68 333.4C1124.68 345.133 1119.48 354.267 1109.08 360.8C1098.68 367.2 1086.01 370.4 1071.08 370.4ZM1071.08 288C1076.54 287.2 1081.61 285.467 1086.28 282.8C1091.08 280.133 1093.48 276.6 1093.48 272.2C1093.48 267.533 1091.41 263.867 1087.28 261.2C1083.14 258.4 1077.74 257 1071.08 257C1064.41 257 1058.94 258.4 1054.68 261.2C1050.54 263.867 1048.48 267.533 1048.48 272.2C1048.48 276.6 1050.88 280.133 1055.68 282.8C1060.48 285.467 1065.61 287.2 1071.08 288ZM1071.08 346C1078.01 346 1083.88 344.533 1088.68 341.6C1093.48 338.533 1095.88 334.6 1095.88 329.8C1095.88 324.867 1093.14 320.867 1087.68 317.8C1082.34 314.733 1076.81 312.8 1071.08 312C1065.34 312.8 1059.74 314.733 1054.28 317.8C1048.94 320.867 1046.28 324.867 1046.28 329.8C1046.28 334.6 1048.61 338.533 1053.28 341.6C1058.08 344.533 1064.01 346 1071.08 346ZM1187.48 370.2C1171.62 370.2 1158.55 365.6 1148.28 356.4L1160.88 334.6C1168.22 341.533 1177.08 345 1187.48 345C1197.88 345 1206.02 341.333 1211.88 334C1217.88 326.533 1220.88 317.667 1220.88 307.4V304.4C1217.42 309.2 1212.55 313.267 1206.28 316.6C1200.02 319.933 1193.42 321.6 1186.48 321.6C1173.82 321.6 1163.02 317.8 1154.08 310.2C1145.28 302.467 1140.88 291.8 1140.88 278.2C1140.88 265 1145.62 254.067 1155.08 245.4C1164.68 236.733 1177.02 232.4 1192.08 232.4C1205.02 232.4 1215.88 235.6 1224.68 242C1233.62 248.4 1239.95 256.667 1243.68 266.8C1247.55 276.8 1249.48 288.333 1249.48 301.4C1249.48 321.933 1243.95 338.533 1232.88 351.2C1221.95 363.867 1206.82 370.2 1187.48 370.2ZM1194.48 297.2C1205.15 297.2 1213.88 293.067 1220.68 284.8C1220.02 277.333 1217.48 270.933 1213.08 265.6C1208.68 260.267 1202.15 257.6 1193.48 257.6C1186.28 257.6 1180.55 259.6 1176.28 263.6C1172.02 267.6 1169.88 272.133 1169.88 277.2C1169.88 283.733 1172.28 288.733 1177.08 292.2C1181.88 295.533 1187.68 297.2 1194.48 297.2Z" fill="black"/>
<path d="M129.92 479.5C129.92 497.247 124.713 512.207 114.3 524.38C103.887 536.553 88.8533 542.64 69.2 542.64C49.5467 542.64 34.5133 536.553 24.1 524.38C13.6867 512.207 8.48 497.247 8.48 479.5C8.48 461.607 13.6867 446.647 24.1 434.62C34.5133 422.447 49.5467 416.36 69.2 416.36C88.8533 416.36 103.887 422.447 114.3 434.62C124.713 446.647 129.92 461.607 129.92 479.5ZM90.54 505.02C95.5267 498.273 98.02 489.767 98.02 479.5C98.02 469.233 95.5267 460.8 90.54 454.2C85.5533 447.453 78.44 444.08 69.2 444.08C59.96 444.08 52.7733 447.453 47.64 454.2C42.6533 460.8 40.16 469.233 40.16 479.5C40.16 489.767 42.6533 498.273 47.64 505.02C52.7733 511.62 59.96 514.92 69.2 514.92C78.44 514.92 85.5533 511.62 90.54 505.02ZM213.326 540H182.086V459.26L157.666 484.12L139.846 465.42L186.046 419H213.326V540ZM342.055 540H238.875V515.36C264.835 506.56 283.682 497.54 295.415 488.3C307.148 478.913 313.015 470.113 313.015 461.9C313.015 456.62 310.888 452.367 306.635 449.14C302.382 445.767 297.102 444.08 290.795 444.08C275.395 444.08 262.415 449.727 251.855 461.02L234.035 440.34C240.928 432.42 249.435 426.48 259.555 422.52C269.822 418.413 280.382 416.36 291.235 416.36C307.515 416.36 320.495 420.027 330.175 427.36C339.855 434.693 344.695 444.447 344.695 456.62C344.695 467.62 339.855 478.327 330.175 488.74C320.495 499.007 308.835 506.927 295.195 512.5H342.055V540ZM416.422 568.16C403.515 568.16 392.075 565.96 382.102 561.56C372.129 557.307 364.282 551.66 358.562 544.62L374.842 523.72C379.829 528.853 385.989 532.96 393.322 536.04C400.655 538.973 407.989 540.44 415.322 540.44C424.122 540.44 430.942 538.753 435.782 535.38C440.622 531.86 443.042 527.313 443.042 521.74C443.042 515.873 440.695 511.62 436.002 508.98C431.309 506.193 423.829 504.8 413.562 504.8C404.322 504.8 398.235 504.947 395.302 505.24V477.08C397.062 477.227 403.149 477.3 413.562 477.3C431.602 477.3 440.622 472.093 440.622 461.68C440.622 456.107 438.055 451.853 432.922 448.92C427.935 445.84 421.409 444.3 413.342 444.3C399.115 444.3 386.722 449.36 376.162 459.48L360.542 439.9C374.329 424.353 393.029 416.58 416.642 416.58C433.802 416.58 447.295 420.173 457.122 427.36C467.095 434.547 472.082 444.227 472.082 456.4C472.082 465.2 468.929 472.607 462.622 478.62C456.315 484.487 448.762 488.227 439.962 489.84C448.615 490.72 456.462 494.313 463.502 500.62C470.689 506.78 474.282 514.92 474.282 525.04C474.282 537.8 469.002 548.14 458.442 556.06C447.882 564.127 433.875 568.16 416.422 568.16ZM609.164 534.06H590.244V565.74H559.004V534.06H488.824V509.2L547.124 419H590.244V506.56H609.164V534.06ZM559.004 506.56V446.72L519.404 506.56H559.004ZM681.914 568.38C657.714 568.38 638.867 561.047 625.374 546.38L642.754 524.6C653.02 535.307 666 540.66 681.694 540.66C690.054 540.66 696.654 538.607 701.494 534.5C706.48 530.247 708.974 525.04 708.974 518.88C708.974 512.28 706.627 507 701.934 503.04C697.24 499.08 690.787 497.1 682.574 497.1C670.4 497.1 660.134 501.06 651.774 508.98L629.994 503.26V419H730.754V446.5H661.234V482.36C669.447 474.147 680.227 470.04 693.574 470.04C706.627 470.04 717.7 474.367 726.794 483.02C736.034 491.673 740.654 503.187 740.654 517.56C740.654 533.107 735.3 545.427 724.594 554.52C713.887 563.76 699.66 568.38 681.914 568.38ZM819.281 542.64C798.161 542.64 782.321 535.6 771.761 521.52C761.201 507.44 755.921 489.253 755.921 466.96C755.921 444.227 762.008 425.893 774.181 411.96C786.355 398.027 803.075 391.06 824.341 391.06C841.355 391.06 855.801 396.12 867.681 406.24L853.601 430.22C845.535 422.593 835.781 418.78 824.341 418.78C813.635 418.78 804.835 422.813 797.941 430.88C791.048 438.8 787.601 448.627 787.601 460.36C787.601 461.68 787.675 462.707 787.821 463.44C791.488 458.16 796.768 453.687 803.661 450.02C810.555 446.353 817.815 444.52 825.441 444.52C839.375 444.52 851.181 448.773 860.861 457.28C870.541 465.64 875.381 477.3 875.381 492.26C875.381 506.78 870.175 518.807 859.761 528.34C849.348 537.873 835.855 542.64 819.281 542.64ZM817.521 514.92C825.441 514.92 831.748 512.72 836.441 508.32C841.281 503.92 843.701 498.933 843.701 493.36C843.701 486.173 841.061 480.747 835.781 477.08C830.501 473.267 824.048 471.36 816.421 471.36C804.688 471.36 795.155 475.98 787.821 485.22C788.555 493.433 791.341 500.473 796.181 506.34C801.021 512.06 808.135 514.92 817.521 514.92ZM943.229 565.74H908.909L961.489 446.5H887.569V419H997.789V440.78L943.229 565.74ZM1068.83 542.64C1052.26 542.64 1038.25 539.12 1026.81 532.08C1015.52 525.04 1009.87 514.993 1009.87 501.94C1009.87 493.433 1012.81 485.88 1018.67 479.28C1024.54 472.533 1032.09 467.547 1041.33 464.32C1021.97 457.573 1012.29 446.06 1012.29 429.78C1012.29 417.02 1017.87 407.413 1029.01 400.96C1040.31 394.36 1053.58 391.06 1068.83 391.06C1078.51 391.06 1087.46 392.307 1095.67 394.8C1103.89 397.293 1110.85 401.62 1116.57 407.78C1122.44 413.793 1125.37 421.127 1125.37 429.78C1125.37 445.913 1115.62 457.427 1096.11 464.32C1105.35 467.547 1112.91 472.533 1118.77 479.28C1124.79 485.88 1127.79 493.433 1127.79 501.94C1127.79 514.847 1122.07 524.893 1110.63 532.08C1099.19 539.12 1085.26 542.64 1068.83 542.64ZM1068.83 452C1074.85 451.12 1080.42 449.213 1085.55 446.28C1090.83 443.347 1093.47 439.46 1093.47 434.62C1093.47 429.487 1091.2 425.453 1086.65 422.52C1082.11 419.44 1076.17 417.9 1068.83 417.9C1061.5 417.9 1055.49 419.44 1050.79 422.52C1046.25 425.453 1043.97 429.487 1043.97 434.62C1043.97 439.46 1046.61 443.347 1051.89 446.28C1057.17 449.213 1062.82 451.12 1068.83 452ZM1068.83 515.8C1076.46 515.8 1082.91 514.187 1088.19 510.96C1093.47 507.587 1096.11 503.26 1096.11 497.98C1096.11 492.553 1093.11 488.153 1087.09 484.78C1081.23 481.407 1075.14 479.28 1068.83 478.4C1062.53 479.28 1056.37 481.407 1050.35 484.78C1044.49 488.153 1041.55 492.553 1041.55 497.98C1041.55 503.26 1044.12 507.587 1049.25 510.96C1054.53 514.187 1061.06 515.8 1068.83 515.8ZM1193.45 567.94C1176 567.94 1161.62 562.88 1150.33 552.76L1164.19 528.78C1172.26 536.407 1182.01 540.22 1193.45 540.22C1204.89 540.22 1213.84 536.187 1220.29 528.12C1226.89 519.907 1230.19 510.153 1230.19 498.86V495.56C1226.38 500.84 1221.02 505.313 1214.13 508.98C1207.24 512.647 1199.98 514.48 1192.35 514.48C1178.42 514.48 1166.54 510.3 1156.71 501.94C1147.03 493.433 1142.19 481.7 1142.19 466.74C1142.19 452.22 1147.4 440.193 1157.81 430.66C1168.37 421.127 1181.94 416.36 1198.51 416.36C1212.74 416.36 1224.69 419.88 1234.37 426.92C1244.2 433.96 1251.16 443.053 1255.27 454.2C1259.52 465.2 1261.65 477.887 1261.65 492.26C1261.65 514.847 1255.56 533.107 1243.39 547.04C1231.36 560.973 1214.72 567.94 1193.45 567.94ZM1201.15 487.64C1212.88 487.64 1222.49 483.093 1229.97 474C1229.24 465.787 1226.45 458.747 1221.61 452.88C1216.77 447.013 1209.58 444.08 1200.05 444.08C1192.13 444.08 1185.82 446.28 1181.13 450.68C1176.44 455.08 1174.09 460.067 1174.09 465.64C1174.09 472.827 1176.73 478.327 1182.01 482.14C1187.29 485.807 1193.67 487.64 1201.15 487.64Z" fill="black"/>
<path d="M129.6 661C129.6 677.133 124.867 690.733 115.4 701.8C105.933 712.867 92.2667 718.4 74.4 718.4C56.5333 718.4 42.8667 712.867 33.4 701.8C23.9333 690.733 19.2 677.133 19.2 661C19.2 644.733 23.9333 631.133 33.4 620.2C42.8667 609.133 56.5333 603.6 74.4 603.6C92.2667 603.6 105.933 609.133 115.4 620.2C124.867 631.133 129.6 644.733 129.6 661ZM93.8 684.2C98.3333 678.067 100.6 670.333 100.6 661C100.6 651.667 98.3333 644 93.8 638C89.2667 631.867 82.8 628.8 74.4 628.8C66 628.8 59.4667 631.867 54.8 638C50.2667 644 48 651.667 48 661C48 670.333 50.2667 678.067 54.8 684.2C59.4667 690.2 66 693.2 74.4 693.2C82.8 693.2 89.2667 690.2 93.8 684.2ZM226.809 716H198.409V642.6L176.209 665.2L160.009 648.2L202.009 606H226.809V716ZM369.419 716H275.619V693.6C299.219 685.6 316.352 677.4 327.019 669C337.685 660.467 343.019 652.467 343.019 645C343.019 640.2 341.085 636.333 337.219 633.4C333.352 630.333 328.552 628.8 322.819 628.8C308.819 628.8 297.019 633.933 287.419 644.2L271.219 625.4C277.485 618.2 285.219 612.8 294.419 609.2C303.752 605.467 313.352 603.6 323.219 603.6C338.019 603.6 349.819 606.933 358.619 613.6C367.419 620.267 371.819 629.133 371.819 640.2C371.819 650.2 367.419 659.933 358.619 669.4C349.819 678.733 339.219 685.933 326.819 691H369.419V716ZM447.428 741.4C435.695 741.4 425.295 739.4 416.228 735.4C407.161 731.533 400.028 726.4 394.828 720L409.628 701C414.161 705.667 419.761 709.4 426.428 712.2C433.095 714.867 439.761 716.2 446.428 716.2C454.428 716.2 460.628 714.667 465.028 711.6C469.428 708.4 471.628 704.267 471.628 699.2C471.628 693.867 469.495 690 465.228 687.6C460.961 685.067 454.161 683.8 444.828 683.8C436.428 683.8 430.895 683.933 428.228 684.2V658.6C429.828 658.733 435.361 658.8 444.828 658.8C461.228 658.8 469.428 654.067 469.428 644.6C469.428 639.533 467.095 635.667 462.428 633C457.895 630.2 451.961 628.8 444.628 628.8C431.695 628.8 420.428 633.4 410.828 642.6L396.628 624.8C409.161 610.667 426.161 603.6 447.628 603.6C463.228 603.6 475.495 606.867 484.428 613.4C493.495 619.933 498.028 628.733 498.028 639.8C498.028 647.8 495.161 654.533 489.428 660C483.695 665.333 476.828 668.733 468.828 670.2C476.695 671 483.828 674.267 490.228 680C496.761 685.6 500.028 693 500.028 702.2C500.028 713.8 495.228 723.2 485.628 730.4C476.028 737.733 463.295 741.4 447.428 741.4ZM626.838 710.6H609.638V739.4H581.238V710.6H517.438V688L570.438 606H609.638V685.6H626.838V710.6ZM581.238 685.6V631.2L545.238 685.6H581.238ZM697.247 741.8C675.247 741.8 658.114 735.133 645.847 721.8L661.647 702C670.98 711.733 682.78 716.6 697.047 716.6C704.647 716.6 710.647 714.733 715.047 711C719.58 707.133 721.847 702.4 721.847 696.8C721.847 690.8 719.714 686 715.447 682.4C711.18 678.8 705.314 677 697.847 677C686.78 677 677.447 680.6 669.847 687.8L650.047 682.6V606H741.647V631H678.447V663.6C685.914 656.133 695.714 652.4 707.847 652.4C719.714 652.4 729.78 656.333 738.047 664.2C746.447 672.067 750.647 682.533 750.647 695.6C750.647 709.733 745.78 720.933 736.047 729.2C726.314 737.6 713.38 741.8 697.247 741.8ZM826.056 718.4C806.856 718.4 792.456 712 782.856 699.2C773.256 686.4 768.456 669.867 768.456 649.6C768.456 628.933 773.99 612.267 785.056 599.6C796.123 586.933 811.323 580.6 830.656 580.6C846.123 580.6 859.256 585.2 870.056 594.4L857.256 616.2C849.923 609.267 841.056 605.8 830.656 605.8C820.923 605.8 812.923 609.467 806.656 616.8C800.39 624 797.256 632.933 797.256 643.6C797.256 644.8 797.323 645.733 797.456 646.4C800.79 641.6 805.59 637.533 811.856 634.2C818.123 630.867 824.723 629.2 831.656 629.2C844.323 629.2 855.056 633.067 863.856 640.8C872.656 648.4 877.056 659 877.056 672.6C877.056 685.8 872.323 696.733 862.856 705.4C853.39 714.067 841.123 718.4 826.056 718.4ZM824.456 693.2C831.656 693.2 837.39 691.2 841.656 687.2C846.056 683.2 848.256 678.667 848.256 673.6C848.256 667.067 845.856 662.133 841.056 658.8C836.256 655.333 830.39 653.6 823.456 653.6C812.79 653.6 804.123 657.8 797.456 666.2C798.123 673.667 800.656 680.067 805.056 685.4C809.456 690.6 815.923 693.2 824.456 693.2ZM947.266 739.4H916.066L963.866 631H896.666V606H996.866V625.8L947.266 739.4ZM1071.08 718.4C1056.01 718.4 1043.28 715.2 1032.88 708.8C1022.61 702.4 1017.48 693.267 1017.48 681.4C1017.48 673.667 1020.14 666.8 1025.48 660.8C1030.81 654.667 1037.68 650.133 1046.08 647.2C1028.48 641.067 1019.68 630.6 1019.68 615.8C1019.68 604.2 1024.74 595.467 1034.88 589.6C1045.14 583.6 1057.21 580.6 1071.08 580.6C1079.88 580.6 1088.01 581.733 1095.48 584C1102.94 586.267 1109.28 590.2 1114.47 595.8C1119.81 601.267 1122.48 607.933 1122.48 615.8C1122.48 630.467 1113.61 640.933 1095.88 647.2C1104.28 650.133 1111.14 654.667 1116.48 660.8C1121.94 666.8 1124.68 673.667 1124.68 681.4C1124.68 693.133 1119.48 702.267 1109.08 708.8C1098.68 715.2 1086.01 718.4 1071.08 718.4ZM1071.08 636C1076.54 635.2 1081.61 633.467 1086.28 630.8C1091.08 628.133 1093.48 624.6 1093.48 620.2C1093.48 615.533 1091.41 611.867 1087.28 609.2C1083.14 606.4 1077.74 605 1071.08 605C1064.41 605 1058.94 606.4 1054.68 609.2C1050.54 611.867 1048.48 615.533 1048.48 620.2C1048.48 624.6 1050.88 628.133 1055.68 630.8C1060.48 633.467 1065.61 635.2 1071.08 636ZM1071.08 694C1078.01 694 1083.88 692.533 1088.68 689.6C1093.48 686.533 1095.88 682.6 1095.88 677.8C1095.88 672.867 1093.14 668.867 1087.68 665.8C1082.34 662.733 1076.81 660.8 1071.08 660C1065.34 660.8 1059.74 662.733 1054.28 665.8C1048.94 668.867 1046.28 672.867 1046.28 677.8C1046.28 682.6 1048.61 686.533 1053.28 689.6C1058.08 692.533 1064.01 694 1071.08 694ZM1187.48 741.4C1171.62 741.4 1158.55 736.8 1148.28 727.6L1160.88 705.8C1168.22 712.733 1177.08 716.2 1187.48 716.2C1197.88 716.2 1206.02 712.533 1211.88 705.2C1217.88 697.733 1220.88 688.867 1220.88 678.6V675.6C1217.42 680.4 1212.55 684.467 1206.28 687.8C1200.02 691.133 1193.42 692.8 1186.48 692.8C1173.82 692.8 1163.02 689 1154.08 681.4C1145.28 673.667 1140.88 663 1140.88 649.4C1140.88 636.2 1145.62 625.267 1155.08 616.6C1164.68 607.933 1177.02 603.6 1192.08 603.6C1205.02 603.6 1215.88 606.8 1224.68 613.2C1233.62 619.6 1239.95 627.867 1243.68 638C1247.55 648 1249.48 659.533 1249.48 672.6C1249.48 693.133 1243.95 709.733 1232.88 722.4C1221.95 735.067 1206.82 741.4 1187.48 741.4ZM1194.48 668.4C1205.15 668.4 1213.88 664.267 1220.68 656C1220.02 648.533 1217.48 642.133 1213.08 636.8C1208.68 631.467 1202.15 628.8 1193.48 628.8C1186.28 628.8 1180.55 630.8 1176.28 634.8C1172.02 638.8 1169.88 643.333 1169.88 648.4C1169.88 654.933 1172.28 659.933 1177.08 663.4C1181.88 666.733 1187.68 668.4 1194.48 668.4Z" fill="black"/>
</svg>
