<svg width="1281" height="720" viewBox="0 0 1281 720" fill="none" xmlns="http://www.w3.org/2000/svg">
<g clip-path="url(#clip0)">
<rect width="1281" height="720" fill="white"/>
<rect width="1281" height="720" fill="black"/>
<path d="M547.8 215V190H493.4C528 164.8 546.8 145 546.8 122.2C546.8 95.6 524.2 79.6 495.8 79.6C477.2 79.6 457.4 86.4 444.4 101.4L460.6 120.2C469.6 110.8 481.2 104.8 496.4 104.8C507.4 104.8 518 110.6 518 122.2C518 138.6 502 152.4 447.4 192.8V215H547.8Z" fill="white"/>
<path d="M311.4 407.8C375.8 407.8 418.2 372.2 418.2 315.4C418.2 261.4 377.8 229 332.6 229C308.2 229 286.6 238.6 273.8 251.4V186.2H400.2V136.2H217V289.4L256.6 299.8C272.6 284.6 290.6 278.2 312.6 278.2C343 278.2 360.6 294.2 360.6 317.8C360.6 339.4 342.6 357.4 311 357.4C283 357.4 258.2 347 240.2 328.2L208.6 367.8C231.4 392.6 265 407.8 311.4 407.8Z" fill="white"/>
<path d="M533.8 628.6C582.1 628.6 613.9 601.9 613.9 559.3C613.9 518.8 583.6 494.5 549.7 494.5C531.4 494.5 515.2 501.7 505.6 511.3V462.4H600.4V424.9H463V539.8L492.7 547.6C504.7 536.2 518.2 531.4 534.7 531.4C557.5 531.4 570.7 543.4 570.7 561.1C570.7 577.3 557.2 590.8 533.5 590.8C512.5 590.8 493.9 583 480.4 568.9L456.7 598.6C473.8 617.2 499 628.6 533.8 628.6Z" fill="white"/>
<path d="M254.9 588.6C296.9 588.6 335.3 570.3 335.3 533.1C335.3 508.8 316.1 490.2 292.1 481.8C314.3 474 332 459.6 332 434.7C332 397.2 291.8 381.9 254.9 381.9C217.7 381.9 177.8 397.2 177.8 434.7C177.8 459.6 195.2 474 217.4 481.8C193.4 490.2 174.5 508.8 174.5 533.1C174.5 570.6 212.9 588.6 254.9 588.6ZM254.9 465C242.6 463.2 221 456.3 221 441.3C221 426.9 235.1 418.5 254.9 418.5C274.4 418.5 288.5 426.9 288.5 441.3C288.5 456.3 267.2 463.2 254.9 465ZM254.9 552C233.9 552 217.7 542.4 217.7 527.7C217.7 510.9 242.3 502.8 254.9 501C267.2 502.8 292.1 510.9 292.1 527.7C292.1 542.4 275.3 552 254.9 552Z" fill="white"/>
<path d="M698.9 445.3C758 445.3 791.9 402.4 791.9 342.1C791.9 285.4 766.4 238.6 705.8 238.6C660.2 238.6 629 268.3 629 307.3C629 349.9 661.4 372.4 697.4 372.4C719.3 372.4 739.4 360.1 749 346.6C749 348.1 749 349.6 749 351.1C749 379.9 731.9 407.5 698.9 407.5C681.2 407.5 669.8 402.1 659 391.9L640.1 424.6C654.2 437.2 674.6 445.3 698.9 445.3ZM709.4 335.8C690.8 335.8 672.5 326.8 672.5 305.8C672.5 292 685.1 276.4 707.9 276.4C736.1 276.4 746.9 298 748.7 317.2C739.1 328.9 724.4 335.8 709.4 335.8Z" fill="white"/>
<path d="M631.6 481.4C659.6 481.4 685.2 469.2 685.2 444.4C685.2 428.2 672.4 415.8 656.4 410.2C671.2 405 683 395.4 683 378.8C683 353.8 656.2 343.6 631.6 343.6C606.8 343.6 580.2 353.8 580.2 378.8C580.2 395.4 591.8 405 606.6 410.2C590.6 415.8 578 428.2 578 444.4C578 469.4 603.6 481.4 631.6 481.4ZM631.6 399C623.4 397.8 609 393.2 609 383.2C609 373.6 618.4 368 631.6 368C644.6 368 654 373.6 654 383.2C654 393.2 639.8 397.8 631.6 399ZM631.6 457C617.6 457 606.8 450.6 606.8 440.8C606.8 429.6 623.2 424.2 631.6 423C639.8 424.2 656.4 429.6 656.4 440.8C656.4 450.6 645.2 457 631.6 457Z" fill="white"/>
<path d="M497 479V212.2H447.4L363.4 296.6L395.8 330.6L440.2 285.4V479H497Z" fill="white"/>
<path d="M1070.5 479V278.9H1033.3L970.3 342.2L994.6 367.7L1027.9 333.8V479H1070.5Z" fill="white"/>
<path d="M1132.8 302V277H1078.4C1113 251.8 1131.8 232 1131.8 209.2C1131.8 182.6 1109.2 166.6 1080.8 166.6C1062.2 166.6 1042.4 173.4 1029.4 188.4L1045.6 207.2C1054.6 197.8 1066.2 191.8 1081.4 191.8C1092.4 191.8 1103 197.6 1103 209.2C1103 225.6 1087 239.4 1032.4 279.8V302H1132.8Z" fill="white"/>
<path d="M166.2 465V437.4H183.4V412.4H166.2V331.6H127L74 415V437.4H137.8V465H166.2ZM137.8 412.4H101.8L137.8 356.8V412.4Z" fill="white"/>
<path d="M842.6 379.6C888.2 379.6 919.1 349.9 919.1 310.9C919.1 268.3 887 245.8 851 245.8C829.1 245.8 809 258.1 799.7 271.6C799.4 270.1 799.4 268.9 799.4 267.4C799.4 235.6 820.1 210.7 849.5 210.7C867.2 210.7 878.6 216.1 889.4 226.3L908.6 193.6C894.2 181.3 873.8 172.9 849.5 172.9C790.4 172.9 756.2 215.8 756.2 276.4C756.2 332.8 781.7 379.6 842.6 379.6ZM840.2 341.8C812.3 341.8 801.5 320.5 799.7 301.3C809.3 289.3 823.7 282.4 838.7 282.4C857.9 282.4 875.9 291.4 875.9 312.4C875.9 326.5 863.3 341.8 840.2 341.8Z" fill="white"/>
<path d="M1210.4 642L1260 528.4V508.6H1159.8V533.6H1227L1179.2 642H1210.4Z" fill="white"/>
<path d="M93.815 214H47.381V55.732L11.084 92.683L-15.403 64.888L53.267 -4.10902H93.815V214Z" fill="white"/>
<path d="M144.914 467V418.75H39.922C106.7 370.114 142.984 331.9 142.984 287.896C142.984 236.558 99.366 205.678 44.554 205.678C8.656 205.678 -29.558 218.802 -54.648 247.752L-23.382 284.036C-6.012 265.894 16.376 254.314 45.712 254.314C66.942 254.314 87.4 265.508 87.4 287.896C87.4 319.548 56.52 346.182 -48.858 424.154V467H144.914Z" fill="white"/>
<path d="M160.2 255.8C224.2 255.8 265.4 223.4 265.4 177.4C265.4 137.4 230.2 116.2 203 113.4C232.6 108.2 261.4 86.2 261.4 52.6C261.4 8.19998 223 -19.8 160.6 -19.8C113.8 -19.8 80.2 -1.80001 58.6 22.6L87 58.2C105.8 40.2 129 30.6 154.6 30.6C182.6 30.6 204.2 41 204.2 62.2C204.2 81.8 184.6 90.6 155 90.6C145 90.6 126.6 90.6 121.8 90.2V141.4C125.8 141 143.8 140.6 155 140.6C192.2 140.6 208.6 150.2 208.6 171.4C208.6 191.4 190.6 205.4 158.2 205.4C132.2 205.4 103 194.2 84.6 175L55 213C74.6 237 111 255.8 160.2 255.8Z" fill="white"/>
<path d="M651.9 698.6C699.9 698.6 730.8 674.3 730.8 639.8C730.8 609.8 704.4 593.9 684 591.8C706.2 587.9 727.8 571.4 727.8 546.2C727.8 512.9 699 491.9 652.2 491.9C617.1 491.9 591.9 505.4 575.7 523.7L597 550.4C611.1 536.9 628.5 529.7 647.7 529.7C668.7 529.7 684.9 537.5 684.9 553.4C684.9 568.1 670.2 574.7 648 574.7C640.5 574.7 626.7 574.7 623.1 574.4V612.8C626.1 612.5 639.6 612.2 648 612.2C675.9 612.2 688.2 619.4 688.2 635.3C688.2 650.3 674.7 660.8 650.4 660.8C630.9 660.8 609 652.4 595.2 638L573 666.5C587.7 684.5 615 698.6 651.9 698.6Z" fill="white"/>
<path d="M410.8 726.8C471.6 726.8 512.8 687.2 512.8 635.2C512.8 578.4 470 548.4 422 548.4C392.8 548.4 366 564.8 353.6 582.8C353.2 580.8 353.2 579.2 353.2 577.2C353.2 534.8 380.8 501.6 420 501.6C443.6 501.6 458.8 508.8 473.2 522.4L498.8 478.8C479.6 462.4 452.4 451.2 420 451.2C341.2 451.2 295.6 508.4 295.6 589.2C295.6 664.4 329.6 726.8 410.8 726.8ZM407.6 676.4C370.4 676.4 356 648 353.6 622.4C366.4 606.4 385.6 597.2 405.6 597.2C431.2 597.2 455.2 609.2 455.2 637.2C455.2 656 438.4 676.4 407.6 676.4Z" fill="white"/>
<path d="M9.6 666.2C49 666.2 71.6 637.6 71.6 597.4C71.6 559.6 54.6 528.4 14.2 528.4C-16.2 528.4 -37 548.2 -37 574.2C-37 602.6 -15.4 617.6 8.6 617.6C23.2 617.6 36.6 609.4 43 600.4C43 601.4 43 602.4 43 603.4C43 622.6 31.6 641 9.6 641C-2.2 641 -9.8 637.4 -17 630.6L-29.6 652.4C-20.2 660.8 -6.6 666.2 9.6 666.2ZM16.6 593.2C4.2 593.2 -8 587.2 -8 573.2C-8 564 0.400002 553.6 15.6 553.6C34.4 553.6 41.6 568 42.8 580.8C36.4 588.6 26.6 593.2 16.6 593.2Z" fill="white"/>
<path d="M167 724V457.2H117.4L33.4 541.6L65.8 575.6L110.2 530.4V724H167Z" fill="white"/>
<path d="M384.1 258L458.5 87.6V57.9H308.2V95.4H409L337.3 258H384.1Z" fill="white"/>
<path d="M592.5 322L716.5 38V-11.5H466V51H634L514.5 322H592.5Z" fill="white"/>
<path d="M997.1 672L1071.5 501.6V471.9H921.2V509.4H1022L950.3 672H997.1Z" fill="white"/>
<path d="M977.2 259.8C1033.2 259.8 1084.4 235.4 1084.4 185.8C1084.4 153.4 1058.8 128.6 1026.8 117.4C1056.4 107 1080 87.8 1080 54.6C1080 4.59998 1026.4 -15.8 977.2 -15.8C927.6 -15.8 874.4 4.59998 874.4 54.6C874.4 87.8 897.6 107 927.2 117.4C895.2 128.6 870 153.4 870 185.8C870 235.8 921.2 259.8 977.2 259.8ZM977.2 95C960.8 92.6 932 83.4 932 63.4C932 44.2 950.8 33 977.2 33C1003.2 33 1022 44.2 1022 63.4C1022 83.4 993.6 92.6 977.2 95ZM977.2 211C949.2 211 927.6 198.2 927.6 178.6C927.6 156.2 960.4 145.4 977.2 143C993.6 145.4 1026.8 156.2 1026.8 178.6C1026.8 198.2 1004.4 211 977.2 211Z" fill="white"/>
<path d="M1083.9 744.6C1131.9 744.6 1162.8 720.3 1162.8 685.8C1162.8 655.8 1136.4 639.9 1116 637.8C1138.2 633.9 1159.8 617.4 1159.8 592.2C1159.8 558.9 1131 537.9 1084.2 537.9C1049.1 537.9 1023.9 551.4 1007.7 569.7L1029 596.4C1043.1 582.9 1060.5 575.7 1079.7 575.7C1100.7 575.7 1116.9 583.5 1116.9 599.4C1116.9 614.1 1102.2 620.7 1080 620.7C1072.5 620.7 1058.7 620.7 1055.1 620.4V658.8C1058.1 658.5 1071.6 658.2 1080 658.2C1107.9 658.2 1120.2 665.4 1120.2 681.3C1120.2 696.3 1106.7 706.8 1082.4 706.8C1062.9 706.8 1041 698.4 1027.2 684L1005 712.5C1019.7 730.5 1047 744.6 1083.9 744.6Z" fill="white"/>
<path d="M1293 515V446H1336V383.5H1293V181.5H1195L1062.5 390V446H1222V515H1293ZM1222 383.5H1132L1222 244.5V383.5Z" fill="white"/>
<path d="M947 741V672H990V609.5H947V407.5H849L716.5 616V672H876V741H947ZM876 609.5H786L876 470.5V609.5Z" fill="white"/>
<path d="M783.8 199.6C832.1 199.6 863.9 172.9 863.9 130.3C863.9 89.8 833.6 65.5 799.7 65.5C781.4 65.5 765.2 72.7 755.6 82.3V33.4H850.4V-4.10002H713V110.8L742.7 118.6C754.7 107.2 768.2 102.4 784.7 102.4C807.5 102.4 820.7 114.4 820.7 132.1C820.7 148.3 807.2 161.8 783.5 161.8C762.5 161.8 743.9 154 730.4 139.9L706.7 169.6C723.8 188.2 749 199.6 783.8 199.6Z" fill="white"/>
<path d="M1156.6 157.2C1196 157.2 1218.6 128.6 1218.6 88.4C1218.6 50.6 1201.6 19.4 1161.2 19.4C1130.8 19.4 1110 39.2 1110 65.2C1110 93.6 1131.6 108.6 1155.6 108.6C1170.2 108.6 1183.6 100.4 1190 91.4C1190 92.4 1190 93.4 1190 94.4C1190 113.6 1178.6 132 1156.6 132C1144.8 132 1137.2 128.4 1130 121.6L1117.4 143.4C1126.8 151.8 1140.4 157.2 1156.6 157.2ZM1163.6 84.2C1151.2 84.2 1139 78.2 1139 64.2C1139 55 1147.4 44.6 1162.6 44.6C1181.4 44.6 1188.6 59 1189.8 71.8C1183.4 79.6 1173.6 84.2 1163.6 84.2Z" fill="white"/>
</g>
<defs>
<clipPath id="clip0">
<rect width="1281" height="720" fill="white"/>
</clipPath>
</defs>
</svg>
