<svg width="1416" height="1028" viewBox="0 0 1416 1028" fill="none" xmlns="http://www.w3.org/2000/svg">
<rect x="68" y="140" width="1281" height="720" fill="black"/>
<path d="M160.815 352H114.381V193.732L78.084 230.683L51.597 202.888L120.267 133.891H160.815V352Z" fill="white"/>
<path d="M211.914 605H18.142V562.154C73.2113 521.238 109.624 492.159 127.38 474.918C145.393 457.419 154.4 441.079 154.4 425.896C154.4 415.345 150.283 407.111 142.048 401.192C133.813 395.273 124.035 392.314 112.712 392.314C85.692 392.314 62.6607 402.221 43.618 422.036L12.352 385.752C24.4467 371.856 39.2433 361.434 56.742 354.486C74.498 347.281 92.7687 343.678 111.554 343.678C139.861 343.678 163.278 351.141 181.806 366.066C200.591 380.991 209.984 400.935 209.984 425.896C209.984 446.997 201.621 467.713 184.894 488.042C168.425 508.114 142.434 531.017 106.922 556.75H211.914V605Z" fill="white"/>
<path d="M615.8 355H515.4V332.8C543.933 311.6 562.8 296.533 572 287.6C581.333 278.533 586 270.067 586 262.2C586 256.733 583.867 252.467 579.6 249.4C575.333 246.333 570.267 244.8 564.4 244.8C550.4 244.8 538.467 249.933 528.6 260.2L512.4 241.4C518.667 234.2 526.333 228.8 535.4 225.2C544.6 221.467 554.067 219.6 563.8 219.6C578.467 219.6 590.6 223.467 600.2 231.2C609.933 238.933 614.8 249.267 614.8 262.2C614.8 273.133 610.467 283.867 601.8 294.4C593.267 304.8 579.8 316.667 561.4 330H615.8V355Z" fill="white"/>
<path d="M227.2 393.8C203.733 393.8 182.933 389.933 164.8 382.2C146.667 374.2 132.4 363.8 122 351L151.6 313C160.667 322.333 171.867 329.8 185.2 335.4C198.533 340.733 211.867 343.4 225.2 343.4C241.2 343.4 253.6 340.333 262.4 334.2C271.2 327.8 275.6 319.533 275.6 309.4C275.6 298.733 271.333 291 262.8 286.2C254.267 281.133 240.667 278.6 222 278.6C205.2 278.6 194.133 278.867 188.8 279.4V228.2C192 228.467 203.067 228.6 222 228.6C254.8 228.6 271.2 219.133 271.2 200.2C271.2 190.067 266.533 182.333 257.2 177C248.133 171.4 236.267 168.6 221.6 168.6C195.733 168.6 173.2 177.8 154 196.2L125.6 160.6C150.667 132.333 184.667 118.2 227.6 118.2C258.8 118.2 283.333 124.733 301.2 137.8C319.333 150.867 328.4 168.467 328.4 190.6C328.4 206.6 322.667 220.067 311.2 231C299.733 241.667 286 248.467 270 251.4C285.733 253 300 259.533 312.8 271C325.867 282.2 332.4 297 332.4 315.4C332.4 338.6 322.8 357.533 303.6 372.2C284.4 386.6 258.933 393.8 227.2 393.8Z" fill="white"/>
<path d="M718.9 836.6C701.3 836.6 685.7 833.7 672.1 827.9C658.5 821.9 647.8 814.1 640 804.5L662.2 776C669 783 677.4 788.6 687.4 792.8C697.4 796.8 707.4 798.8 717.4 798.8C729.4 798.8 738.7 796.5 745.3 791.9C751.9 787.1 755.2 780.9 755.2 773.3C755.2 765.3 752 759.5 745.6 755.9C739.2 752.1 729 750.2 715 750.2C702.4 750.2 694.1 750.4 690.1 750.8V712.4C692.5 712.6 700.8 712.7 715 712.7C739.6 712.7 751.9 705.6 751.9 691.4C751.9 683.8 748.4 678 741.4 674C734.6 669.8 725.7 667.7 714.7 667.7C695.3 667.7 678.4 674.6 664 688.4L642.7 661.7C661.5 640.5 687 629.9 719.2 629.9C742.6 629.9 761 634.8 774.4 644.6C788 654.4 794.8 667.6 794.8 684.2C794.8 696.2 790.5 706.3 781.9 714.5C773.3 722.5 763 727.6 751 729.8C762.8 731 773.5 735.9 783.1 744.5C792.9 752.9 797.8 764 797.8 777.8C797.8 795.2 790.6 809.4 776.2 820.4C761.8 831.2 742.7 836.6 718.9 836.6Z" fill="white"/>
<path d="M379.4 547.8C335.4 547.8 301.133 534.467 276.6 507.8L308.2 468.2C326.867 487.667 350.467 497.4 379 497.4C394.2 497.4 406.2 493.667 415 486.2C424.067 478.467 428.6 469 428.6 457.8C428.6 445.8 424.333 436.2 415.8 429C407.267 421.8 395.533 418.2 380.6 418.2C358.467 418.2 339.8 425.4 324.6 439.8L285 429.4V276.2H468.2V326.2H341.8V391.4C356.733 376.467 376.333 369 400.6 369C424.333 369 444.467 376.867 461 392.6C477.8 408.333 486.2 429.267 486.2 455.4C486.2 483.667 476.467 506.2 457 523C437.533 539.533 411.667 547.8 379.4 547.8Z" fill="white"/>
<path d="M601.8 768.6C568.8 768.6 543.1 758.6 524.7 738.6L548.4 708.9C562.4 723.5 580.1 730.8 601.5 730.8C612.9 730.8 621.9 728 628.5 722.4C635.3 716.6 638.7 709.5 638.7 701.1C638.7 692.1 635.5 684.9 629.1 679.5C622.7 674.1 613.9 671.4 602.7 671.4C586.1 671.4 572.1 676.8 560.7 687.6L531 679.8V564.9H668.4V602.4H573.6V651.3C584.8 640.1 599.5 634.5 617.7 634.5C635.5 634.5 650.6 640.4 663 652.2C675.6 664 681.9 679.7 681.9 699.3C681.9 720.5 674.6 737.4 660 750C645.4 762.4 626 768.6 601.8 768.6Z" fill="white"/>
<path d="M322.9 728.6C300.3 728.6 281.2 723.8 265.6 714.2C250.2 704.6 242.5 690.9 242.5 673.1C242.5 661.5 246.5 651.2 254.5 642.2C262.5 633 272.8 626.2 285.4 621.8C259 612.6 245.8 596.9 245.8 574.7C245.8 557.3 253.4 544.2 268.6 535.4C284 526.4 302.1 521.9 322.9 521.9C336.1 521.9 348.3 523.6 359.5 527C370.7 530.4 380.2 536.3 388 544.7C396 552.9 400 562.9 400 574.7C400 596.7 386.7 612.4 360.1 621.8C372.7 626.2 383 633 391 642.2C399.2 651.2 403.3 661.5 403.3 673.1C403.3 690.7 395.5 704.4 379.9 714.2C364.3 723.8 345.3 728.6 322.9 728.6ZM322.9 605C331.1 603.8 338.7 601.2 345.7 597.2C352.9 593.2 356.5 587.9 356.5 581.3C356.5 574.3 353.4 568.8 347.2 564.8C341 560.6 332.9 558.5 322.9 558.5C312.9 558.5 304.7 560.6 298.3 564.8C292.1 568.8 289 574.3 289 581.3C289 587.9 292.6 593.2 299.8 597.2C307 601.2 314.7 603.8 322.9 605ZM322.9 692C333.3 692 342.1 689.8 349.3 685.4C356.5 680.8 360.1 674.9 360.1 667.7C360.1 660.3 356 654.3 347.8 649.7C339.8 645.1 331.5 642.2 322.9 641C314.3 642.2 305.9 645.1 297.7 649.7C289.7 654.3 285.7 660.3 285.7 667.7C285.7 674.9 289.2 680.8 296.2 685.4C303.4 689.8 312.3 692 322.9 692Z" fill="white"/>
<path d="M766.9 585.3C743.1 585.3 723.5 578.4 708.1 564.6L727 531.9C738 542.3 751.3 547.5 766.9 547.5C782.5 547.5 794.7 542 803.5 531C812.5 519.8 817 506.5 817 491.1V486.6C811.8 493.8 804.5 499.9 795.1 504.9C785.7 509.9 775.8 512.4 765.4 512.4C746.4 512.4 730.2 506.7 716.8 495.3C703.6 483.7 697 467.7 697 447.3C697 427.5 704.1 411.1 718.3 398.1C732.7 385.1 751.2 378.6 773.8 378.6C793.2 378.6 809.5 383.4 822.7 393C836.1 402.6 845.6 415 851.2 430.2C857 445.2 859.9 462.5 859.9 482.1C859.9 512.9 851.6 537.8 835 556.8C818.6 575.8 795.9 585.3 766.9 585.3ZM777.4 475.8C793.4 475.8 806.5 469.6 816.7 457.2C815.7 446 811.9 436.4 805.3 428.4C798.7 420.4 788.9 416.4 775.9 416.4C765.1 416.4 756.5 419.4 750.1 425.4C743.7 431.4 740.5 438.2 740.5 445.8C740.5 455.6 744.1 463.1 751.3 468.3C758.5 473.3 767.2 475.8 777.4 475.8Z" fill="white"/>
<path d="M699.6 621.4C684.533 621.4 671.8 618.2 661.4 611.8C651.133 605.4 646 596.267 646 584.4C646 576.667 648.667 569.8 654 563.8C659.333 557.667 666.2 553.133 674.6 550.2C657 544.067 648.2 533.6 648.2 518.8C648.2 507.2 653.267 498.467 663.4 492.6C673.667 486.6 685.733 483.6 699.6 483.6C708.4 483.6 716.533 484.733 724 487C731.467 489.267 737.8 493.2 743 498.8C748.333 504.267 751 510.933 751 518.8C751 533.467 742.133 543.933 724.4 550.2C732.8 553.133 739.667 557.667 745 563.8C750.467 569.8 753.2 576.667 753.2 584.4C753.2 596.133 748 605.267 737.6 611.8C727.2 618.2 714.533 621.4 699.6 621.4ZM699.6 539C705.067 538.2 710.133 536.467 714.8 533.8C719.6 531.133 722 527.6 722 523.2C722 518.533 719.933 514.867 715.8 512.2C711.667 509.4 706.267 508 699.6 508C692.933 508 687.467 509.4 683.2 512.2C679.067 514.867 677 518.533 677 523.2C677 527.6 679.4 531.133 684.2 533.8C689 536.467 694.133 538.2 699.6 539ZM699.6 597C706.533 597 712.4 595.533 717.2 592.6C722 589.533 724.4 585.6 724.4 580.8C724.4 575.867 721.667 571.867 716.2 568.8C710.867 565.733 705.333 563.8 699.6 563C693.867 563.8 688.267 565.733 682.8 568.8C677.467 571.867 674.8 575.867 674.8 580.8C674.8 585.6 677.133 589.533 681.8 592.6C686.6 595.533 692.533 597 699.6 597Z" fill="white"/>
<path d="M477.8 864.8C439.4 864.8 410.6 852 391.4 826.4C372.2 800.8 362.6 767.733 362.6 727.2C362.6 685.867 373.667 652.533 395.8 627.2C417.933 601.867 448.333 589.2 487 589.2C517.933 589.2 544.2 598.4 565.8 616.8L540.2 660.4C525.533 646.533 507.8 639.6 487 639.6C467.533 639.6 451.533 646.933 439 661.6C426.467 676 420.2 693.867 420.2 715.2C420.2 717.6 420.333 719.467 420.6 720.8C427.267 711.2 436.867 703.067 449.4 696.4C461.933 689.733 475.133 686.4 489 686.4C514.333 686.4 535.8 694.133 553.4 709.6C571 724.8 579.8 746 579.8 773.2C579.8 799.6 570.333 821.467 551.4 838.8C532.467 856.133 507.933 864.8 477.8 864.8ZM474.6 814.4C489 814.4 500.467 810.4 509 802.4C517.8 794.4 522.2 785.333 522.2 775.2C522.2 762.133 517.4 752.267 507.8 745.6C498.2 738.667 486.467 735.2 472.6 735.2C451.267 735.2 433.933 743.6 420.6 760.4C421.933 775.333 427 788.133 435.8 798.8C444.6 809.2 457.533 814.4 474.6 814.4Z" fill="white"/>
<path d="M76.6 804.2C60.7333 804.2 47.6667 799.6 37.4 790.4L50 768.6C57.3333 775.533 66.2 779 76.6 779C87 779 95.1333 775.333 101 768C107 760.533 110 751.667 110 741.4V738.4C106.533 743.2 101.667 747.267 95.4 750.6C89.1333 753.933 82.5333 755.6 75.6 755.6C62.9333 755.6 52.1333 751.8 43.2 744.2C34.4 736.467 30 725.8 30 712.2C30 699 34.7333 688.067 44.2 679.4C53.8 670.733 66.1333 666.4 81.2 666.4C94.1333 666.4 105 669.6 113.8 676C122.733 682.4 129.067 690.667 132.8 700.8C136.667 710.8 138.6 722.333 138.6 735.4C138.6 755.933 133.067 772.533 122 785.2C111.067 797.867 95.9333 804.2 76.6 804.2ZM83.6 731.2C94.2667 731.2 103 727.067 109.8 718.8C109.133 711.333 106.6 704.933 102.2 699.6C97.8 694.267 91.2667 691.6 82.6 691.6C75.4 691.6 69.6667 693.6 65.4 697.6C61.1333 701.6 59 706.133 59 711.2C59 717.733 61.4 722.733 66.2 726.2C71 729.533 76.8 731.2 83.6 731.2Z" fill="white"/>
<path d="M234 862H177.2V668.4L132.8 713.6L100.4 679.6L184.4 595.2H234V862Z" fill="white"/>
<path d="M565 619H508.2V425.4L463.8 470.6L431.4 436.6L515.4 352.2H565V619Z" fill="white"/>
<path d="M451.1 396H404.3L476 233.4H375.2V195.9H525.5V225.6L451.1 396Z" fill="white"/>
<path d="M659.5 460H581.5L701 189H533V126.5H783.5V176L659.5 460Z" fill="white"/>
<path d="M1064.1 810H1017.3L1089 647.4H988.2V609.9H1138.5V639.6L1064.1 810Z" fill="white"/>
<path d="M1044.2 397.8C1014.07 397.8 988.6 391.4 967.8 378.6C947.267 365.8 937 347.533 937 323.8C937 308.333 942.333 294.6 953 282.6C963.667 270.333 977.4 261.267 994.2 255.4C959 243.133 941.4 222.2 941.4 192.6C941.4 169.4 951.533 151.933 971.8 140.2C992.333 128.2 1016.47 122.2 1044.2 122.2C1061.8 122.2 1078.07 124.467 1093 129C1107.93 133.533 1120.6 141.4 1131 152.6C1141.67 163.533 1147 176.867 1147 192.6C1147 221.933 1129.27 242.867 1093.8 255.4C1110.6 261.267 1124.33 270.333 1135 282.6C1145.93 294.6 1151.4 308.333 1151.4 323.8C1151.4 347.267 1141 365.533 1120.2 378.6C1099.4 391.4 1074.07 397.8 1044.2 397.8ZM1044.2 233C1055.13 231.4 1065.27 227.933 1074.6 222.6C1084.2 217.267 1089 210.2 1089 201.4C1089 192.067 1084.87 184.733 1076.6 179.4C1068.33 173.8 1057.53 171 1044.2 171C1030.87 171 1019.93 173.8 1011.4 179.4C1003.13 184.733 999 192.067 999 201.4C999 210.2 1003.8 217.267 1013.4 222.6C1023 227.933 1033.27 231.4 1044.2 233ZM1044.2 349C1058.07 349 1069.8 346.067 1079.4 340.2C1089 334.067 1093.8 326.2 1093.8 316.6C1093.8 306.733 1088.33 298.733 1077.4 292.6C1066.73 286.467 1055.67 282.6 1044.2 281C1032.73 282.6 1021.53 286.467 1010.6 292.6C999.933 298.733 994.6 306.733 994.6 316.6C994.6 326.2 999.267 334.067 1008.6 340.2C1018.2 346.067 1030.07 349 1044.2 349Z" fill="white"/>
<path d="M1138.5 619H1095.9V473.8L1062.6 507.7L1038.3 482.2L1101.3 418.9H1138.5V619Z" fill="white"/>
<path d="M1150.9 882.6C1133.3 882.6 1117.7 879.7 1104.1 873.9C1090.5 867.9 1079.8 860.1 1072 850.5L1094.2 822C1101 829 1109.4 834.6 1119.4 838.8C1129.4 842.8 1139.4 844.8 1149.4 844.8C1161.4 844.8 1170.7 842.5 1177.3 837.9C1183.9 833.1 1187.2 826.9 1187.2 819.3C1187.2 811.3 1184 805.5 1177.6 801.9C1171.2 798.1 1161 796.2 1147 796.2C1134.4 796.2 1126.1 796.4 1122.1 796.8V758.4C1124.5 758.6 1132.8 758.7 1147 758.7C1171.6 758.7 1183.9 751.6 1183.9 737.4C1183.9 729.8 1180.4 724 1173.4 720C1166.6 715.8 1157.7 713.7 1146.7 713.7C1127.3 713.7 1110.4 720.6 1096 734.4L1074.7 707.7C1093.5 686.5 1119 675.9 1151.2 675.9C1174.6 675.9 1193 680.8 1206.4 690.6C1220 700.4 1226.8 713.6 1226.8 730.2C1226.8 742.2 1222.5 752.3 1213.9 760.5C1205.3 768.5 1195 773.6 1183 775.8C1194.8 777 1205.5 781.9 1215.1 790.5C1224.9 798.9 1229.8 810 1229.8 823.8C1229.8 841.2 1222.6 855.4 1208.2 866.4C1193.8 877.2 1174.7 882.6 1150.9 882.6Z" fill="white"/>
<path d="M1360 653H1289V584H1129.5V528L1262 319.5H1360V521.5H1403V584H1360V653ZM1289 521.5V382.5L1199 521.5H1289Z" fill="white"/>
<path d="M1200.8 442H1100.4V419.8C1128.93 398.6 1147.8 383.533 1157 374.6C1166.33 365.533 1171 357.067 1171 349.2C1171 343.733 1168.87 339.467 1164.6 336.4C1160.33 333.333 1155.27 331.8 1149.4 331.8C1135.4 331.8 1123.47 336.933 1113.6 347.2L1097.4 328.4C1103.67 321.2 1111.33 315.8 1120.4 312.2C1129.6 308.467 1139.07 306.6 1148.8 306.6C1163.47 306.6 1175.6 310.467 1185.2 318.2C1194.93 325.933 1199.8 336.267 1199.8 349.2C1199.8 360.133 1195.47 370.867 1186.8 381.4C1178.27 391.8 1164.8 403.667 1146.4 417H1200.8V442Z" fill="white"/>
<path d="M234.2 605H205.8V577.4H142V555L195 471.6H234.2V552.4H251.4V577.4H234.2V605ZM205.8 552.4V496.8L169.8 552.4H205.8Z" fill="white"/>
<path d="M1014 879H943V810H783.5V754L916 545.5H1014V747.5H1057V810H1014V879ZM943 747.5V608.5L853 747.5H943Z" fill="white"/>
<path d="M910.6 519.6C881.8 519.6 860.2 510 845.8 490.8C831.4 471.6 824.2 446.8 824.2 416.4C824.2 385.4 832.5 360.4 849.1 341.4C865.7 322.4 888.5 312.9 917.5 312.9C940.7 312.9 960.4 319.8 976.6 333.6L957.4 366.3C946.4 355.9 933.1 350.7 917.5 350.7C902.9 350.7 890.9 356.2 881.5 367.2C872.1 378 867.4 391.4 867.4 407.4C867.4 409.2 867.5 410.6 867.7 411.6C872.7 404.4 879.9 398.3 889.3 393.3C898.7 388.3 908.6 385.8 919 385.8C938 385.8 954.1 391.6 967.3 403.2C980.5 414.6 987.1 430.5 987.1 450.9C987.1 470.7 980 487.1 965.8 500.1C951.6 513.1 933.2 519.6 910.6 519.6ZM908.2 481.8C919 481.8 927.6 478.8 934 472.8C940.6 466.8 943.9 460 943.9 452.4C943.9 442.6 940.3 435.2 933.1 430.2C925.9 425 917.1 422.4 906.7 422.4C890.7 422.4 877.7 428.7 867.7 441.3C868.7 452.5 872.5 462.1 879.1 470.1C885.7 477.9 895.4 481.8 908.2 481.8Z" fill="white"/>
<path d="M850.8 337.6C817.8 337.6 792.1 327.6 773.7 307.6L797.4 277.9C811.4 292.5 829.1 299.8 850.5 299.8C861.9 299.8 870.9 297 877.5 291.4C884.3 285.6 887.7 278.5 887.7 270.1C887.7 261.1 884.5 253.9 878.1 248.5C871.7 243.1 862.9 240.4 851.7 240.4C835.1 240.4 821.1 245.8 809.7 256.6L780 248.8V133.9H917.4V171.4H822.6V220.3C833.8 209.1 848.5 203.5 866.7 203.5C884.5 203.5 899.6 209.4 912 221.2C924.6 233 930.9 248.7 930.9 268.3C930.9 289.5 923.6 306.4 909 319C894.4 331.4 875 337.6 850.8 337.6Z" fill="white"/>
<path d="M1223.6 295.2C1207.73 295.2 1194.67 290.6 1184.4 281.4L1197 259.6C1204.33 266.533 1213.2 270 1223.6 270C1234 270 1242.13 266.333 1248 259C1254 251.533 1257 242.667 1257 232.4V229.4C1253.53 234.2 1248.67 238.267 1242.4 241.6C1236.13 244.933 1229.53 246.6 1222.6 246.6C1209.93 246.6 1199.13 242.8 1190.2 235.2C1181.4 227.467 1177 216.8 1177 203.2C1177 190 1181.73 179.067 1191.2 170.4C1200.8 161.733 1213.13 157.4 1228.2 157.4C1241.13 157.4 1252 160.6 1260.8 167C1269.73 173.4 1276.07 181.667 1279.8 191.8C1283.67 201.8 1285.6 213.333 1285.6 226.4C1285.6 246.933 1280.07 263.533 1269 276.2C1258.07 288.867 1242.93 295.2 1223.6 295.2ZM1230.6 222.2C1241.27 222.2 1250 218.067 1256.8 209.8C1256.13 202.333 1253.6 195.933 1249.2 190.6C1244.8 185.267 1238.27 182.6 1229.6 182.6C1222.4 182.6 1216.67 184.6 1212.4 188.6C1208.13 192.6 1206 197.133 1206 202.2C1206 208.733 1208.4 213.733 1213.2 217.2C1218 220.533 1223.8 222.2 1230.6 222.2Z" fill="white"/>
<path d="M1278.4 782H1247.2L1295 673.6H1227.8V648.6H1328V668.4L1278.4 782Z" fill="white"/>
</svg>
