<svg width="1280" height="1103" viewBox="0 0 1280 1103" fill="none" xmlns="http://www.w3.org/2000/svg">
<rect y="167" width="1281" height="770" fill="black"/>
<path d="M112.6 386.6C171.1 386.6 209.8 341.6 209.8 283.1C209.8 224.6 171.1 179.6 112.6 179.6C53.8 179.6 15.4 224.6 15.4 283.1C15.4 341.6 53.8 386.6 112.6 386.6ZM112.6 371C64 371 33.4 333.5 33.4 283.1C33.4 232.1 64 195.2 112.6 195.2C160.6 195.2 191.8 232.1 191.8 283.1C191.8 333.5 160.6 371 112.6 371Z" fill="white"/>
<path d="M677.8 684.8C755.8 684.8 807.4 624.8 807.4 546.8C807.4 468.8 755.8 408.8 677.8 408.8C599.4 408.8 548.2 468.8 548.2 546.8C548.2 624.8 599.4 684.8 677.8 684.8ZM677.8 664C613 664 572.2 614 572.2 546.8C572.2 478.8 613 429.6 677.8 429.6C741.8 429.6 783.4 478.8 783.4 546.8C783.4 614 741.8 664 677.8 664Z" fill="#737EE6"/>
<path d="M591.1 374.6C652 374.6 701.8 322.1 701.8 254.3C701.8 198.5 661.6 167.6 612.1 167.6C550.9 167.6 501.1 220.1 501.1 287.9C501.1 343.7 541.3 374.6 591.1 374.6ZM592 359C552.4 359 519.7 334.1 519.7 287.3C519.7 226.7 562 183.2 610.6 183.2C650.2 183.2 683.2 208.1 683.2 254.9C683.2 315.5 640.3 359 592 359Z" fill="#ABFF8D"/>
<path d="M321.4 770.4C362 770.4 395.2 735.4 395.2 690.2C395.2 653 368.4 632.4 335.4 632.4C294.6 632.4 261.4 667.4 261.4 712.6C261.4 749.8 288.2 770.4 321.4 770.4ZM322 760C295.6 760 273.8 743.4 273.8 712.2C273.8 671.8 302 642.8 334.4 642.8C360.8 642.8 382.8 659.4 382.8 690.6C382.8 731 354.2 760 322 760Z" fill="white"/>
<path d="M718.4 340.4C759 340.4 792.2 305.4 792.2 260.2C792.2 223 765.4 202.4 732.4 202.4C691.6 202.4 658.4 237.4 658.4 282.6C658.4 319.8 685.2 340.4 718.4 340.4ZM719 330C692.6 330 670.8 313.4 670.8 282.2C670.8 241.8 699 212.8 731.4 212.8C757.8 212.8 779.8 229.4 779.8 260.6C779.8 301 751.2 330 719 330Z" fill="white"/>
<path d="M1027.6 443.6C999 443.6 976 433.8 958.6 414.2C941.2 394.4 932.5 369.7 932.5 340.1C932.5 310.5 941.2 285.9 958.6 266.3C976 246.5 999 236.6 1027.6 236.6C1056 236.6 1078.9 246.5 1096.3 266.3C1113.9 285.9 1122.7 310.5 1122.7 340.1C1122.7 369.7 1113.9 394.4 1096.3 414.2C1078.9 433.8 1056 443.6 1027.6 443.6ZM1027.6 434.6C1053 434.6 1073.4 425.8 1088.8 408.2C1104.4 390.4 1112.2 367.7 1112.2 340.1C1112.2 312.3 1104.4 289.6 1088.8 272C1073.4 254.4 1053 245.6 1027.6 245.6C1002 245.6 981.5 254.4 966.1 272C950.7 289.6 943 312.3 943 340.1C943 367.7 950.7 390.4 966.1 408.2C981.5 425.8 1002 434.6 1027.6 434.6Z" fill="#737EE6"/>
<path d="M82.4 471.4C63.3333 471.4 48 464.867 36.4 451.8C24.8 438.6 19 422.133 19 402.4C19 382.667 24.8 366.267 36.4 353.2C48 340 63.3333 333.4 82.4 333.4C101.333 333.4 116.6 340 128.2 353.2C139.933 366.267 145.8 382.667 145.8 402.4C145.8 422.133 139.933 438.6 128.2 451.8C116.6 464.867 101.333 471.4 82.4 471.4ZM82.4 465.4C99.3333 465.4 112.933 459.533 123.2 447.8C133.6 435.933 138.8 420.8 138.8 402.4C138.8 383.867 133.6 368.733 123.2 357C112.933 345.267 99.3333 339.4 82.4 339.4C65.3333 339.4 51.6667 345.267 41.4 357C31.1333 368.733 26 383.867 26 402.4C26 420.8 31.1333 435.933 41.4 447.8C51.6667 459.533 65.3333 465.4 82.4 465.4Z" fill="white"/>
<path d="M887.4 680.4C868.333 680.4 853 673.867 841.4 660.8C829.8 647.6 824 631.133 824 611.4C824 591.667 829.8 575.267 841.4 562.2C853 549 868.333 542.4 887.4 542.4C906.333 542.4 921.6 549 933.2 562.2C944.933 575.267 950.8 591.667 950.8 611.4C950.8 631.133 944.933 647.6 933.2 660.8C921.6 673.867 906.333 680.4 887.4 680.4ZM887.4 674.4C904.333 674.4 917.933 668.533 928.2 656.8C938.6 644.933 943.8 629.8 943.8 611.4C943.8 592.867 938.6 577.733 928.2 566C917.933 554.267 904.333 548.4 887.4 548.4C870.333 548.4 856.667 554.267 846.4 566C836.133 577.733 831 592.867 831 611.4C831 629.8 836.133 644.933 846.4 656.8C856.667 668.533 870.333 674.4 887.4 674.4Z" fill="white"/>
<path d="M997.8 988.8C959.667 988.8 929 975.733 905.8 949.6C882.6 923.2 871 890.267 871 850.8C871 811.333 882.6 778.533 905.8 752.4C929 726 959.667 712.8 997.8 712.8C1035.67 712.8 1066.2 726 1089.4 752.4C1112.87 778.533 1124.6 811.333 1124.6 850.8C1124.6 890.267 1112.87 923.2 1089.4 949.6C1066.2 975.733 1035.67 988.8 997.8 988.8ZM997.8 976.8C1031.67 976.8 1058.87 965.067 1079.4 941.6C1100.2 917.867 1110.6 887.6 1110.6 850.8C1110.6 813.733 1100.2 783.467 1079.4 760C1058.87 736.533 1031.67 724.8 997.8 724.8C963.667 724.8 936.333 736.533 915.8 760C895.267 783.467 885 813.733 885 850.8C885 887.6 895.267 917.867 915.8 941.6C936.333 965.067 963.667 976.8 997.8 976.8Z" fill="white"/>
<path d="M524.6 754.6C496 754.6 473 744.8 455.6 725.2C438.2 705.4 429.5 680.7 429.5 651.1C429.5 621.5 438.2 596.9 455.6 577.3C473 557.5 496 547.6 524.6 547.6C553 547.6 575.9 557.5 593.3 577.3C610.9 596.9 619.7 621.5 619.7 651.1C619.7 680.7 610.9 705.4 593.3 725.2C575.9 744.8 553 754.6 524.6 754.6ZM524.6 745.6C550 745.6 570.4 736.8 585.8 719.2C601.4 701.4 609.2 678.7 609.2 651.1C609.2 623.3 601.4 600.6 585.8 583C570.4 565.4 550 556.6 524.6 556.6C499 556.6 478.5 565.4 463.1 583C447.7 600.6 440 623.3 440 651.1C440 678.7 447.7 701.4 463.1 719.2C478.5 736.8 499 745.6 524.6 745.6Z" fill="#ABFF8D"/>
<path d="M362.5 485.6C337.3 485.6 316.4 478.1 299.8 463.1C283.4 447.9 275.2 426.8 275.2 399.8C275.2 365.8 285.9 337.1 307.3 313.7C328.7 290.3 354.4 278.6 384.4 278.6C409.6 278.6 430.4 286.2 446.8 301.4C463.4 316.4 471.7 337.4 471.7 364.4C471.7 398.4 461 427.1 439.6 450.5C418.2 473.9 392.5 485.6 362.5 485.6ZM363.1 476.6C389.5 476.6 412.4 466 431.8 444.8C451.2 423.4 460.9 396.6 460.9 364.4C460.9 340.2 453.5 321.4 438.7 308C423.9 294.4 405.5 287.6 383.5 287.6C357.1 287.6 334.2 298.3 314.8 319.7C295.6 340.9 286 367.6 286 399.8C286 424.2 293.3 443.1 307.9 456.5C322.7 469.9 341.1 476.6 363.1 476.6Z" fill="white"/>
<path d="M229.6 843.6C214.8 843.6 201.3 841 189.1 835.8C176.9 830.6 166.4 823.4 157.6 814.2C149 804.8 142.3 793.8 137.5 781.2C132.7 768.6 130.3 754.9 130.3 740.1C130.3 725.3 132.7 711.6 137.5 699C142.3 686.4 149 675.5 157.6 666.3C166.4 656.9 176.9 649.6 189.1 644.4C201.3 639.2 214.8 636.6 229.6 636.6C244.4 636.6 257.9 639.2 270.1 644.4C282.3 649.6 292.7 656.9 301.3 666.3C310.1 675.5 316.9 686.4 321.7 699C326.5 711.6 328.9 725.3 328.9 740.1C328.9 754.9 326.5 768.6 321.7 781.2C316.9 793.8 310.1 804.8 301.3 814.2C292.7 823.4 282.3 830.6 270.1 835.8C257.9 841 244.4 843.6 229.6 843.6ZM229.6 821.4C240.8 821.4 250.9 819.4 259.9 815.4C268.9 811.2 276.6 805.5 283 798.3C289.4 790.9 294.3 782.3 297.7 772.5C301.3 762.5 303.1 751.7 303.1 740.1C303.1 728.5 301.3 717.7 297.7 707.7C294.3 697.7 289.4 689.1 283 681.9C276.6 674.7 268.9 669.1 259.9 665.1C250.9 660.9 240.8 658.8 229.6 658.8C218.4 658.8 208.2 660.9 199 665.1C190 669.1 182.3 674.7 175.9 681.9C169.5 689.1 164.6 697.7 161.2 707.7C157.8 717.7 156.1 728.5 156.1 740.1C156.1 751.7 157.8 762.5 161.2 772.5C164.6 782.3 169.5 790.9 175.9 798.3C182.3 805.5 190 811.2 199 815.4C208.2 819.4 218.4 821.4 229.6 821.4Z" fill="white"/>
<path d="M871.4 838.6C933.8 838.6 983.9 786.1 983.9 718.9C983.9 663.7 942.8 631.6 891.5 631.6C829.1 631.6 779 684.1 779 751C779 806.5 820.1 838.6 871.4 838.6ZM872.9 816.4C835.4 816.4 805.4 792.7 805.4 749.8C805.4 694.3 844.1 653.8 890 653.8C927.2 653.8 957.5 677.8 957.5 720.4C957.5 775.9 918.2 816.4 872.9 816.4Z" fill="#737EE6"/>
<path d="M302.6 583.6C363.2 583.6 407.3 540.4 407.3 480.1C407.3 419.8 363.2 376.6 302.6 376.6C242.3 376.6 198.2 419.8 198.2 480.1C198.2 540.4 242.3 583.6 302.6 583.6ZM302.6 545.8C265.7 545.8 242 517.3 242 480.1C242 442.6 265.7 414.4 302.6 414.4C339.5 414.4 363.5 442.6 363.5 480.1C363.5 517.3 339.5 545.8 302.6 545.8Z" fill="#737EE6"/>
<path d="M67.8 772.8C148.6 772.8 207.4 715.2 207.4 634.8C207.4 554.4 148.6 496.8 67.8 496.8C-12.6 496.8 -71.4 554.4 -71.4 634.8C-71.4 715.2 -12.6 772.8 67.8 772.8ZM67.8 722.4C18.6 722.4 -13 684.4 -13 634.8C-13 584.8 18.6 547.2 67.8 547.2C117 547.2 149 584.8 149 634.8C149 684.4 117 722.4 67.8 722.4Z" fill="#ABFF8D"/>
<path d="M789.6 593.6C855.6 593.6 905.7 541.4 905.7 476C905.7 421.4 862.8 386.6 807.6 386.6C741.6 386.6 691.2 438.5 691.2 503.9C691.2 558.8 734.1 593.6 789.6 593.6ZM792 555.8C759.9 555.8 735.6 535.1 735.6 501.2C735.6 458.3 766.2 424.4 804.9 424.4C837 424.4 861.3 445.4 861.3 479C861.3 521.9 830.4 555.8 792 555.8Z" fill="#ABFF8D"/>
<path d="M597.9 1002.6C659.1 1002.6 704.7 960 704.7 899.1C704.7 838.2 659.1 795.6 597.9 795.6C536.7 795.6 490.8 838.2 490.8 899.1C490.8 960 536.7 1002.6 597.9 1002.6ZM597.9 957C564.6 957 543.3 931.5 543.3 899.1C543.3 866.4 564.6 841.2 597.9 841.2C630.9 841.2 652.2 866.4 652.2 899.1C652.2 931.5 630.9 957 597.9 957Z" fill="white"/>
<path d="M1090.9 279.6C1152.1 279.6 1197.7 237 1197.7 176.1C1197.7 115.2 1152.1 72.6 1090.9 72.6C1029.7 72.6 983.8 115.2 983.8 176.1C983.8 237 1029.7 279.6 1090.9 279.6ZM1090.9 234C1057.6 234 1036.3 208.5 1036.3 176.1C1036.3 143.4 1057.6 118.2 1090.9 118.2C1123.9 118.2 1145.2 143.4 1145.2 176.1C1145.2 208.5 1123.9 234 1090.9 234Z" fill="white"/>
<path d="M1174.5 724C1276.5 724 1352.5 653 1352.5 551.5C1352.5 450 1276.5 379 1174.5 379C1072.5 379 996 450 996 551.5C996 653 1072.5 724 1174.5 724ZM1174.5 648C1119 648 1083.5 605.5 1083.5 551.5C1083.5 497 1119 455 1174.5 455C1229.5 455 1265 497 1265 551.5C1265 605.5 1229.5 648 1174.5 648Z" fill="white"/>
</svg>
