<svg width="1040" height="331" viewBox="0 0 1040 331" fill="none" xmlns="http://www.w3.org/2000/svg">
<rect x="1" y="1" width="148.581" height="148.581" rx="74.2904" fill="#ABFF8D" stroke="black" stroke-width="2"/>
<rect x="178" y="1" width="148.581" height="148.581" rx="74.2904" stroke="black" stroke-width="2"/>
<rect x="357" y="1" width="148.581" height="148.581" rx="74.2904" fill="#ABFF8D" stroke="black" stroke-width="2"/>
<rect x="534" y="1" width="148.581" height="148.581" rx="74.2904" stroke="black" stroke-width="2"/>
<rect x="713" y="1" width="148.581" height="148.581" rx="74.2904" fill="#ABFF8D" stroke="black" stroke-width="2"/>
<rect x="890" y="1" width="148.581" height="148.581" rx="74.2904" stroke="black" stroke-width="2"/>
<rect x="1" y="181" width="148.581" height="148.581" rx="74.2904" stroke="black" stroke-width="2"/>
<rect x="178" y="181" width="148.581" height="148.581" rx="74.2904" fill="#737EE6" stroke="black" stroke-width="2"/>
<rect x="534" y="181" width="148.581" height="148.581" rx="74.2904" fill="#737EE6" stroke="black" stroke-width="2"/>
<rect x="357" y="181" width="148.581" height="148.581" rx="74.2904" stroke="black" stroke-width="2"/>
<rect x="713" y="181" width="148.581" height="148.581" rx="74.2904" stroke="black" stroke-width="2"/>
<rect x="890" y="181" width="148.581" height="148.581" rx="74.2904" fill="#737EE6" stroke="black" stroke-width="2"/>
<path d="M41.82 97.84V94.27C43.5933 94.27 45.0167 93.8267 46.09 92.94C47.1633 92.0067 48.1433 90.0933 49.03 87.2C49.9167 84.26 50.64 80.0833 51.2 74.67L53.44 50.31H73.88V97H70.03V53.81H57.01L54.98 75.02C54.5133 79.8733 53.8833 83.8633 53.09 86.99C52.3433 90.1167 51.3633 92.45 50.15 93.99C48.9833 95.53 47.77 96.5567 46.51 97.07C45.25 97.5833 43.6867 97.84 41.82 97.84ZM80.4316 97.84V94.76C82.0182 94.76 83.3016 93.7333 84.2816 91.68C85.3082 89.58 86.1016 85.87 86.6616 80.55L88.4116 63.19H105.632V97H102.132V66.34H91.7016L90.1616 80.97C89.5082 87.27 88.4116 91.6567 86.8716 94.13C85.3316 96.6033 83.1849 97.84 80.4316 97.84Z" fill="black"/>
<path d="M247.24 97H243.39L252.28 56.61L230.16 97H228.55L224.28 56.61L215.39 97H211.47L221.76 50.31H227.29L231.28 87.55L251.79 50.31H257.53L247.24 97ZM285.189 97H281.619L287.779 68.93L272.099 97H270.559L267.129 68.93L260.969 97H257.469L264.889 63.19H269.579L272.729 89.58L287.569 63.19H292.609L285.189 97Z" fill="black"/>
<path d="M429.55 97H427.31V74.04H404.84V97H402.6V50.31H404.84V71.94H427.31V50.31H429.55V97ZM442.565 97H440.465V63.19H442.565V78.45H458.245V63.19H460.345V97H458.245V80.34H442.565V97Z" fill="black"/>
<path d="M590.06 97.84C585.907 97.84 582.57 96.3933 580.05 93.5C577.53 90.6067 576.27 86.7333 576.27 81.88C576.27 78.3333 576.76 74.67 577.74 70.89C578.767 67.11 580.143 63.6333 581.87 60.46C583.643 57.2867 585.883 54.6733 588.59 52.62C591.297 50.5667 594.167 49.54 597.2 49.54C601.353 49.54 604.69 51.01 607.21 53.95C609.777 56.8433 611.06 60.6933 611.06 65.5C611.06 70.3533 610.22 75.23 608.54 80.13C606.86 84.9833 604.363 89.16 601.05 92.66C597.737 96.1133 594.073 97.84 590.06 97.84ZM590.27 95.74C593.583 95.74 596.663 94.2 599.51 91.12C602.403 87.9933 604.643 84.12 606.23 79.5C607.817 74.88 608.61 70.19 608.61 65.43C608.61 61.09 607.537 57.7067 605.39 55.28C603.243 52.8533 600.42 51.64 596.92 51.64C593.607 51.64 590.527 53.2033 587.68 56.33C584.833 59.41 582.617 63.2833 581.03 67.95C579.49 72.57 578.72 77.26 578.72 82.02C578.72 86.36 579.77 89.7433 581.87 92.17C584.017 94.55 586.817 95.74 590.27 95.74ZM626.115 97.84C622.849 97.84 620.259 96.79 618.345 94.69C616.432 92.59 615.475 89.5567 615.475 85.59C615.475 82.09 616.082 78.59 617.295 75.09C618.555 71.59 620.422 68.6033 622.895 66.13C625.415 63.61 628.215 62.35 631.295 62.35C634.562 62.35 637.152 63.4 639.065 65.5C640.979 67.6 641.935 70.6333 641.935 74.6C641.935 78.1 641.305 81.6 640.045 85.1C638.832 88.6 636.965 91.61 634.445 94.13C631.972 96.6033 629.195 97.84 626.115 97.84ZM626.185 95.95C628.705 95.95 631.039 94.76 633.185 92.38C635.332 90 636.942 87.2 638.015 83.98C639.089 80.7133 639.625 77.5867 639.625 74.6C639.625 71.24 638.879 68.6733 637.385 66.9C635.939 65.1267 633.885 64.24 631.225 64.24C628.705 64.24 626.372 65.43 624.225 67.81C622.079 70.19 620.469 73.0133 619.395 76.28C618.322 79.5 617.785 82.6033 617.785 85.59C617.785 88.95 618.509 91.5167 619.955 93.29C621.449 95.0633 623.525 95.95 626.185 95.95Z" fill="black"/>
<path d="M786.28 97H780.68V55.21H761.5V97H755.9V50.31H786.28V97ZM819.125 97H814.155V67.6H800.785V97H795.815V63.19H819.125V97Z" fill="black"/>
<path d="M936.72 97H931.12L941.41 50.31H954.5C957.813 50.31 960.473 51.3833 962.48 53.53C964.533 55.6767 965.56 58.3833 965.56 61.65C965.56 63.6567 965.233 65.6167 964.58 67.53C963.927 69.4433 962.97 71.2167 961.71 72.85C960.497 74.4833 958.793 75.8133 956.6 76.84C954.453 77.82 952.027 78.31 949.32 78.31H940.78L936.72 97ZM941.83 73.41H949.81C952.89 73.41 955.317 72.29 957.09 70.05C958.863 67.7633 959.75 65.1033 959.75 62.07C959.75 60.0167 959.143 58.36 957.93 57.1C956.763 55.84 955.27 55.21 953.45 55.21H945.89L941.83 73.41ZM980.001 97.84C975.755 97.84 972.768 95.8567 971.041 91.89L967.051 109.88H962.081L972.441 63.19H977.411L976.361 67.81C978.881 64.17 981.938 62.35 985.531 62.35C988.565 62.35 990.968 63.4 992.741 65.5C994.515 67.6 995.401 70.54 995.401 74.32C995.401 77.7267 994.818 81.2033 993.651 84.75C992.531 88.25 990.735 91.3067 988.261 93.92C985.835 96.5333 983.081 97.84 980.001 97.84ZM979.301 93.36C981.401 93.36 983.315 92.31 985.041 90.21C986.768 88.11 988.051 85.6833 988.891 82.93C989.731 80.13 990.151 77.4933 990.151 75.02C990.151 72.4067 989.545 70.4 988.331 69C987.165 67.5533 985.555 66.83 983.501 66.83C981.961 66.83 980.445 67.39 978.951 68.51C977.505 69.5833 976.291 70.9133 975.311 72.5L971.951 87.76C972.465 89.3933 973.375 90.7467 974.681 91.82C976.035 92.8467 977.575 93.36 979.301 93.36Z" fill="black"/>
<path d="M62.98 277.84C57.0067 277.84 52.2233 275.6 48.63 271.12C45.0367 266.64 43.24 260.83 43.24 253.69C43.24 246.55 45.0367 240.74 48.63 236.26C52.2233 231.78 57.0067 229.54 62.98 229.54C70.0733 229.54 75.2767 233.273 78.59 240.74L70.82 244.17C70.0733 242.257 69.0233 240.74 67.67 239.62C66.3633 238.453 64.8 237.87 62.98 237.87C59.9 237.87 57.45 239.34 55.63 242.28C53.81 245.22 52.9 249.023 52.9 253.69C52.9 258.357 53.81 262.16 55.63 265.1C57.45 268.04 59.9 269.51 62.98 269.51C64.8467 269.51 66.4567 268.903 67.81 267.69C69.1633 266.43 70.19 264.773 70.89 262.72L78.66 266.08C75.44 273.92 70.2133 277.84 62.98 277.84ZM97.5332 277.84C92.9132 277.84 89.1799 276.183 86.3332 272.87C83.4865 269.557 82.0632 265.287 82.0632 260.06C82.0632 254.88 83.4865 250.633 86.3332 247.32C89.1799 244.007 92.9132 242.35 97.5332 242.35C102.2 242.35 105.793 243.867 108.313 246.9L104.113 252.71C102.527 250.75 100.637 249.77 98.4432 249.77C96.0632 249.77 94.1732 250.75 92.7732 252.71C91.4199 254.623 90.7432 257.073 90.7432 260.06C90.7432 263.093 91.4199 265.59 92.7732 267.55C94.1732 269.463 96.0632 270.42 98.4432 270.42C100.637 270.42 102.527 269.44 104.113 267.48L108.313 273.29C105.793 276.323 102.2 277.84 97.5332 277.84Z" fill="black"/>
<path d="M240.5 277H231.12L239.59 238.57H229.23L231.05 230.31H261.15L259.33 238.57H248.97L240.5 277ZM268.566 277H260.096L265.906 250.54H258.416L260.096 243.19H283.476L281.796 250.54H274.306L268.566 277Z" fill="black"/>
<path d="M405.17 277.84C401.203 277.84 398.007 276.93 395.58 275.11L399.15 266.08C400.643 267.247 402.23 267.83 403.91 267.83C406.01 267.83 407.667 266.5 408.88 263.84L409.37 262.58L395.44 230.31H407.83L415.53 250.47L423.16 230.31H435.55L419.8 266.92C418.26 270.607 416.37 273.36 414.13 275.18C411.937 276.953 408.95 277.84 405.17 277.84ZM437.295 290.16L438.695 281.27C439.208 281.597 439.908 281.76 440.795 281.76C442.755 281.76 443.968 281.107 444.435 279.8L445.205 277.63L433.725 243.19H444.435L450.385 264.82L456.475 243.19H467.185L454.095 282.04C453.021 285.307 451.505 287.547 449.545 288.76C447.585 290.02 444.971 290.673 441.705 290.72C439.791 290.72 438.321 290.533 437.295 290.16Z" fill="black"/>
<path d="M792.63 277H777.51L770.86 263.14L764.28 277H749.16L762.53 253.06L749.93 230.31H765.05L770.86 243.26L776.6 230.31H791.79L779.26 252.99L792.63 277ZM825.228 277H812.488L808.218 267.97L803.878 277H791.138L800.728 259.85L791.628 243.19H804.368L808.148 251.59L811.998 243.19H824.668L815.638 259.85L825.228 277Z" fill="black"/>
<path d="M948.04 285.61L949.93 277H921.51L931.8 230.31H945.03L937.33 265.45H949.02L956.72 230.31H970.02L962.25 265.45H965.75L961.34 285.61H948.04ZM988.168 285.61L990.058 277H967.097L974.588 243.19H986.417L981.238 266.71H989.008L994.188 243.19H1006.02L1000.84 266.71H1004.2L999.998 285.61H988.168Z" fill="black"/>
<path d="M583.33 277H572.06L573.18 272.03C562.213 270.49 556.73 265.007 556.73 255.58C556.73 250.26 558.993 245.64 563.52 241.72C568.047 237.8 574.067 235.56 581.58 235L582.7 230.31H593.97L592.78 235.35C603.793 236.983 609.3 242.49 609.3 251.87C609.3 257.19 607.013 261.81 602.44 265.73C597.913 269.603 591.893 271.82 584.38 272.38L583.33 277ZM597.47 251.8C597.47 248.44 595.16 246.293 590.54 245.36L586.69 262.09C590.283 261.437 592.967 260.2 594.74 258.38C596.56 256.56 597.47 254.367 597.47 251.8ZM568.56 255.58C568.56 258.987 570.847 261.133 575.42 262.02L579.27 245.36C575.677 246.013 572.993 247.25 571.22 249.07C569.447 250.89 568.56 253.06 568.56 255.58ZM624.851 242.35C626.531 242.35 628.118 242.77 629.611 243.61C631.104 244.403 632.201 245.593 632.901 247.18L636.611 230.31H646.691L642.981 247.11C645.268 243.937 647.974 242.35 651.101 242.35C654.088 242.35 656.374 243.517 657.961 245.85C659.548 248.137 660.341 250.983 660.341 254.39C660.341 257.703 659.781 261.133 658.661 264.68C657.541 268.18 655.791 271.26 653.411 273.92C651.031 276.533 648.348 277.84 645.361 277.84C643.681 277.84 642.094 277.443 640.601 276.65C639.108 275.81 638.011 274.597 637.311 273.01L633.601 289.88H623.521L627.161 273.08C624.921 276.253 622.238 277.84 619.111 277.84C616.124 277.84 613.838 276.697 612.251 274.41C610.664 272.077 609.871 269.207 609.871 265.8C609.871 262.487 610.431 259.08 611.551 255.58C612.671 252.033 614.421 248.953 616.801 246.34C619.181 243.68 621.864 242.35 624.851 242.35ZM627.301 251.31C625.388 251.31 623.754 252.71 622.401 255.51C621.048 258.263 620.371 261.04 620.371 263.84C620.371 267.2 621.608 268.88 624.081 268.88C625.808 268.88 627.371 267.853 628.771 265.8L631.291 254.53C630.638 252.383 629.308 251.31 627.301 251.31ZM642.911 268.88C644.824 268.88 646.458 267.503 647.811 264.75C649.164 261.95 649.841 259.15 649.841 256.35C649.841 254.81 649.514 253.597 648.861 252.71C648.208 251.777 647.274 251.31 646.061 251.31C644.334 251.31 642.794 252.337 641.441 254.39L638.921 265.66C639.574 267.807 640.904 268.88 642.911 268.88Z" fill="black"/>
</svg>
