<svg width="1020" height="324" viewBox="0 0 1020 324" fill="none" xmlns="http://www.w3.org/2000/svg">
<rect x="1" y="1" width="145.632" height="145.8" fill="white" stroke="white" stroke-width="2"/>
<rect x="175" y="1" width="145.632" height="145.8" stroke="white" stroke-width="2"/>
<rect x="350" y="1" width="145.632" height="145.8" fill="white" stroke="white" stroke-width="2"/>
<rect x="524" y="1" width="145.632" height="145.8" stroke="white" stroke-width="2"/>
<rect x="699" y="1" width="145.632" height="145.8" fill="white" stroke="white" stroke-width="2"/>
<rect x="873" y="1" width="145.632" height="145.8" stroke="white" stroke-width="2"/>
<rect x="1" y="177.2" width="145.632" height="145.8" stroke="white" stroke-width="2"/>
<rect x="175" y="177.2" width="145.632" height="145.8" stroke="white" stroke-width="2"/>
<rect x="524" y="177.2" width="145.632" height="145.8" stroke="white" stroke-width="2"/>
<rect x="350" y="177.2" width="145.632" height="145.8" stroke="white" stroke-width="2"/>
<rect x="699" y="177.2" width="145.632" height="145.8" stroke="white" stroke-width="2"/>
<rect x="873" y="177.2" width="145.632" height="145.8" stroke="white" stroke-width="2"/>
<path d="M77.24 95.0352H72.62L68 83.5552H43.29L38.67 95.0352H34.05L53.16 48.3452H58.13L77.24 95.0352ZM66.67 79.9152L55.61 52.6152L44.62 79.9152H66.67ZM109.122 95.0352H105.482V91.0452C102.542 94.2652 98.7156 95.8752 94.0023 95.8752C90.8756 95.8752 88.1223 94.8718 85.7423 92.8652C83.3623 90.8118 82.1723 88.0585 82.1723 84.6052C82.1723 81.1052 83.3389 78.3752 85.6723 76.4152C88.0523 74.4085 90.8289 73.4052 94.0023 73.4052C98.7623 73.4052 102.589 75.0152 105.482 78.2352V71.3752C105.482 68.9485 104.619 67.0585 102.892 65.7052C101.166 64.3052 98.9956 63.6052 96.3823 63.6052C92.2289 63.6052 88.7056 65.2618 85.8123 68.5752L83.7823 66.0552C87.2823 62.2752 91.6223 60.3852 96.8023 60.3852C100.442 60.3852 103.406 61.2952 105.692 63.1152C107.979 64.9352 109.122 67.6418 109.122 71.2352V95.0352ZM95.2623 93.0052C99.6956 93.0052 103.102 91.4652 105.482 88.3852V80.9652C103.056 77.8385 99.6489 76.2752 95.2623 76.2752C92.5089 76.2752 90.2689 77.0685 88.5423 78.6552C86.8623 80.2418 86.0223 82.2485 86.0223 84.6752C86.0223 87.1018 86.8623 89.1085 88.5423 90.6952C90.2689 92.2352 92.5089 93.0052 95.2623 93.0052Z" fill="black"/>
<path d="M219.25 48.3452H248.37L247.6 51.9852H222.54L219.04 67.7352H231.43C234.977 67.7352 237.893 68.8785 240.18 71.1652C242.513 73.4518 243.68 76.2052 243.68 79.4252C243.68 83.5318 242.233 87.1718 239.34 90.3452C236.447 93.4718 232.177 95.0352 226.53 95.0352H209.03L219.25 48.3452ZM230.8 71.3752H218.2L213.79 91.3952H226.88C230.847 91.3952 233.927 90.2752 236.12 88.0352C238.313 85.7485 239.41 82.9718 239.41 79.7052C239.41 77.4652 238.57 75.5285 236.89 73.8952C235.257 72.2152 233.227 71.3752 230.8 71.3752ZM265.12 92.5852C269.227 92.5852 272.68 90.8585 275.48 87.4052C278.28 83.9052 279.68 79.8918 279.68 75.3652C279.68 71.7718 278.7 68.9252 276.74 66.8252C274.827 64.7252 272.144 63.6752 268.69 63.6752C264.584 63.6752 261.13 65.4252 258.33 68.9252C255.53 72.3785 254.13 76.3685 254.13 80.8952C254.13 84.4885 255.087 87.3352 257 89.4352C258.96 91.5352 261.667 92.5852 265.12 92.5852ZM265.05 95.8752C260.524 95.8752 256.907 94.5218 254.2 91.8152C251.494 89.1085 250.14 85.5152 250.14 81.0352C250.14 77.7218 250.957 73.9885 252.59 69.8352C254.69 64.1885 257.537 59.9885 261.13 57.2352C264.724 54.4352 269.367 52.6852 275.06 51.9852C278.7 51.4252 281.244 50.8652 282.69 50.3052C284.137 49.7452 284.954 49.0918 285.14 48.3452H288.57C288.337 49.4652 287.8 50.4452 286.96 51.2852C286.12 52.0785 284.93 52.7318 283.39 53.2452C281.897 53.7585 280.544 54.1552 279.33 54.4352C278.164 54.6685 276.6 54.9252 274.64 55.2052C269.134 56.0452 265.027 57.5385 262.32 59.6852C259.66 61.7852 257.514 64.7485 255.88 68.5752C259.427 63.1152 264.047 60.3852 269.74 60.3852C273.987 60.3852 277.37 61.7385 279.89 64.4452C282.41 67.1518 283.67 70.7452 283.67 75.2252C283.67 80.7318 281.874 85.5618 278.28 89.7152C274.687 93.8218 270.277 95.8752 265.05 95.8752Z" fill="white"/>
<path d="M407.01 95.0352H389.16V48.3452H406.73C410.557 48.3452 413.637 49.3952 415.97 51.4952C418.303 53.5485 419.47 56.4652 419.47 60.2452C419.47 63.0452 418.653 65.4252 417.02 67.3852C415.387 69.2985 413.45 70.4885 411.21 70.9552C413.683 71.3285 415.83 72.6585 417.65 74.9452C419.47 77.2318 420.38 79.7285 420.38 82.4352C420.38 86.4018 419.167 89.5052 416.74 91.7452C414.36 93.9385 411.117 95.0352 407.01 95.0352ZM406.73 69.9752C410.043 69.9752 412.587 69.0652 414.36 67.2452C416.133 65.4252 417.02 63.0918 417.02 60.2452C417.02 57.4452 416.11 55.1118 414.29 53.2452C412.517 51.3785 409.997 50.4452 406.73 50.4452H391.4V69.9752H406.73ZM407.01 92.9352C410.417 92.9352 413.077 92.0018 414.99 90.1352C416.95 88.2685 417.93 85.7252 417.93 82.5052C417.93 79.6585 416.973 77.2085 415.06 75.1552C413.147 73.1018 410.463 72.0752 407.01 72.0752H391.4V92.9352H407.01ZM447.303 95.0352H430.993V61.2252H447.163C449.823 61.2252 451.946 61.9952 453.533 63.5352C455.166 65.0285 455.983 67.1518 455.983 69.9052C455.983 71.8185 455.469 73.4752 454.443 74.8752C453.416 76.2285 452.179 77.1385 450.733 77.6052C452.366 78.0718 453.743 79.0985 454.863 80.6852C456.029 82.2718 456.613 83.9985 456.613 85.8652C456.613 88.7585 455.773 91.0218 454.093 92.6552C452.413 94.2418 450.149 95.0352 447.303 95.0352ZM446.953 93.1452C449.239 93.1452 451.036 92.5152 452.343 91.2552C453.649 89.9485 454.303 88.1752 454.303 85.9352C454.303 83.8818 453.649 82.1318 452.343 80.6852C451.083 79.2385 449.286 78.5152 446.953 78.5152H433.093V93.1452H446.953ZM446.813 76.6252C449.006 76.6252 450.709 75.9952 451.923 74.7352C453.136 73.4752 453.743 71.8652 453.743 69.9052C453.743 67.8052 453.136 66.1485 451.923 64.9352C450.709 63.7218 449.006 63.1152 446.813 63.1152H433.093V76.6252H446.813Z" fill="black"/>
<path d="M567.62 95.0352H565.38L575.67 48.3452H604.23L603.81 50.4452H577.49L567.62 95.0352ZM630.704 61.2252L630.284 63.1152H611.664L604.664 95.0352H602.564L609.984 61.2252H630.704Z" fill="white"/>
<path d="M729.24 103.645V90.3452C731.293 90.2052 732.927 89.7152 734.14 88.8752C735.353 88.0352 736.45 86.2618 737.43 83.5552C738.457 80.8485 739.297 76.9285 739.95 71.7952L742.82 48.3452H771.38V89.8552H775.65V103.645H769.84V95.0352H735.05V103.645H729.24ZM745.69 72.2152C744.617 81.2218 742.237 87.1018 738.55 89.8552H765.57V53.5252H748L745.69 72.2152ZM778.846 103.645V90.6952C780.573 90.3685 781.926 89.3418 782.906 87.6152C783.886 85.8418 784.679 82.5985 785.286 77.8852L787.456 61.2252H810.976V90.4152H814.896V103.645H809.646V95.0352H784.096V103.645H778.846ZM792.076 65.8452L790.536 78.5152C789.743 84.4418 788.109 88.4085 785.636 90.4152H805.726V65.8452H792.076Z" fill="black"/>
<path d="M938.27 95.0352H907.68L917.97 48.3452H948.56L947.44 53.5252H922.66L919.3 68.5752H943.59L942.47 73.7552H918.11L914.54 89.8552H939.39L938.27 95.0352ZM965.174 95.8752C960.087 95.8752 956.05 94.5218 953.064 91.8152C950.124 89.1085 948.654 85.4685 948.654 80.8952C948.654 75.2485 950.497 70.4185 954.184 66.4052C957.87 62.3918 962.374 60.3852 967.694 60.3852C972.08 60.3852 975.604 61.7618 978.264 64.5152C980.924 67.2685 982.254 70.8152 982.254 75.1552C982.254 76.5552 982.067 78.1185 981.694 79.8452H954.114C954.114 79.9385 954.09 80.1952 954.044 80.6152C954.044 80.9885 954.044 81.2685 954.044 81.4552C954.044 84.2552 955.047 86.6352 957.054 88.5952C959.06 90.5552 961.884 91.5352 965.524 91.5352C969.257 91.5352 972.5 90.4385 975.254 88.2452L977.004 91.8852C973.644 94.5452 969.7 95.8752 965.174 95.8752ZM954.674 75.9952H977.354C977.447 75.6218 977.494 75.1785 977.494 74.6652C977.494 71.7718 976.584 69.3918 974.764 67.5252C972.99 65.6585 970.47 64.7252 967.204 64.7252C964.17 64.7252 961.464 65.8452 959.084 68.0852C956.704 70.2785 955.234 72.9152 954.674 75.9952Z" fill="white"/>
<path d="M198.1 271.236H185.22L210.35 246.456L196.63 224.546H208.18L219.38 244.216L223.72 224.546H233.73L229.81 242.396L247.8 224.546H260.82L237.44 246.456L251.79 271.236H240.31L230.02 252.056L227.08 254.856L223.51 271.236H213.5L217.07 254.926L215.88 252.966L198.1 271.236ZM261.168 271.236H249.548L267.328 252.756L257.388 237.426H267.748L275.798 250.306L278.668 237.426H287.628L285.108 248.976L297.428 237.426H308.908L292.178 252.756L301.908 271.236H291.408L285.038 257.866L282.658 259.966L280.208 271.236H271.248L273.698 260.036L272.648 258.566L261.168 271.236Z" fill="white"/>
<path d="M75.65 216.286C75.65 217.639 75.1133 218.853 74.04 219.926C72.9667 220.999 71.73 221.536 70.33 221.536C69.1633 221.536 68.16 221.139 67.32 220.346C66.5267 219.553 66.13 218.549 66.13 217.336C66.13 215.936 66.6667 214.723 67.74 213.696C68.8133 212.623 70.05 212.086 71.45 212.086C72.6633 212.086 73.6667 212.483 74.46 213.276C75.2533 214.069 75.65 215.073 75.65 216.286ZM60.88 216.286C60.88 217.639 60.3433 218.853 59.27 219.926C58.1967 220.999 56.96 221.536 55.56 221.536C54.3467 221.536 53.3433 221.139 52.55 220.346C51.7567 219.553 51.36 218.549 51.36 217.336C51.36 215.936 51.8967 214.723 52.97 213.696C54.0433 212.623 55.28 212.086 56.68 212.086C57.8933 212.086 58.8967 212.483 59.69 213.276C60.4833 214.069 60.88 215.073 60.88 216.286ZM67.88 271.236H34.84L45.13 224.546H78.17L76.21 233.296H53.18L51.01 243.166H73.55L71.59 251.916H49.05L46.74 262.486H69.77L67.88 271.236ZM112.611 227.976C112.611 229.329 112.074 230.543 111.001 231.616C109.927 232.689 108.691 233.226 107.291 233.226C106.077 233.226 105.074 232.829 104.281 232.036C103.487 231.196 103.091 230.193 103.091 229.026C103.091 227.626 103.627 226.413 104.701 225.386C105.774 224.313 107.011 223.776 108.411 223.776C109.624 223.776 110.627 224.173 111.421 224.966C112.214 225.759 112.611 226.763 112.611 227.976ZM97.8405 227.976C97.8405 229.329 97.3039 230.543 96.2305 231.616C95.1572 232.689 93.9205 233.226 92.5205 233.226C91.3539 233.226 90.3505 232.829 89.5105 232.036C88.7172 231.196 88.3205 230.193 88.3205 229.026C88.3205 227.626 88.8572 226.413 89.9305 225.386C91.0039 224.313 92.2405 223.776 93.6405 223.776C94.8539 223.776 95.8572 224.173 96.6505 224.966C97.4439 225.759 97.8405 226.763 97.8405 227.976ZM94.2705 272.076C88.9039 272.076 84.6339 270.723 81.4605 268.016C78.3339 265.309 76.7705 261.599 76.7705 256.886C76.7705 251.286 78.6372 246.503 82.3705 242.536C86.1039 238.569 90.7472 236.586 96.3005 236.586C100.734 236.586 104.374 237.963 107.221 240.716C110.067 243.423 111.491 247.086 111.491 251.706C111.491 253.853 111.257 255.673 110.791 257.166H85.6605V258.006C85.6605 259.686 86.4772 261.273 88.1105 262.766C89.7905 264.259 92.0539 265.006 94.9005 265.006C98.4005 265.006 101.247 264.166 103.441 262.486L106.241 268.576C102.834 270.909 98.8439 272.076 94.2705 272.076ZM86.5705 251.146H103.511V250.446C103.511 248.579 102.834 246.993 101.481 245.686C100.174 244.333 98.2605 243.656 95.7405 243.656C93.4539 243.656 91.4472 244.426 89.7205 245.966C88.0405 247.459 86.9905 249.186 86.5705 251.146Z" fill="white"/>
<path d="M404.14 272.076C399.8 272.076 395.833 271.399 392.24 270.046C388.693 268.693 385.987 266.919 384.12 264.726L390.21 256.536C391.797 258.076 393.873 259.289 396.44 260.176C399.053 261.016 401.48 261.436 403.72 261.436C406.427 261.436 408.527 261.016 410.02 260.176C411.513 259.336 412.26 258.239 412.26 256.886C412.26 255.533 411.56 254.553 410.16 253.946C408.807 253.293 406.497 252.966 403.23 252.966H393.71V242.396H403.23C408.737 242.396 411.49 241.183 411.49 238.756C411.49 237.356 410.697 236.306 409.11 235.606C407.57 234.859 405.517 234.486 402.95 234.486C398.05 234.486 393.92 235.979 390.56 238.966L384.75 231.406C386.803 229.119 389.51 227.299 392.87 225.946C396.277 224.546 400.057 223.846 404.21 223.846C410.137 223.846 414.827 225.013 418.28 227.346C421.78 229.679 423.53 232.783 423.53 236.656C423.53 239.316 422.527 241.626 420.52 243.586C418.56 245.499 416.157 246.689 413.31 247.156C416.11 247.436 418.63 248.579 420.87 250.586C423.157 252.546 424.3 255.089 424.3 258.216C424.3 262.276 422.41 265.613 418.63 268.226C414.85 270.793 410.02 272.076 404.14 272.076ZM443.132 272.076C436.225 272.076 430.905 270.279 427.172 266.686L432.002 260.316C435.082 262.649 438.792 263.816 443.132 263.816C446.865 263.816 448.732 262.929 448.732 261.156C448.732 259.196 446.702 258.216 442.642 258.216H435.992V250.166H442.642C446.282 250.166 448.102 249.233 448.102 247.366C448.102 246.619 447.612 246.013 446.632 245.546C445.652 245.079 444.368 244.846 442.782 244.846C438.675 244.846 435.338 246.059 432.772 248.486L427.592 242.326C431.372 238.546 436.248 236.656 442.222 236.656C447.682 236.609 451.858 237.426 454.752 239.106C457.692 240.786 459.185 243.096 459.232 246.036C459.232 247.949 458.368 249.629 456.642 251.076C454.962 252.523 452.908 253.456 450.482 253.876C452.815 254.016 454.962 254.809 456.922 256.256C458.882 257.703 459.862 259.569 459.862 261.856C459.908 264.889 458.415 267.339 455.382 269.206C452.348 271.073 448.265 272.029 443.132 272.076Z" fill="white"/>
<path d="M741.36 271.236H727.78V224.546H741.92V249.466L758.16 224.546H772.72V271.236H758.58V244.776L741.36 271.236ZM762.5 216.706C759.467 220.813 755.383 222.866 750.25 222.866C745.163 222.866 741.057 220.813 737.93 216.706L743.25 212.366C745.023 214.839 747.357 216.076 750.25 216.076C753.19 216.076 755.523 214.839 757.25 212.366L762.5 216.706ZM792.04 271.236H780V237.426H792.6V252.476L802.75 237.426H815.49V271.236H802.89V255.206L792.04 271.236ZM810.03 228.396C806.997 232.503 802.913 234.556 797.78 234.556C792.693 234.556 788.587 232.503 785.46 228.396L790.78 224.056C792.553 226.529 794.887 227.766 797.78 227.766C800.72 227.766 803.053 226.529 804.78 224.056L810.03 228.396Z" fill="white"/>
<path d="M947.45 271.236H930.93L923.72 254.366L920.01 258.286L917.14 271.236H903L913.29 224.546H927.43L923.79 241.066L938.98 224.546H956.97L934.57 246.246L947.45 271.236ZM986.013 271.236H970.893L967.323 260.106L963.963 263.606L962.283 271.236H949.683L957.173 237.426H969.773L967.183 248.766L977.123 237.426H992.733L977.683 252.826L986.013 271.236Z" fill="white"/>
<path d="M562.04 271.236H550.42L560.71 224.546H572.75L566.94 251.076L591.65 224.546H604.11L593.82 271.236H581.71L587.87 243.376L562.04 271.236ZM612.246 271.236H601.956L609.376 237.426H620.156L616.236 255.136L632.196 237.426H643.046L635.626 271.236H624.846L628.906 252.616L612.246 271.236Z" fill="white"/>
</svg>
