<svg width="1020" height="324" viewBox="0 0 1020 324" fill="none" xmlns="http://www.w3.org/2000/svg">
<rect x="1" y="1" width="145.632" height="145.632" stroke="white" stroke-width="2"/>
<rect x="175" y="1" width="145.632" height="145.632" stroke="white" stroke-width="2"/>
<rect x="350" y="1" width="145.632" height="145.632" stroke="white" stroke-width="2"/>
<rect x="524" y="1" width="145.632" height="145.632" stroke="white" stroke-width="2"/>
<rect x="699" y="1" width="145.632" height="145.632" stroke="white" stroke-width="2"/>
<rect x="873" y="1" width="145.632" height="145.632" stroke="white" stroke-width="2"/>
<rect x="1" y="177" width="145.632" height="145.632" fill="white" stroke="white" stroke-width="2"/>
<rect x="175" y="177" width="145.632" height="145.632" stroke="white" stroke-width="2"/>
<rect x="524" y="177" width="145.632" height="145.632" stroke="white" stroke-width="2"/>
<rect x="350" y="177" width="145.632" height="145.632" fill="white" stroke="white" stroke-width="2"/>
<rect x="699" y="177" width="145.632" height="145.632" fill="white" stroke="white" stroke-width="2"/>
<rect x="873" y="177" width="145.632" height="145.632" stroke="white" stroke-width="2"/>
<path d="M72.03 95H68.11L66.08 83.38H55.58L53.55 95H49.63L58.66 48.31H63L72.03 95ZM65.59 79.95L60.83 53.14L56.07 79.95H65.59ZM93.5123 95H90.0823V91.43C88.6357 94.37 86.5123 95.84 83.7123 95.84C81.1457 95.84 79.0923 94.79 77.5523 92.69C76.0123 90.59 75.2423 87.8833 75.2423 84.57C75.2423 81.2567 76.0123 78.5733 77.5523 76.52C79.0923 74.42 81.1457 73.37 83.7123 73.37C86.559 73.37 88.6823 74.77 90.0823 77.57V71.2C90.0823 68.54 89.6857 66.58 88.8923 65.32C88.099 64.0133 86.7223 63.36 84.7623 63.36C82.3823 63.36 80.189 64.5733 78.1823 67L76.5023 64.48C79.1157 61.7267 81.9857 60.35 85.1123 60.35C88.099 60.35 90.2457 61.19 91.5523 62.87C92.859 64.55 93.5123 67.1867 93.5123 70.78V95ZM84.3423 93.18C87.049 93.18 88.9623 91.57 90.0823 88.35V80.93C88.9623 77.71 87.049 76.1 84.3423 76.1C82.569 76.1 81.1923 76.9167 80.2123 78.55C79.279 80.1833 78.8123 82.2133 78.8123 84.64C78.8123 87.02 79.279 89.05 80.2123 90.73C81.1923 92.3633 82.569 93.18 84.3423 93.18Z" fill="white"/>
<path d="M234.48 48.31H248.48L248.06 50.41H236.3L232.31 68.54H236.37C238.563 68.54 240.36 69.4033 241.76 71.13C243.16 72.8567 243.86 75.1667 243.86 78.06C243.86 82.4 242.717 86.32 240.43 89.82C238.143 93.2733 235.017 95 231.05 95H224.26L234.48 48.31ZM235.88 70.64H231.82L226.92 92.9H231.4C234.573 92.9 237.023 91.3833 238.75 88.35C240.523 85.3167 241.41 81.8867 241.41 78.06C241.41 75.5867 240.897 73.7433 239.87 72.53C238.89 71.27 237.56 70.64 235.88 70.64ZM256.097 93.95C258.197 93.95 260.134 92.48 261.907 89.54C263.681 86.6 264.964 83.3567 265.757 79.81C266.597 76.2167 267.017 73.02 267.017 70.22C267.017 64.9 265.407 62.24 262.187 62.24C260.087 62.24 258.151 63.7333 256.377 66.72C254.604 69.66 253.297 72.9267 252.457 76.52C251.664 80.0667 251.267 83.24 251.267 86.04C251.267 91.3133 252.877 93.95 256.097 93.95ZM255.957 95.84C251.337 95.84 249.027 92.5733 249.027 86.04C249.027 81.2333 250.357 74.56 253.017 66.02C254.417 61.5867 256.097 58.32 258.057 56.22C260.064 54.0733 263.214 52.4633 267.507 51.39C270.027 50.7833 271.451 49.7567 271.777 48.31H273.877C273.411 50.69 271.054 52.44 266.807 53.56C263.121 54.4933 260.484 55.94 258.897 57.9C257.311 59.86 255.841 63.01 254.487 67.35C256.727 62.6833 259.481 60.35 262.747 60.35C264.707 60.35 266.271 61.1433 267.437 62.73C268.651 64.27 269.257 66.7433 269.257 70.15C269.257 72.67 268.977 75.3767 268.417 78.27C267.857 81.1167 267.041 83.87 265.967 86.53C264.941 89.19 263.541 91.4067 261.767 93.18C259.994 94.9533 258.057 95.84 255.957 95.84Z" fill="white"/>
<path d="M410.44 95H401.76V48.31H410.16C413.147 48.31 415.48 49.36 417.16 51.46C418.84 53.56 419.68 56.4767 419.68 60.21C419.68 65.8567 417.767 69.4267 413.94 70.92C415.807 71.2467 417.323 72.53 418.49 74.77C419.703 77.01 420.31 79.5533 420.31 82.4C420.31 86.4133 419.493 89.5167 417.86 91.71C416.227 93.9033 413.753 95 410.44 95ZM409.6 69.38C413.707 69.38 415.76 66.44 415.76 60.56C415.76 54.68 413.707 51.74 409.6 51.74H405.47V69.38H409.6ZM409.88 91.57C414.22 91.57 416.39 88.4433 416.39 82.19C416.39 79.4833 415.853 77.2433 414.78 75.47C413.753 73.65 412.12 72.74 409.88 72.74H405.47V91.57H409.88ZM436.4 95H427.93V61.19H436.12C438.827 61.19 440.927 61.96 442.42 63.5C443.913 65.04 444.66 67.1633 444.66 69.87C444.66 73.7433 443.097 76.2867 439.97 77.5C441.51 77.92 442.747 78.9233 443.68 80.51C444.66 82.0967 445.15 83.87 445.15 85.83C445.15 91.9433 442.233 95 436.4 95ZM435.98 92.2C439.667 92.2 441.51 90.0067 441.51 85.62C441.51 83.7533 441.067 82.19 440.18 80.93C439.293 79.67 437.893 79.04 435.98 79.04H431.36V92.2H435.98ZM435.7 76.17C439.2 76.17 440.95 74.1633 440.95 70.15C440.95 66.0433 439.2 63.99 435.7 63.99H431.36V76.17H435.7Z" fill="white"/>
<path d="M578.5 95H576.26L586.55 48.31H601.25L600.83 50.41H588.37L578.5 95ZM619.035 61.19L618.615 63.08H607.975L600.975 95H598.875L606.295 61.19H619.035Z" fill="white"/>
<path d="M744.19 103.61V91.92C745.59 91.78 746.663 91.36 747.41 90.66C748.203 89.96 748.927 88.2567 749.58 85.55C750.28 82.8433 750.793 78.8533 751.12 73.58L752.66 48.31H767.36V91.57H771.7V103.61H767.92V95H747.97V103.61H744.19ZM754.83 73.93C754.223 83.1233 752.707 89.0033 750.28 91.57H763.65V51.74H756.16L754.83 73.93ZM775.162 103.61V92.27C776.702 92.0833 777.868 91.1733 778.662 89.54C779.502 87.86 780.132 84.3833 780.552 79.11L781.812 61.19H794.762V91.92H798.752V103.61H795.252V95H778.592V103.61H775.162ZM785.102 64.2L783.982 79.53C783.468 85.97 782.278 90.1 780.412 91.92H791.262V64.2H785.102Z" fill="white"/>
<path d="M937.96 95H923.26L933.55 48.31H948.25L947.83 50.41H935.37L931.03 69.94H943L942.51 72.04H930.54L925.92 92.9H938.38L937.96 95ZM955.535 95.84C952.969 95.84 950.939 94.9533 949.445 93.18C947.999 91.4067 947.275 88.7467 947.275 85.2C947.275 83.52 947.485 81.4433 947.905 78.97C948.372 76.45 949.049 73.7433 949.935 70.85C950.869 67.91 952.245 65.4367 954.065 63.43C955.932 61.3767 958.055 60.35 960.435 60.35C965.149 60.35 967.505 63.5233 967.505 69.87C967.505 72.7633 967.085 75.7267 966.245 78.76H950.285C949.819 80.9533 949.585 83.0767 949.585 85.13C949.585 87.8833 950.075 90.0533 951.055 91.64C952.082 93.18 953.552 93.95 955.465 93.95C957.659 93.95 959.735 92.4567 961.695 89.47L963.305 90.8C960.879 94.16 958.289 95.84 955.535 95.84ZM950.635 76.87H964.425C964.985 74.21 965.265 71.97 965.265 70.15C965.265 67.8633 964.845 65.9733 964.005 64.48C963.212 62.9867 961.975 62.24 960.295 62.24C958.615 62.24 957.075 63.1033 955.675 64.83C954.275 66.51 953.179 68.3767 952.385 70.43C951.639 72.4833 951.055 74.63 950.635 76.87Z" fill="white"/>
<path d="M68.61 213.67C69.4967 214.51 69.94 215.513 69.94 216.68C69.94 217.847 69.4967 218.85 68.61 219.69C67.77 220.53 66.7433 220.95 65.53 220.95C64.3633 220.95 63.36 220.553 62.52 219.76C61.68 218.92 61.26 217.893 61.26 216.68C61.26 215.467 61.68 214.44 62.52 213.6C63.36 212.76 64.3633 212.34 65.53 212.34C66.7433 212.34 67.77 212.783 68.61 213.67ZM57.2 213.6C58.04 214.44 58.46 215.467 58.46 216.68C58.46 217.893 58.04 218.92 57.2 219.76C56.36 220.553 55.3333 220.95 54.12 220.95C52.9533 220.95 51.9267 220.53 51.04 219.69C50.2 218.85 49.78 217.847 49.78 216.68C49.78 215.513 50.2 214.51 51.04 213.67C51.9267 212.783 52.9533 212.34 54.12 212.34C55.3333 212.34 56.36 212.76 57.2 213.6ZM70.08 271H49.64V224.31H70.08V232.08H58.46V243.35H69.59V251.12H58.46V263.23H70.08V271ZM95.7651 225.36C96.6517 226.2 97.0951 227.203 97.0951 228.37C97.0951 229.537 96.6517 230.54 95.7651 231.38C94.9251 232.22 93.8984 232.64 92.6851 232.64C91.5184 232.64 90.5151 232.22 89.6751 231.38C88.8351 230.54 88.4151 229.537 88.4151 228.37C88.4151 227.157 88.8351 226.13 89.6751 225.29C90.5151 224.45 91.5184 224.03 92.6851 224.03C93.8984 224.03 94.9251 224.473 95.7651 225.36ZM84.3551 225.29C85.1951 226.13 85.6151 227.157 85.6151 228.37C85.6151 229.583 85.1951 230.61 84.3551 231.45C83.5151 232.243 82.4884 232.64 81.2751 232.64C80.1084 232.64 79.0817 232.22 78.1951 231.38C77.3551 230.54 76.9351 229.537 76.9351 228.37C76.9351 227.203 77.3551 226.2 78.1951 225.36C79.0817 224.473 80.1084 224.03 81.2751 224.03C82.4884 224.03 83.5151 224.45 84.3551 225.29ZM87.7851 271.84C83.4917 271.84 80.1784 270.207 77.8451 266.94C75.5117 263.673 74.3451 259.38 74.3451 254.06C74.3451 248.927 75.4417 244.703 77.6351 241.39C79.8284 238.03 82.9551 236.35 87.0151 236.35C91.0751 236.35 94.1084 237.96 96.1151 241.18C98.1217 244.4 99.1251 248.647 99.1251 253.92V256.65H81.9751C82.0217 259.263 82.6051 261.387 83.7251 263.02C84.8451 264.607 86.4784 265.4 88.6251 265.4C90.7251 265.4 92.5917 264.28 94.2251 262.04L98.0751 266.45C95.2751 270.043 91.8451 271.84 87.7851 271.84ZM91.4951 251.12C91.4951 245.567 89.9317 242.79 86.8051 242.79C85.0784 242.79 83.8417 243.63 83.0951 245.31C82.3484 246.99 81.9751 248.927 81.9751 251.12H91.4951Z" fill="black"/>
<path d="M213.72 271H203.43L221.07 246.29L214.56 224.31H223.8L228 242.3L231.92 224.31H240.74L237.17 240.41L248.09 224.31H258.17L242 246.29L248.72 271H239.13L235.56 252.73L234.02 254.9L230.52 271H221.7L225.2 254.97L224.85 253.57L213.72 271ZM256.625 271H247.525L259.985 252.17L255.295 237.19H263.555L266.845 249.16L269.505 237.19H277.415L275.105 247.62L282.665 237.19H291.695L280.285 252.17L284.555 271H276.295L274.125 257.14L272.585 259.1L269.995 271H262.085L264.675 259.24L264.255 257.91L256.625 271Z" fill="white"/>
<path d="M410.09 271.84C407.57 271.84 405.353 271.117 403.44 269.67C401.527 268.177 400.057 266.287 399.03 264L402.95 261.13C404.677 265.097 406.987 267.08 409.88 267.08C413.847 267.08 415.83 264.07 415.83 258.05C415.83 255.11 415.2 252.94 413.94 251.54C412.727 250.14 411.233 249.44 409.46 249.44H404.28V244.68H409.11C410.977 244.68 412.47 244.003 413.59 242.65C414.71 241.297 415.27 239.337 415.27 236.77C415.27 231.17 413.403 228.37 409.67 228.37C407.01 228.37 404.91 230.19 403.37 233.83L399.52 231.17C400.593 228.743 402.063 226.877 403.93 225.57C405.843 224.263 407.92 223.61 410.16 223.61C413.427 223.61 416.017 224.637 417.93 226.69C419.843 228.743 420.8 231.847 420.8 236C420.8 238.567 420.17 240.877 418.91 242.93C417.65 244.937 415.853 246.267 413.52 246.92C415.9 247.34 417.79 248.623 419.19 250.77C420.59 252.87 421.29 255.413 421.29 258.4C421.29 262.46 420.333 265.727 418.42 268.2C416.507 270.627 413.73 271.84 410.09 271.84ZM435.825 271.84C431.252 271.84 427.869 269.997 425.675 266.31L428.475 263.65C430.155 266.497 432.535 267.92 435.615 267.92C437.435 267.92 438.859 267.337 439.885 266.17C440.912 265.003 441.425 263.463 441.425 261.55C441.425 257.77 439.465 255.88 435.545 255.88H430.505V251.89H435.405C437.132 251.89 438.509 251.377 439.535 250.35C440.562 249.277 441.075 247.807 441.075 245.94C441.075 244.167 440.539 242.79 439.465 241.81C438.392 240.783 436.969 240.27 435.195 240.27C432.395 240.27 430.272 241.67 428.825 244.47L425.955 241.74C428.102 238.147 431.182 236.35 435.195 236.35C438.322 236.35 440.865 237.19 442.825 238.87C444.785 240.503 445.765 242.697 445.765 245.45C445.765 247.317 445.205 249.067 444.085 250.7C442.965 252.333 441.472 253.36 439.605 253.78C441.472 254.107 443.035 255.017 444.295 256.51C445.555 258.003 446.185 259.823 446.185 261.97C446.185 264.817 445.275 267.173 443.455 269.04C441.635 270.907 439.092 271.84 435.825 271.84Z" fill="black"/>
<path d="M751.35 271H739.87V224.31H752.19V242.51L758.91 224.31H771.3V271H758.91V251.61L751.35 271ZM764.65 217.1C762.503 220.133 759.493 221.65 755.62 221.65C751.84 221.65 748.83 220.133 746.59 217.1L751.49 213.46C752.47 214.907 753.847 215.63 755.62 215.63C757.393 215.63 758.77 214.907 759.75 213.46L764.65 217.1ZM787.206 271H776.706V237.19H787.766V249.93L792.806 237.19H804.076V271H793.016V257.14L787.206 271ZM799.456 228.79C797.309 231.823 794.299 233.34 790.426 233.34C786.646 233.34 783.636 231.823 781.396 228.79L786.296 225.15C787.276 226.597 788.653 227.32 790.426 227.32C792.199 227.32 793.576 226.597 794.556 225.15L799.456 228.79Z" fill="black"/>
<path d="M945.25 271H932.3L929.71 255.39L925.58 261.41L923.48 271H911.09L921.38 224.31H933.77L929.99 241.67L940.7 224.31H954.77L939.02 246.08L945.25 271ZM976.429 271H964.459L963.339 259.17L959.979 263.86L958.439 271H947.379L954.869 237.19H965.929L963.269 249.16L970.899 237.19H983.289L972.439 252.1L976.429 271Z" fill="white"/>
<path d="M572.38 271H562.51L572.8 224.31H583.37L578.54 245.87L591.21 224.31H601.78L591.49 271H580.92L585.82 248.32L572.38 271ZM606.667 271H597.567L604.987 237.19H614.507L611.147 252.38L620.457 237.19H630.187L622.767 271H613.317L616.817 254.83L606.667 271Z" fill="white"/>
</svg>
