<svg width="762" height="252" viewBox="0 0 762 252" fill="none" xmlns="http://www.w3.org/2000/svg">
<path d="M24.2663 61H5.85633V41.61H0.0463282V34.26H5.85633V14.31H24.2663C31.593 14.31 37.543 16.4567 42.1163 20.75C46.7363 25.0433 49.0463 30.69 49.0463 37.69C49.0463 44.69 46.7597 50.3367 42.1863 54.63C37.613 58.8767 31.6397 61 24.2663 61ZM24.2663 52.25C28.7463 52.25 32.293 50.85 34.9063 48.05C37.5663 45.25 38.8963 41.7967 38.8963 37.69C38.8963 33.3967 37.613 29.8967 35.0463 27.19C32.4797 24.4367 28.8863 23.06 24.2663 23.06H15.7963V34.26H26.2263V41.61H15.7963V52.25H24.2663ZM65.9995 61H56.0595V14.31H65.9995V21.87H77.8995C82.7995 21.87 86.6261 23.3167 89.3795 26.21C92.1795 29.1033 93.5795 32.6967 93.5795 36.99C93.5795 41.2367 92.1795 44.7833 89.3795 47.63C86.5795 50.4767 82.7528 51.9 77.8995 51.9H65.9995V61ZM76.4295 43.15C78.4828 43.15 80.1628 42.59 81.4695 41.47C82.7761 40.35 83.4295 38.8333 83.4295 36.92C83.4295 35.0067 82.7528 33.49 81.3995 32.37C80.0928 31.2033 78.4361 30.62 76.4295 30.62H65.9995V43.15H76.4295ZM119.898 61H109.958V41.89L91.9684 14.31H103.308L114.928 33.07L126.408 14.31H137.748L119.898 41.89V61ZM128.018 0.309997L116.678 10.39H110.448L119.828 0.309997H128.018ZM180.879 61H169.539L166.669 53.09H146.649L143.709 61H132.369L150.429 14.31H162.889L180.879 61ZM163.939 44.34L156.659 24.25L149.379 44.34H163.939ZM169.329 9.97H143.919V4.93H169.329V9.97ZM215.838 10.39H210.378L205.268 4.16L200.298 10.39H194.838L201.278 0.309997H209.258L215.838 10.39ZM205.408 61.84C198.314 61.84 192.388 59.6 187.628 55.12C182.914 50.5933 180.558 44.7833 180.558 37.69C180.558 30.5967 182.914 24.81 187.628 20.33C192.388 15.8033 198.314 13.54 205.408 13.54C214.134 13.54 220.644 17.3433 224.938 24.95L216.398 29.15C215.371 27.19 213.854 25.58 211.848 24.32C209.888 23.0133 207.741 22.36 205.408 22.36C201.161 22.36 197.661 23.8067 194.908 26.7C192.154 29.5933 190.778 33.2567 190.778 37.69C190.778 42.1233 192.154 45.7867 194.908 48.68C197.661 51.5733 201.161 53.02 205.408 53.02C207.741 53.02 209.888 52.39 211.848 51.13C213.854 49.87 215.371 48.2367 216.398 46.23L224.938 50.36C220.504 58.0133 213.994 61.84 205.408 61.84ZM251.014 61H232.604V41.61H226.794V34.26H232.604V14.31H251.014C258.341 14.31 264.291 16.4567 268.864 20.75C273.484 25.0433 275.794 30.69 275.794 37.69C275.794 44.69 273.508 50.3367 268.934 54.63C264.361 58.8767 258.388 61 251.014 61ZM251.014 52.25C255.494 52.25 259.041 50.85 261.654 48.05C264.314 45.25 265.644 41.7967 265.644 37.69C265.644 33.3967 264.361 29.8967 261.794 27.19C259.228 24.4367 255.634 23.06 251.014 23.06H242.544V34.26H252.974V41.61H242.544V52.25H251.014ZM315.848 61C312.581 62.6333 310.948 64.7333 310.948 67.3C310.948 68.3267 311.181 69.0733 311.648 69.54C312.161 70.0533 312.791 70.31 313.537 70.31C314.984 70.31 315.988 69.4933 316.548 67.86L320.118 70.1C318.671 72.7133 316.478 74.02 313.537 74.02C311.531 74.02 309.851 73.4833 308.498 72.41C307.191 71.3833 306.538 69.82 306.538 67.72C306.538 65.1067 307.588 62.8667 309.688 61H282.807V14.31H315.848V23.06H292.748V32.93H315.358V41.68H292.748V52.25H315.848V61ZM348.958 74.72C343.731 74.72 339.531 73.2033 336.358 70.17L340.768 62.54C343.008 64.78 345.481 65.9 348.188 65.9C350.055 65.9 351.618 65.3867 352.878 64.36C354.138 63.38 354.931 62.0267 355.258 60.3L333.558 30.55V61H323.618V14.31H333.838L355.468 43.64V14.31H365.408V58.62C365.408 63.94 363.915 67.9533 360.928 70.66C357.941 73.3667 353.951 74.72 348.958 74.72ZM397.224 61.91C390.224 61.91 384.321 59.67 379.514 55.19C374.754 50.71 372.374 44.8767 372.374 37.69C372.374 30.4567 374.754 24.6233 379.514 20.19C384.321 15.7567 390.224 13.54 397.224 13.54C405.717 13.54 412.157 17.0167 416.544 23.97L408.284 28.45C407.164 26.6767 405.624 25.23 403.664 24.11C401.751 22.9433 399.604 22.36 397.224 22.36C392.977 22.36 389.477 23.8067 386.724 26.7C383.971 29.5933 382.594 33.2567 382.594 37.69C382.594 42.1233 383.971 45.7867 386.724 48.68C389.477 51.5733 392.977 53.02 397.224 53.02C399.184 53.02 401.074 52.67 402.894 51.97C404.714 51.27 406.137 50.43 407.164 49.45V43.85H394.844V35.17H417.104V53.09C411.831 58.97 405.204 61.91 397.224 61.91ZM397.364 11.3C396.011 11.3 394.867 10.8333 393.934 9.9C393.047 8.96666 392.604 7.84666 392.604 6.54C392.604 5.23333 393.071 4.11333 394.004 3.18C394.937 2.24667 396.057 1.78 397.364 1.78C398.624 1.78 399.721 2.24667 400.654 3.18C401.587 4.11333 402.054 5.23333 402.054 6.54C402.054 7.84666 401.587 8.96666 400.654 9.9C399.721 10.8333 398.624 11.3 397.364 11.3ZM467.555 61H457.545V41.4H435.495V61H425.555V26.14H420.935V21.1H425.555V14.31H435.495V21.1H457.545V14.31H467.555V21.1H472.105V26.14H467.555V61ZM435.495 32.65H457.545V26.14H435.495V32.65ZM487.298 61H477.358V14.31H487.298V61ZM494.788 5.98C491.755 10.0867 487.672 12.14 482.538 12.14C477.452 12.14 473.345 10.0867 470.218 5.98L474.138 2.69C476.192 5.58333 478.992 7.03 482.538 7.03C485.992 7.03 488.768 5.58333 490.868 2.69L494.788 5.98ZM519.597 70.66C519.597 74.9067 517.661 78.4067 513.787 81.16L510.707 78.71C511.687 78.15 512.621 77.3333 513.507 76.26C514.394 75.1867 514.931 74.16 515.117 73.18C514.931 73.2733 514.581 73.32 514.067 73.32C512.994 73.32 512.107 72.9467 511.407 72.2C510.707 71.5 510.357 70.5667 510.357 69.4C510.357 68.1867 510.777 67.1367 511.617 66.25C512.457 65.41 513.461 64.99 514.627 64.99C515.981 64.99 517.147 65.5033 518.127 66.53C519.107 67.5567 519.597 68.9333 519.597 70.66ZM536.537 61H524.287L510.147 42.31L506.507 46.65V61H496.567V14.31H506.507V35.17L523.027 14.31H535.277L516.727 36.22L536.537 61ZM566.808 19.07C566.808 23.3167 564.871 26.8167 560.998 29.57L557.918 27.12C558.898 26.56 559.831 25.7433 560.718 24.67C561.605 23.5967 562.141 22.57 562.328 21.59C562.141 21.6833 561.791 21.73 561.278 21.73C560.205 21.73 559.318 21.38 558.618 20.68C557.918 19.9333 557.568 18.9767 557.568 17.81C557.568 16.5967 557.988 15.57 558.828 14.73C559.668 13.8433 560.671 13.4 561.838 13.4C563.191 13.4 564.358 13.9133 565.338 14.94C566.318 15.9667 566.808 17.3433 566.808 19.07ZM571.638 61H541.958V14.31H551.898V52.25H571.638V61ZM605.409 0.309997L597.359 10.39H592.179L598.269 0.309997H605.409ZM615.839 0.309997L607.789 10.39H602.609L608.699 0.309997H615.839ZM600.719 61.84C593.672 61.84 587.839 59.5767 583.219 55.05C578.645 50.4767 576.359 44.69 576.359 37.69C576.359 30.69 578.645 24.9267 583.219 20.4C587.839 15.8267 593.672 13.54 600.719 13.54C607.812 13.54 613.645 15.8033 618.219 20.33C622.839 24.8567 625.149 30.6433 625.149 37.69C625.149 44.7367 622.839 50.5233 618.219 55.05C613.645 59.5767 607.812 61.84 600.719 61.84ZM590.429 48.68C593.042 51.5733 596.472 53.02 600.719 53.02C604.965 53.02 608.395 51.5733 611.009 48.68C613.622 45.7867 614.929 42.1233 614.929 37.69C614.929 33.2567 613.622 29.5933 611.009 26.7C608.395 23.8067 604.965 22.36 600.719 22.36C596.472 22.36 593.042 23.8067 590.429 26.7C587.862 29.5933 586.579 33.2567 586.579 37.69C586.579 42.1233 587.862 45.7867 590.429 48.68ZM647.944 74.72C644.677 74.72 642.111 73.9733 640.244 72.48L641.994 68.91C643.767 70.2633 645.657 70.94 647.664 70.94C648.691 70.94 649.554 70.73 650.254 70.31C650.954 69.9367 651.304 69.3767 651.304 68.63C651.304 67.4167 650.627 66.81 649.274 66.81C648.434 66.81 647.687 67.1367 647.034 67.79L643.814 65.97L645.354 61.7C638.541 61.0467 633.081 58.62 628.974 54.42L634.364 46.86C638.377 51.06 643.324 53.16 649.204 53.16C651.771 53.16 653.754 52.67 655.154 51.69C656.601 50.6633 657.324 49.4267 657.324 47.98C657.324 46.72 656.647 45.67 655.294 44.83C653.987 43.99 652.331 43.3833 650.324 43.01C648.364 42.6367 646.217 42.1 643.884 41.4C641.551 40.7 639.381 39.9067 637.374 39.02C635.414 38.1333 633.757 36.7333 632.404 34.82C631.097 32.9067 630.444 30.5733 630.444 27.82C630.444 23.8067 632.054 20.4467 635.274 17.74C638.494 14.9867 642.787 13.61 648.154 13.61C655.574 13.61 661.641 15.78 666.354 20.12L660.824 27.4C657.137 23.9933 652.611 22.29 647.244 22.29C645.144 22.29 643.511 22.71 642.344 23.55C641.177 24.39 640.594 25.5333 640.594 26.98C640.594 28.1 641.247 29.0567 642.554 29.85C643.907 30.5967 645.564 31.1567 647.524 31.53C649.531 31.9033 651.677 32.4633 653.964 33.21C656.297 33.91 658.444 34.7267 660.404 35.66C662.411 36.5467 664.067 37.97 665.374 39.93C666.727 41.8433 667.404 44.1533 667.404 46.86C667.404 51.2 665.887 54.7467 662.854 57.5C659.821 60.2067 655.411 61.6533 649.624 61.84L648.504 64.57C649.297 64.1033 650.137 63.87 651.024 63.87C652.331 63.87 653.427 64.3133 654.314 65.2C655.247 66.1333 655.714 67.3233 655.714 68.77C655.714 70.59 654.967 72.0367 653.474 73.11C651.981 74.1833 650.137 74.72 647.944 74.72ZM685.157 23.06L699.087 37.13L684.667 52.25H707.277V61H672.627V52.25L686.837 37.2L672.697 23.06V14.31H707.277V23.06H685.157ZM712.312 69.61V53.02C714.086 52.7867 715.462 52.32 716.442 51.62C717.469 50.92 718.402 49.4967 719.242 47.35C720.082 45.2033 720.736 42.1467 721.202 38.18L723.932 14.31H757.112V52.25H761.312V69.61H751.372V61H722.252V69.61H712.312ZM731.072 38.88C730.419 44.9 728.529 49.3567 725.402 52.25H747.102V23.06H732.892L731.072 38.88ZM30.282 146H11.872V126.61H6.06195V119.26H11.872V99.31H30.282C37.6086 99.31 43.5586 101.457 48.132 105.75C52.752 110.043 55.062 115.69 55.062 122.69C55.062 129.69 52.7753 135.337 48.202 139.63C43.6286 143.877 37.6553 146 30.282 146ZM30.282 137.25C34.762 137.25 38.3086 135.85 40.922 133.05C43.582 130.25 44.912 126.797 44.912 122.69C44.912 118.397 43.6286 114.897 41.062 112.19C38.4953 109.437 34.902 108.06 30.282 108.06H21.812V119.26H32.242V126.61H21.812V137.25H30.282ZM72.0151 146H62.0751V99.31H72.0151V106.87H83.9151C88.8151 106.87 92.6417 108.317 95.3951 111.21C98.1951 114.103 99.5951 117.697 99.5951 121.99C99.5951 126.237 98.1951 129.783 95.3951 132.63C92.5951 135.477 88.7684 136.9 83.9151 136.9H72.0151V146ZM82.4451 128.15C84.4984 128.15 86.1784 127.59 87.4851 126.47C88.7917 125.35 89.4451 123.833 89.4451 121.92C89.4451 120.007 88.7684 118.49 87.4151 117.37C86.1084 116.203 84.4517 115.62 82.4451 115.62H72.0151V128.15H82.4451ZM125.914 146H115.974V126.89L97.984 99.31H109.324L120.944 118.07L132.424 99.31H143.764L125.914 126.89V146ZM134.034 85.31L122.694 95.39H116.464L125.844 85.31H134.034ZM186.894 146H175.554L172.684 138.09H152.664L149.724 146H138.384L156.444 99.31H168.904L186.894 146ZM169.954 129.34L162.674 109.25L155.394 129.34H169.954ZM175.344 94.97H149.934V89.93H175.344V94.97ZM221.853 95.39H216.393L211.283 89.16L206.313 95.39H200.853L207.293 85.31H215.273L221.853 95.39ZM211.423 146.84C204.33 146.84 198.403 144.6 193.643 140.12C188.93 135.593 186.573 129.783 186.573 122.69C186.573 115.597 188.93 109.81 193.643 105.33C198.403 100.803 204.33 98.54 211.423 98.54C220.15 98.54 226.66 102.343 230.953 109.95L222.413 114.15C221.387 112.19 219.87 110.58 217.863 109.32C215.903 108.013 213.757 107.36 211.423 107.36C207.177 107.36 203.677 108.807 200.923 111.7C198.17 114.593 196.793 118.257 196.793 122.69C196.793 127.123 198.17 130.787 200.923 133.68C203.677 136.573 207.177 138.02 211.423 138.02C213.757 138.02 215.903 137.39 217.863 136.13C219.87 134.87 221.387 133.237 222.413 131.23L230.953 135.36C226.52 143.013 220.01 146.84 211.423 146.84ZM257.03 146H238.62V126.61H232.81V119.26H238.62V99.31H257.03C264.357 99.31 270.307 101.457 274.88 105.75C279.5 110.043 281.81 115.69 281.81 122.69C281.81 129.69 279.523 135.337 274.95 139.63C270.377 143.877 264.403 146 257.03 146ZM257.03 137.25C261.51 137.25 265.057 135.85 267.67 133.05C270.33 130.25 271.66 126.797 271.66 122.69C271.66 118.397 270.377 114.897 267.81 112.19C265.243 109.437 261.65 108.06 257.03 108.06H248.56V119.26H258.99V126.61H248.56V137.25H257.03ZM321.863 146C318.596 147.633 316.963 149.733 316.963 152.3C316.963 153.327 317.196 154.073 317.663 154.54C318.176 155.053 318.806 155.31 319.553 155.31C321 155.31 322.003 154.493 322.563 152.86L326.133 155.1C324.686 157.713 322.493 159.02 319.553 159.02C317.546 159.02 315.866 158.483 314.513 157.41C313.206 156.383 312.553 154.82 312.553 152.72C312.553 150.107 313.603 147.867 315.703 146H288.823V99.31H321.863V108.06H298.763V117.93H321.373V126.68H298.763V137.25H321.863V146ZM354.974 159.72C349.747 159.72 345.547 158.203 342.374 155.17L346.784 147.54C349.024 149.78 351.497 150.9 354.204 150.9C356.07 150.9 357.634 150.387 358.894 149.36C360.154 148.38 360.947 147.027 361.274 145.3L339.574 115.55V146H329.634V99.31H339.854L361.484 128.64V99.31H371.424V143.62C371.424 148.94 369.93 152.953 366.944 155.66C363.957 158.367 359.967 159.72 354.974 159.72ZM403.24 146.91C396.24 146.91 390.336 144.67 385.53 140.19C380.77 135.71 378.39 129.877 378.39 122.69C378.39 115.457 380.77 109.623 385.53 105.19C390.336 100.757 396.24 98.54 403.24 98.54C411.733 98.54 418.173 102.017 422.56 108.97L414.3 113.45C413.18 111.677 411.64 110.23 409.68 109.11C407.766 107.943 405.62 107.36 403.24 107.36C398.993 107.36 395.493 108.807 392.74 111.7C389.986 114.593 388.61 118.257 388.61 122.69C388.61 127.123 389.986 130.787 392.74 133.68C395.493 136.573 398.993 138.02 403.24 138.02C405.2 138.02 407.09 137.67 408.91 136.97C410.73 136.27 412.153 135.43 413.18 134.45V128.85H400.86V120.17H423.12V138.09C417.846 143.97 411.22 146.91 403.24 146.91ZM403.38 96.3C402.026 96.3 400.883 95.8333 399.95 94.9C399.063 93.9667 398.62 92.8467 398.62 91.54C398.62 90.2333 399.086 89.1133 400.02 88.18C400.953 87.2467 402.073 86.78 403.38 86.78C404.64 86.78 405.736 87.2467 406.67 88.18C407.603 89.1133 408.07 90.2333 408.07 91.54C408.07 92.8467 407.603 93.9667 406.67 94.9C405.736 95.8333 404.64 96.3 403.38 96.3ZM473.571 146H463.561V126.4H441.511V146H431.571V111.14H426.951V106.1H431.571V99.31H441.511V106.1H463.561V99.31H473.571V106.1H478.121V111.14H473.571V146ZM441.511 117.65H463.561V111.14H441.511V117.65ZM493.314 146H483.374V99.31H493.314V146ZM500.804 90.98C497.771 95.0867 493.687 97.14 488.554 97.14C483.467 97.14 479.361 95.0867 476.234 90.98L480.154 87.69C482.207 90.5833 485.007 92.03 488.554 92.03C492.007 92.03 494.784 90.5833 496.884 87.69L500.804 90.98ZM525.613 155.66C525.613 159.907 523.676 163.407 519.803 166.16L516.723 163.71C517.703 163.15 518.636 162.333 519.523 161.26C520.41 160.187 520.946 159.16 521.133 158.18C520.946 158.273 520.596 158.32 520.083 158.32C519.01 158.32 518.123 157.947 517.423 157.2C516.723 156.5 516.373 155.567 516.373 154.4C516.373 153.187 516.793 152.137 517.633 151.25C518.473 150.41 519.476 149.99 520.643 149.99C521.996 149.99 523.163 150.503 524.143 151.53C525.123 152.557 525.613 153.933 525.613 155.66ZM542.553 146H530.303L516.163 127.31L512.523 131.65V146H502.583V99.31H512.523V120.17L529.043 99.31H541.293L522.743 121.22L542.553 146ZM572.824 104.07C572.824 108.317 570.887 111.817 567.014 114.57L563.934 112.12C564.914 111.56 565.847 110.743 566.734 109.67C567.62 108.597 568.157 107.57 568.344 106.59C568.157 106.683 567.807 106.73 567.294 106.73C566.22 106.73 565.334 106.38 564.634 105.68C563.934 104.933 563.584 103.977 563.584 102.81C563.584 101.597 564.004 100.57 564.844 99.73C565.684 98.8433 566.687 98.4 567.854 98.4C569.207 98.4 570.374 98.9133 571.354 99.94C572.334 100.967 572.824 102.343 572.824 104.07ZM577.654 146H547.974V99.31H557.914V137.25H577.654V146ZM611.424 85.31L603.374 95.39H598.194L604.284 85.31H611.424ZM621.854 85.31L613.804 95.39H608.624L614.714 85.31H621.854ZM606.734 146.84C599.687 146.84 593.854 144.577 589.234 140.05C584.661 135.477 582.374 129.69 582.374 122.69C582.374 115.69 584.661 109.927 589.234 105.4C593.854 100.827 599.687 98.54 606.734 98.54C613.827 98.54 619.661 100.803 624.234 105.33C628.854 109.857 631.164 115.643 631.164 122.69C631.164 129.737 628.854 135.523 624.234 140.05C619.661 144.577 613.827 146.84 606.734 146.84ZM596.444 133.68C599.057 136.573 602.487 138.02 606.734 138.02C610.981 138.02 614.411 136.573 617.024 133.68C619.637 130.787 620.944 127.123 620.944 122.69C620.944 118.257 619.637 114.593 617.024 111.7C614.411 108.807 610.981 107.36 606.734 107.36C602.487 107.36 599.057 108.807 596.444 111.7C593.877 114.593 592.594 118.257 592.594 122.69C592.594 127.123 593.877 130.787 596.444 133.68ZM654.73 146.84C646.423 146.84 639.843 144.367 634.99 139.42L640.38 131.86C644.393 136.06 649.34 138.16 655.22 138.16C657.786 138.16 659.77 137.67 661.17 136.69C662.616 135.663 663.34 134.427 663.34 132.98C663.34 131.72 662.663 130.67 661.31 129.83C660.003 128.99 658.346 128.383 656.34 128.01C654.38 127.637 652.233 127.1 649.9 126.4C647.566 125.7 645.396 124.907 643.39 124.02C641.43 123.133 639.773 121.733 638.42 119.82C637.113 117.907 636.46 115.573 636.46 112.82C636.46 108.807 638.07 105.447 641.29 102.74C644.51 99.9867 648.803 98.61 654.17 98.61C661.59 98.61 667.656 100.78 672.37 105.12L666.84 112.4C663.153 108.993 658.626 107.29 653.26 107.29C651.16 107.29 649.526 107.71 648.36 108.55C647.193 109.39 646.61 110.533 646.61 111.98C646.61 113.1 647.263 114.057 648.57 114.85C649.923 115.597 651.58 116.157 653.54 116.53C655.546 116.903 657.693 117.463 659.98 118.21C662.313 118.91 664.46 119.727 666.42 120.66C668.426 121.547 670.083 122.97 671.39 124.93C672.743 126.843 673.42 129.153 673.42 131.86C673.42 136.34 671.81 139.957 668.59 142.71C665.416 145.463 660.796 146.84 654.73 146.84ZM682.702 113.17L680.952 108.97L688.442 105.68C688.069 105.447 686.646 104.583 684.172 103.09L689.002 95.88C692.689 98.12 695.559 100.057 697.612 101.69L704.822 98.54L706.572 102.6L701.462 104.84C709.489 111.98 713.502 119.82 713.502 128.36C713.502 133.913 711.892 138.393 708.672 141.8C705.452 145.16 701.089 146.84 695.582 146.84C690.262 146.84 685.946 145.3 682.632 142.22C679.366 139.14 677.732 135.173 677.732 130.32C677.732 125.513 679.156 121.57 682.002 118.49C684.896 115.363 688.466 113.8 692.712 113.8C697.426 113.8 701.159 115.97 703.912 120.31C702.232 116.53 698.569 112.657 692.922 108.69L682.702 113.17ZM689.282 136.48C690.822 138.113 692.922 138.93 695.582 138.93C698.242 138.93 700.342 138.113 701.882 136.48C703.469 134.8 704.262 132.747 704.262 130.32C704.262 127.893 703.469 125.863 701.882 124.23C700.342 122.55 698.242 121.71 695.582 121.71C692.922 121.71 690.822 122.55 689.282 124.23C687.742 125.863 686.972 127.893 686.972 130.32C686.972 132.747 687.742 134.8 689.282 136.48ZM739.418 146.84C735.171 146.84 731.694 145.113 728.988 141.66V158.88H720.098V99.31H728.988V116.46C731.648 113.053 735.124 111.35 739.418 111.35C743.851 111.35 747.444 112.937 750.198 116.11C752.998 119.237 754.398 123.553 754.398 129.06C754.398 134.567 752.998 138.907 750.198 142.08C747.444 145.253 743.851 146.84 739.418 146.84ZM736.618 138.93C739.184 138.93 741.238 138.02 742.778 136.2C744.364 134.38 745.158 132 745.158 129.06C745.158 126.167 744.364 123.81 742.778 121.99C741.238 120.17 739.184 119.26 736.618 119.26C735.171 119.26 733.724 119.633 732.278 120.38C730.831 121.127 729.734 122.037 728.988 123.11V135.08C729.734 136.153 730.831 137.063 732.278 137.81C733.771 138.557 735.218 138.93 736.618 138.93ZM79.1663 244.23L80.4963 236.25C81.3363 236.623 82.2696 236.81 83.2963 236.81C85.6763 236.81 87.2396 235.993 87.9863 234.36L89.2463 231.49L75.5263 197.19H85.0463L93.8663 220.71L102.686 197.19H112.276L96.3863 236.53C95.2196 239.517 93.5863 241.593 91.4863 242.76C89.3863 243.973 86.7496 244.627 83.5763 244.72C81.943 244.72 80.473 244.557 79.1663 244.23ZM106.956 182L95.6163 192.08H89.3863L98.7663 182H106.956ZM145.435 231H136.545V227.5C134.118 230.393 130.548 231.84 125.835 231.84C122.802 231.84 120.072 230.86 117.645 228.9C115.265 226.893 114.075 224.14 114.075 220.64C114.075 217 115.242 214.27 117.575 212.45C119.955 210.63 122.708 209.72 125.835 209.72C130.642 209.72 134.212 211.097 136.545 213.85V209.3C136.545 207.573 135.868 206.197 134.515 205.17C133.162 204.143 131.365 203.63 129.125 203.63C125.438 203.63 122.148 204.96 119.255 207.62L115.895 201.67C119.908 198.123 124.832 196.35 130.665 196.35C135.005 196.35 138.552 197.353 141.305 199.36C144.058 201.367 145.435 204.633 145.435 209.16V231ZM129.405 225.82C132.718 225.82 135.098 224.84 136.545 222.88V218.68C135.098 216.72 132.718 215.74 129.405 215.74C127.585 215.74 126.068 216.207 124.855 217.14C123.642 218.027 123.035 219.263 123.035 220.85C123.035 222.39 123.642 223.603 124.855 224.49C126.068 225.377 127.585 225.82 129.405 225.82ZM143.405 191.66H117.995V186.62H143.405V191.66ZM180.783 192.08H175.323L170.213 185.85L165.243 192.08H159.783L166.223 182H174.203L180.783 192.08ZM170.003 231.84C164.776 231.84 160.483 230.183 157.123 226.87C153.763 223.557 152.083 219.287 152.083 214.06C152.083 208.88 153.763 204.633 157.123 201.32C160.483 198.007 164.776 196.35 170.003 196.35C175.976 196.35 180.433 198.38 183.373 202.44L177.563 207.9C175.929 205.473 173.549 204.26 170.423 204.26C167.716 204.26 165.499 205.17 163.773 206.99C162.093 208.763 161.253 211.12 161.253 214.06C161.253 217 162.093 219.38 163.773 221.2C165.499 223.02 167.716 223.93 170.423 223.93C173.456 223.93 175.836 222.717 177.563 220.29L183.373 225.68C180.433 229.787 175.976 231.84 170.003 231.84ZM221.384 231H212.424V226.66C209.671 230.113 206.194 231.84 201.994 231.84C197.608 231.84 194.014 230.277 191.214 227.15C188.414 223.977 187.014 219.637 187.014 214.13C187.014 208.717 188.414 204.4 191.214 201.18C194.014 197.96 197.608 196.35 201.994 196.35C206.288 196.35 209.764 198.077 212.424 201.53V194.04H202.274V189H212.424V184.31H221.384V189H225.444V194.04H221.384V231ZM204.724 223.93C206.218 223.93 207.688 223.58 209.134 222.88C210.581 222.133 211.678 221.2 212.424 220.08V208.11C211.678 206.99 210.581 206.08 209.134 205.38C207.688 204.633 206.218 204.26 204.724 204.26C202.204 204.26 200.151 205.17 198.564 206.99C196.978 208.81 196.184 211.19 196.184 214.13C196.184 217.023 196.978 219.38 198.564 221.2C200.151 223.02 202.204 223.93 204.724 223.93ZM253.573 237.86L257.143 240.1C255.65 242.713 253.457 244.02 250.563 244.02C248.557 244.02 246.877 243.483 245.523 242.41C244.217 241.383 243.563 239.82 243.563 237.72C243.563 235.573 244.333 233.613 245.873 231.84C240.74 231.747 236.517 230.09 233.203 226.87C229.937 223.603 228.303 219.333 228.303 214.06C228.303 209.067 229.937 204.867 233.203 201.46C236.517 198.053 240.717 196.35 245.803 196.35C250.843 196.35 254.927 198.077 258.053 201.53C261.18 204.937 262.743 209.417 262.743 214.97V216.93H237.613C237.893 219.17 238.897 221.037 240.623 222.53C242.35 224.023 244.59 224.77 247.343 224.77C248.837 224.77 250.447 224.467 252.173 223.86C253.947 223.253 255.347 222.437 256.373 221.41L260.293 227.15C258.427 228.877 255.953 230.16 252.873 231C249.607 232.633 247.973 234.733 247.973 237.3C247.973 238.327 248.207 239.073 248.673 239.54C249.187 240.053 249.817 240.31 250.563 240.31C252.01 240.31 253.013 239.493 253.573 237.86ZM254.133 210.91C253.993 208.997 253.223 207.27 251.823 205.73C250.47 204.19 248.463 203.42 245.803 203.42C243.283 203.42 241.323 204.19 239.923 205.73C238.523 207.223 237.707 208.95 237.473 210.91H254.133ZM300.875 207.13V231.91C300.875 235.877 299.848 239.003 297.795 241.29C295.788 243.577 292.802 244.72 288.835 244.72C286.828 244.72 285.242 244.533 284.075 244.16C282.955 243.833 281.765 243.227 280.505 242.34L282.885 235.13C284.285 236.25 285.778 236.81 287.365 236.81C288.812 236.81 289.932 236.39 290.725 235.55C291.565 234.71 291.985 233.497 291.985 231.91V210.56C291.985 206.36 289.908 204.26 285.755 204.26C282.535 204.26 279.968 205.59 278.055 208.25V231H269.165V197.19H278.055V201.6C280.995 198.1 284.938 196.35 289.885 196.35C293.525 196.35 296.255 197.307 298.075 199.22C299.942 201.133 300.875 203.77 300.875 207.13ZM323.562 244.72C317.729 244.72 312.875 243.04 309.002 239.68L312.992 233.24C315.512 236.04 319.035 237.44 323.562 237.44C326.082 237.44 328.252 236.763 330.072 235.41C331.939 234.103 332.872 231.933 332.872 228.9V225.47C330.072 229.017 326.595 230.79 322.442 230.79C318.055 230.79 314.462 229.297 311.662 226.31C308.909 223.277 307.532 219.03 307.532 213.57C307.532 208.157 308.909 203.933 311.662 200.9C314.462 197.867 318.055 196.35 322.442 196.35C326.642 196.35 330.119 198.077 332.872 201.53V197.19H341.832V228.69C341.832 231.77 341.272 234.407 340.152 236.6C339.079 238.793 337.609 240.45 335.742 241.57C333.875 242.69 331.939 243.483 329.932 243.95C327.972 244.463 325.849 244.72 323.562 244.72ZM325.242 222.88C326.689 222.88 328.135 222.507 329.582 221.76C331.029 221.013 332.125 220.103 332.872 219.03V208.11C332.125 206.99 331.029 206.08 329.582 205.38C328.182 204.633 326.735 204.26 325.242 204.26C322.675 204.26 320.599 205.1 319.012 206.78C317.472 208.46 316.702 210.723 316.702 213.57C316.702 216.417 317.472 218.68 319.012 220.36C320.599 222.04 322.675 222.88 325.242 222.88ZM326.152 192.99C324.845 192.99 323.725 192.547 322.792 191.66C321.859 190.727 321.392 189.583 321.392 188.23C321.392 186.923 321.859 185.803 322.792 184.87C323.725 183.937 324.845 183.47 326.152 183.47C327.412 183.47 328.509 183.937 329.442 184.87C330.375 185.803 330.842 186.923 330.842 188.23C330.842 189.537 330.375 190.657 329.442 191.59C328.509 192.523 327.412 192.99 326.152 192.99ZM369.969 194.04H359.819V201.6C361.033 200.153 362.666 198.917 364.719 197.89C366.819 196.863 369.153 196.35 371.719 196.35C375.359 196.35 378.089 197.283 379.909 199.15C381.776 201.017 382.709 203.63 382.709 206.99V231H373.819V210.42C373.819 208.18 373.283 206.593 372.209 205.66C371.136 204.727 369.573 204.26 367.519 204.26C364.393 204.26 361.826 205.59 359.819 208.25V231H350.929V194.04H346.799V189H350.929V184.31H359.819V189H369.969V194.04ZM400.418 231H391.528V197.19H400.418V231ZM408.258 187.67C405.225 191.777 401.141 193.83 396.008 193.83C390.921 193.83 386.815 191.777 383.688 187.67L387.608 184.38C389.661 187.273 392.461 188.72 396.008 188.72C399.461 188.72 402.238 187.273 404.338 184.38L408.258 187.67ZM428.553 240.66C428.553 244.907 426.617 248.407 422.743 251.16L419.663 248.71C420.643 248.15 421.577 247.333 422.463 246.26C423.35 245.187 423.887 244.16 424.073 243.18C423.887 243.273 423.537 243.32 423.023 243.32C421.95 243.32 421.063 242.947 420.363 242.2C419.663 241.5 419.313 240.567 419.313 239.4C419.313 238.187 419.733 237.137 420.573 236.25C421.413 235.41 422.417 234.99 423.583 234.99C424.937 234.99 426.103 235.503 427.083 236.53C428.063 237.557 428.553 238.933 428.553 240.66ZM442.273 231H431.143L422.183 217.98L418.123 222.32V231H409.233V184.31H418.123V212.24L430.933 197.19H441.853L428.483 212.52L442.273 231ZM468.394 189.07C468.394 193.317 466.458 196.817 462.584 199.57L459.504 197.12C460.484 196.56 461.418 195.743 462.304 194.67C463.191 193.597 463.728 192.57 463.914 191.59C463.728 191.683 463.378 191.73 462.864 191.73C461.791 191.73 460.904 191.38 460.204 190.68C459.504 189.933 459.154 188.977 459.154 187.81C459.154 186.597 459.574 185.57 460.414 184.73C461.254 183.843 462.258 183.4 463.424 183.4C464.778 183.4 465.944 183.913 466.924 184.94C467.904 185.967 468.394 187.343 468.394 189.07ZM455.584 231H446.694V184.31H455.584V231ZM491.74 182L483.69 192.08H478.51L484.6 182H491.74ZM502.17 182L494.12 192.08H488.94L495.03 182H502.17ZM500.14 226.73C496.874 230.137 492.534 231.84 487.12 231.84C481.707 231.84 477.367 230.137 474.1 226.73C470.88 223.277 469.27 219.053 469.27 214.06C469.27 209.067 470.88 204.867 474.1 201.46C477.367 198.053 481.707 196.35 487.12 196.35C492.534 196.35 496.874 198.053 500.14 201.46C503.407 204.867 505.04 209.067 505.04 214.06C505.04 219.053 503.407 223.277 500.14 226.73ZM480.82 221.13C482.36 222.997 484.46 223.93 487.12 223.93C489.78 223.93 491.88 222.997 493.42 221.13C495.007 219.217 495.8 216.86 495.8 214.06C495.8 211.307 495.007 208.997 493.42 207.13C491.88 205.217 489.78 204.26 487.12 204.26C484.46 204.26 482.36 205.217 480.82 207.13C479.28 208.997 478.51 211.307 478.51 214.06C478.51 216.86 479.28 219.217 480.82 221.13ZM523.746 244.72C520.479 244.72 517.912 243.973 516.046 242.48L517.796 238.91C519.569 240.263 521.459 240.94 523.466 240.94C524.492 240.94 525.356 240.73 526.056 240.31C526.756 239.937 527.106 239.377 527.106 238.63C527.106 237.417 526.429 236.81 525.076 236.81C524.236 236.81 523.489 237.137 522.836 237.79L519.616 235.97L521.156 231.7C515.929 231.187 511.776 229.483 508.696 226.59L512.546 220.36C513.852 221.573 515.626 222.647 517.866 223.58C520.106 224.513 522.229 224.98 524.236 224.98C526.102 224.98 527.502 224.653 528.436 224C529.416 223.347 529.906 222.46 529.906 221.34C529.906 220.5 529.392 219.823 528.366 219.31C527.386 218.75 526.149 218.353 524.656 218.12C523.209 217.887 521.599 217.537 519.826 217.07C518.099 216.603 516.489 216.043 514.996 215.39C513.549 214.737 512.312 213.71 511.286 212.31C510.306 210.863 509.816 209.09 509.816 206.99C509.816 204.003 511.052 201.483 513.526 199.43C515.999 197.377 519.382 196.35 523.676 196.35C528.902 196.35 533.452 197.89 537.326 200.97L533.756 207.06C532.682 205.94 531.236 205.007 529.416 204.26C527.642 203.513 525.752 203.14 523.746 203.14C522.159 203.14 520.876 203.467 519.896 204.12C518.916 204.727 518.426 205.52 518.426 206.5C518.426 207.247 518.916 207.877 519.896 208.39C520.876 208.857 522.112 209.207 523.606 209.44C525.099 209.673 526.709 210.047 528.436 210.56C530.162 211.027 531.772 211.61 533.266 212.31C534.759 212.963 535.996 214.037 536.976 215.53C537.956 217.023 538.446 218.843 538.446 220.99C538.446 223.977 537.279 226.473 534.946 228.48C532.659 230.44 529.486 231.537 525.426 231.77L524.306 234.57C525.099 234.103 525.939 233.87 526.826 233.87C528.132 233.87 529.229 234.313 530.116 235.2C531.049 236.133 531.516 237.323 531.516 238.77C531.516 240.59 530.769 242.037 529.276 243.11C527.782 244.183 525.939 244.72 523.746 244.72ZM556.335 231.84C553.208 231.84 550.828 231.047 549.195 229.46C547.562 227.873 546.745 225.587 546.745 222.6V216.37H541.145V211.33H546.745V204.96H541.145V197.19H546.745V187.95H555.705V197.19H562.565V204.96H555.705V211.33H560.465V216.37H555.705V220.22C555.705 221.293 555.985 222.18 556.545 222.88C557.105 223.58 557.852 223.93 558.785 223.93C560.185 223.93 561.212 223.603 561.865 222.95L563.755 229.67C562.122 231.117 559.648 231.84 556.335 231.84ZM589.647 191.73C588.247 193.13 586.544 193.83 584.537 193.83C582.531 193.83 580.804 193.107 579.357 191.66C577.911 190.213 577.187 188.487 577.187 186.48C577.187 184.473 577.911 182.747 579.357 181.3C580.804 179.807 582.531 179.06 584.537 179.06C586.544 179.06 588.247 179.807 589.647 181.3C591.094 182.747 591.817 184.473 591.817 186.48C591.817 188.533 591.094 190.283 589.647 191.73ZM582.227 188.79C582.881 189.443 583.651 189.77 584.537 189.77C585.424 189.77 586.171 189.443 586.777 188.79C587.431 188.137 587.757 187.367 587.757 186.48C587.757 185.547 587.431 184.777 586.777 184.17C586.171 183.517 585.424 183.19 584.537 183.19C583.651 183.19 582.881 183.517 582.227 184.17C581.574 184.823 581.247 185.593 581.247 186.48C581.247 187.367 581.574 188.137 582.227 188.79ZM600.357 231H591.467V226.73C588.434 230.137 584.467 231.84 579.567 231.84C575.927 231.84 573.197 230.907 571.377 229.04C569.557 227.173 568.647 224.56 568.647 221.2V197.19H577.537V217.7C577.537 221.853 579.614 223.93 583.767 223.93C586.894 223.93 589.461 222.647 591.467 220.08V197.19H600.357V231ZM637.254 205.1C640.428 207.807 642.014 211.423 642.014 215.95C642.014 220.477 640.498 224.257 637.464 227.29C634.431 230.323 630.231 231.84 624.864 231.84C619.451 231.84 615.111 230.137 611.844 226.73C608.624 223.277 607.014 219.053 607.014 214.06C607.014 209.207 608.648 205.193 611.914 202.02C615.228 198.8 619.708 197.19 625.354 197.19H643.554V205.1H637.254ZM633.544 214.27C633.544 210.163 631.911 207.107 628.644 205.1H625.354C622.508 205.1 620.268 205.987 618.634 207.76C617.048 209.533 616.254 211.633 616.254 214.06C616.254 216.86 617.024 219.217 618.564 221.13C620.104 222.997 622.204 223.93 624.864 223.93C627.524 223.93 629.624 222.997 631.164 221.13C632.751 219.217 633.544 216.93 633.544 214.27ZM646.23 239.61V223.58C647.256 223.393 648.05 223.067 648.61 222.6C649.216 222.087 649.776 221.13 650.29 219.73C650.85 218.283 651.293 216.23 651.62 213.57L653.79 197.19H681.16V223.23H684.87V239.61H675.98V231H655.19V239.61H646.23ZM661.56 204.96L660.51 214.13C660.043 218.19 658.736 221.223 656.59 223.23H672.27V204.96H661.56Z" fill="black"/>
</svg>
